<svg width="16" height="17" viewBox="0 0 16 17" fill="none" xmlns="http://www.w3.org/2000/svg">
<path d="M4.33212 11.8333H11.5516C12.1849 11.8333 12.5016 11.8333 12.7596 11.7188C12.9872 11.618 13.1819 11.4554 13.3219 11.2496C13.4806 11.0162 13.5372 10.7046 13.6505 10.0815L14.551 5.12866C14.5903 4.9127 14.6099 4.80472 14.5796 4.72041C14.553 4.64644 14.5011 4.58426 14.4331 4.54484C14.3556 4.49992 14.2458 4.49992 14.0263 4.49992H3.33212M1.33203 1.83325H2.20963C2.37143 1.83325 2.45232 1.83325 2.51775 1.8628C2.57541 1.88885 2.62447 1.93077 2.6592 1.98367C2.69859 2.04369 2.71121 2.12359 2.73644 2.28341L4.59429 14.0498C4.61952 14.2096 4.63214 14.2895 4.67153 14.3495C4.70625 14.4024 4.75532 14.4443 4.81298 14.4704C4.87841 14.4999 4.9593 14.4999 5.12109 14.4999H12.6654" stroke="#004873"/>
</svg>
