<svg width="48" height="48" viewBox="0 0 48 48" fill="none" xmlns="http://www.w3.org/2000/svg">
<g clip-path="url(#clip0_6974_13221)">
<path d="M24 48C37.2548 48 48 37.2548 48 24C48 10.7452 37.2548 0 24 0C10.7452 0 0 10.7452 0 24C0 37.2548 10.7452 48 24 48Z" fill="#F0F0F0"/>
<path d="M21.9149 23.9987C21.9149 23.9987 7.04531 40.9726 7.03125 40.9692C11.3743 45.3124 17.3744 47.9987 24.0019 47.9987C37.2566 47.9987 48.0019 37.2534 48.0019 23.9987H21.9149Z" fill="#D80027"/>
<path d="M7.02943 7.02917C-2.34314 16.4017 -2.34314 31.5978 7.02943 40.9704C10.9025 37.0973 14.6275 33.3724 24.0001 23.9998L7.02943 7.02917Z" fill="#0052B4"/>
</g>
<defs>
<clipPath id="clip0_6974_13221">
<rect width="48" height="48" fill="white"/>
</clipPath>
</defs>
</svg>
