<svg width="40" height="41" viewBox="0 0 40 41" fill="none" xmlns="http://www.w3.org/2000/svg">
<path d="M7.75 4.5C7.75 2.70508 9.20508 1.25 11 1.25H27C27.1212 1.25 27.2375 1.29816 27.3232 1.38388L38.1161 12.1768C38.2018 12.2625 38.25 12.3788 38.25 12.5V36.5C38.25 38.2949 36.7949 39.75 35 39.75H11C9.20507 39.75 7.75 38.2949 7.75 36.5V4.5Z" stroke="#E4E4E7" stroke-width="1.5"/>
<path d="M27 1V8.5C27 10.7091 28.7909 12.5 31 12.5H38.5" stroke="#E4E4E7" stroke-width="1.5"/>
<rect x="1" y="18.5" width="29" height="16" rx="2" fill="#155EEF"/>
<path d="M7.40163 30.5H4.82351V23.2273H7.42294C8.15447 23.2273 8.78421 23.3729 9.31214 23.6641C9.84008 23.9529 10.2461 24.3684 10.5302 24.9105C10.8166 25.4527 10.9599 26.1013 10.9599 26.8565C10.9599 27.6141 10.8166 28.2652 10.5302 28.8097C10.2461 29.3542 9.83771 29.772 9.30504 30.0632C8.77474 30.3544 8.14027 30.5 7.40163 30.5ZM6.36115 29.1825H7.33771C7.79226 29.1825 8.1746 29.102 8.48473 28.9411C8.79723 28.7777 9.03161 28.5256 9.18786 28.1847C9.34647 27.8414 9.42578 27.3987 9.42578 26.8565C9.42578 26.3191 9.34647 25.88 9.18786 25.5391C9.03161 25.1982 8.79841 24.9472 8.48828 24.7862C8.17815 24.6252 7.79581 24.5447 7.34126 24.5447H6.36115V29.1825ZM18.7821 26.8636C18.7821 27.6567 18.6318 28.3314 18.3311 28.8878C18.0328 29.4441 17.6257 29.8691 17.1096 30.1626C16.5958 30.4538 16.0182 30.5994 15.3766 30.5994C14.7303 30.5994 14.1503 30.4527 13.6365 30.1591C13.1228 29.8655 12.7168 29.4406 12.4185 28.8842C12.1202 28.3279 11.9711 27.6544 11.9711 26.8636C11.9711 26.0705 12.1202 25.3958 12.4185 24.8395C12.7168 24.2831 13.1228 23.8594 13.6365 23.5682C14.1503 23.2746 14.7303 23.1278 15.3766 23.1278C16.0182 23.1278 16.5958 23.2746 17.1096 23.5682C17.6257 23.8594 18.0328 24.2831 18.3311 24.8395C18.6318 25.3958 18.7821 26.0705 18.7821 26.8636ZM17.2232 26.8636C17.2232 26.3499 17.1462 25.9167 16.9924 25.5639C16.8408 25.2112 16.6266 24.9437 16.3496 24.7614C16.0726 24.5791 15.7483 24.4879 15.3766 24.4879C15.0049 24.4879 14.6806 24.5791 14.4036 24.7614C14.1266 24.9437 13.9112 25.2112 13.7573 25.5639C13.6058 25.9167 13.53 26.3499 13.53 26.8636C13.53 27.3774 13.6058 27.8106 13.7573 28.1634C13.9112 28.5161 14.1266 28.7836 14.4036 28.9659C14.6806 29.1482 15.0049 29.2393 15.3766 29.2393C15.7483 29.2393 16.0726 29.1482 16.3496 28.9659C16.6266 28.7836 16.8408 28.5161 16.9924 28.1634C17.1462 27.8106 17.2232 27.3774 17.2232 26.8636ZM26.3381 25.7734H24.7827C24.7543 25.5722 24.6963 25.3935 24.6087 25.2372C24.5211 25.0786 24.4086 24.9437 24.2713 24.8324C24.134 24.7211 23.9754 24.6359 23.7955 24.5767C23.6179 24.5175 23.425 24.4879 23.2166 24.4879C22.8402 24.4879 22.5123 24.5814 22.233 24.7685C21.9536 24.9531 21.737 25.223 21.5831 25.5781C21.4292 25.9309 21.3523 26.3594 21.3523 26.8636C21.3523 27.3821 21.4292 27.8177 21.5831 28.1705C21.7393 28.5232 21.9571 28.7895 22.2365 28.9695C22.5159 29.1494 22.839 29.2393 23.206 29.2393C23.4119 29.2393 23.6025 29.2121 23.7777 29.1577C23.9553 29.1032 24.1127 29.0239 24.25 28.9197C24.3873 28.8132 24.5009 28.6842 24.5909 28.5327C24.6832 28.3812 24.7472 28.2083 24.7827 28.0142L26.3381 28.0213C26.2978 28.3551 26.1972 28.6771 26.0362 28.9872C25.8776 29.295 25.6634 29.5708 25.3935 29.8146C25.1259 30.0561 24.8063 30.2479 24.4347 30.3899C24.0653 30.5296 23.6475 30.5994 23.1811 30.5994C22.5324 30.5994 21.9524 30.4527 21.4411 30.1591C20.9321 29.8655 20.5296 29.4406 20.2337 28.8842C19.9401 28.3279 19.7933 27.6544 19.7933 26.8636C19.7933 26.0705 19.9425 25.3958 20.2408 24.8395C20.5391 24.2831 20.9439 23.8594 21.4553 23.5682C21.9666 23.2746 22.5419 23.1278 23.1811 23.1278C23.6025 23.1278 23.9931 23.187 24.353 23.3054C24.7152 23.4238 25.036 23.5966 25.3153 23.8239C25.5947 24.0488 25.822 24.3246 25.9972 24.6513C26.1747 24.978 26.2884 25.352 26.3381 25.7734Z" fill="white"/>
</svg>
