<svg width="40" height="40" viewBox="0 0 40 40" fill="none" xmlns="http://www.w3.org/2000/svg">
<g clip-path="url(#clip0_6453_2283)">
<circle cx="20" cy="20" r="20" fill="#C22532"/>
<path fill-rule="evenodd" clip-rule="evenodd" d="M25.3892 6.66666H14.6108C10.2304 6.66666 6.66663 10.2304 6.66663 14.6108V25.3892C6.66663 29.7696 10.2304 33.3333 14.6108 33.3333H25.3892C29.7696 33.3333 33.3333 29.7696 33.3333 25.3892V14.6108C33.3332 10.2304 29.7695 6.66666 25.3892 6.66666ZM30.6506 25.3892C30.6506 28.295 28.295 30.6507 25.3892 30.6507H14.6108C11.705 30.6507 9.34929 28.295 9.34929 25.3892V14.6108C9.34929 11.7049 11.705 9.34932 14.6108 9.34932H25.3892C28.295 9.34932 30.6506 11.7049 30.6506 14.6108V25.3892ZM19.9999 13.103C16.197 13.103 13.103 16.197 13.103 19.9999C13.103 23.8029 16.197 26.8969 19.9999 26.8969C23.8029 26.8969 26.8969 23.8029 26.8969 19.9999C26.8969 16.1969 23.8029 13.103 19.9999 13.103ZM19.9999 24.2142C17.6724 24.2142 15.7857 22.3275 15.7857 20C15.7857 17.6725 17.6725 15.7857 19.9999 15.7857C22.3274 15.7857 24.2142 17.6725 24.2142 20C24.2142 22.3274 22.3274 24.2142 19.9999 24.2142ZM28.5629 13.1549C28.5629 14.0676 27.823 14.8075 26.9103 14.8075C25.9975 14.8075 25.2576 14.0676 25.2576 13.1549C25.2576 12.2421 25.9975 11.5022 26.9103 11.5022C27.823 11.5022 28.5629 12.2421 28.5629 13.1549Z" fill="white"/>
</g>
<defs>
<clipPath id="clip0_6453_2283">
<rect width="40" height="40" fill="white"/>
</clipPath>
</defs>
</svg>
