<svg width="32" height="32" viewBox="0 0 32 32" fill="none" xmlns="http://www.w3.org/2000/svg">
<circle cx="16" cy="16" r="16" fill="#004873"/>
<path fill-rule="evenodd" clip-rule="evenodd" d="M20.3101 5.33333H11.6873C8.18301 5.33333 5.33203 8.18431 5.33203 11.6886V20.3113C5.33203 23.8157 8.18301 26.6667 11.6873 26.6667H20.3101C23.8144 26.6667 26.6654 23.8157 26.6654 20.3113V11.6886C26.6653 8.18431 23.8143 5.33333 20.3101 5.33333ZM24.5192 20.3113C24.5192 22.636 22.6347 24.5205 20.3101 24.5205H11.6873C9.3627 24.5205 7.47816 22.636 7.47816 20.3113V11.6886C7.47816 9.36396 9.3627 7.47946 11.6873 7.47946H20.3101C22.6347 7.47946 24.5192 9.36396 24.5192 11.6886V20.3113ZM15.9987 10.4824C12.9563 10.4824 10.4811 12.9576 10.4811 15.9999C10.4811 19.0423 12.9563 21.5175 15.9987 21.5175C19.0411 21.5175 21.5162 19.0423 21.5162 15.9999C21.5162 12.9576 19.0411 10.4824 15.9987 10.4824ZM15.9987 19.3714C14.1367 19.3714 12.6273 17.862 12.6273 16C12.6273 14.138 14.1367 12.6285 15.9987 12.6285C17.8607 12.6285 19.3701 14.138 19.3701 16C19.3701 17.8619 17.8606 19.3714 15.9987 19.3714ZM22.8491 10.5239C22.8491 11.2541 22.2571 11.846 21.527 11.846C20.7968 11.846 20.2048 11.2541 20.2048 10.5239C20.2048 9.7937 20.7968 9.20177 21.527 9.20177C22.2571 9.20177 22.8491 9.7937 22.8491 10.5239Z" fill="white"/>
</svg>
