<svg width="20" height="21" viewBox="0 0 20 21" fill="none" xmlns="http://www.w3.org/2000/svg">
<path d="M17.5 18H3.83333C3.36662 18 3.13327 18 2.95501 17.9092C2.79821 17.8293 2.67072 17.7018 2.59083 17.545C2.5 17.3667 2.5 17.1334 2.5 16.6667V3M16.6667 7.16667L13.4009 10.6522C13.2772 10.7843 13.2153 10.8504 13.1406 10.8845C13.0747 10.9146 13.0021 10.9271 12.93 10.9206C12.8482 10.9132 12.7679 10.8715 12.6072 10.7881L9.89277 9.3786C9.73212 9.29519 9.65179 9.25348 9.57003 9.24611C9.49787 9.23961 9.42526 9.25204 9.35936 9.28217C9.28471 9.31631 9.22282 9.38236 9.09906 9.51445L5.83333 13" stroke="black" stroke-width="1.66"/>
</svg>
