<svg width="32" height="32" viewBox="0 0 32 32" fill="none" xmlns="http://www.w3.org/2000/svg">
<path d="M0 16C0 7.16344 7.16344 0 16 0C24.8366 0 32 7.16344 32 16C32 24.8366 24.8366 32 16 32C7.16344 32 0 24.8366 0 16Z" fill="#004873"/>
<path fill-rule="evenodd" clip-rule="evenodd" d="M11.544 9.8818C11.544 10.9279 10.7566 11.7649 9.4923 11.7649H9.46913C8.25182 11.7649 7.46484 10.9279 7.46484 9.8818C7.46484 8.8136 8.27578 8 9.5162 8C10.7566 8 11.5205 8.8136 11.544 9.8818ZM11.3052 13.2519V24.1464H7.67926V13.2519H11.3052ZM24.3816 24.1464L24.3818 17.8998C24.3818 14.5535 22.593 12.9961 20.2069 12.9961C18.2818 12.9961 17.4199 14.0535 16.9386 14.7953V13.2522H13.3122C13.36 14.2745 13.3122 24.1467 13.3122 24.1467H16.9386V18.0623C16.9386 17.7367 16.9622 17.4119 17.058 17.1788C17.3201 16.5283 17.9168 15.8548 18.9185 15.8548C20.2311 15.8548 20.7558 16.8538 20.7558 18.3178V24.1464H24.3816Z" fill="white"/>
</svg>
