<svg width="40" height="41" viewBox="0 0 40 41" fill="none" xmlns="http://www.w3.org/2000/svg">
<path d="M13.3163 27.9384C13.9246 26.5052 15.3449 25.5 17 25.5H23C24.6551 25.5 26.0754 26.5052 26.6837 27.9384M24 18C24 20.2091 22.2091 22 20 22C17.7909 22 16 20.2091 16 18C16 15.7909 17.7909 14 20 14C22.2091 14 24 15.7909 24 18ZM30 20.5C30 26.0228 25.5228 30.5 20 30.5C14.4772 30.5 10 26.0228 10 20.5C10 14.9772 14.4772 10.5 20 10.5C25.5228 10.5 30 14.9772 30 20.5Z" stroke="white" stroke-width="1.25"/>
</svg>
