<svg width="182" height="51" viewBox="0 0 182 51" fill="none" xmlns="http://www.w3.org/2000/svg">
<path d="M13.6001 18.947H11.9332V21.4971H13.6001V18.947ZM13.6001 14.2299H11.9332V16.7468H13.6001V14.2299ZM15.8173 16.5968L14.5337 17.7636L16.0339 18.9638V21.9972L14.267 23.6974H9.4994V12.0298H14.1836L15.8173 13.5299V16.5968Z" fill="white"/>
<path d="M21.4349 19.3304H22.8686L22.3184 14.2467H22.035L21.4349 19.3304ZM23.1519 21.5307H21.2183L21.0015 23.6976H18.4677L20.1014 12.0298H24.0354L25.9358 23.6976H23.402L23.1519 21.5307Z" fill="white"/>
<path d="M34.7707 15.7968H32.4702V14.23H30.8032V16.5968L33.1871 16.5801L34.9042 18.4637V21.9972L33.137 23.6974H30.1366L28.3694 21.9972V19.9472H30.8032V21.4973H32.4702V18.8971H30.2199L28.5029 17.1968V13.7299L30.2698 12.0296H33.0038L34.7707 13.7299V15.7968Z" fill="white"/>
<path d="M40.7047 16.4301H43.0219V18.6303H40.7047V21.4972H43.4387V23.6975H38.271V12.0297H43.4387V14.23H40.7047V16.4301Z" fill="white"/>
<path d="M50.4399 18.947H48.773V21.4971H50.4399V18.947ZM50.4399 14.2299H48.773V16.7468H50.4399V14.2299ZM52.6569 16.5968L51.3733 17.7636L52.8737 18.9638V21.9972L51.1066 23.6974H46.339V12.0298H51.0232L52.6569 13.5299V16.5968Z" fill="white"/>
<path d="M58.2745 19.3304H59.7082L59.158 14.2467H58.8747L58.2745 19.3304ZM59.9916 21.5307H58.0579L57.8411 23.6976H55.3073L56.941 12.0298H60.875L62.7754 23.6976H60.2416L59.9916 21.5307Z" fill="white"/>
<path d="M70.4101 23.6975H65.2423V12.0296H67.6761V21.4973H70.4101V23.6975Z" fill="white"/>
<path d="M78.3447 23.6975H73.1769V12.0296H75.6107V21.4973H78.3447V23.6975Z" fill="white"/>
<path d="M129.121 14.2299H127.454V21.4973H129.121V18.7137H131.555V21.9974L129.788 23.6974H126.787L125.02 21.9974V13.7299L126.787 12.0298H129.788L131.555 13.7299V16.4968H129.121V14.2299Z" fill="white"/>
<path d="M140.273 23.6975H134.272L134.189 21.7472L137.856 14.23H135.005V12.0296H140.673V13.9799L136.989 21.4973H140.273V23.6975Z" fill="white"/>
<path d="M145.757 16.4301H148.074V18.6303H145.757V21.4972H148.491V23.6975H143.323V12.0297H148.491V14.23H145.757V16.4301Z" fill="white"/>
<path d="M155.492 14.2299H153.825V21.4973H155.492V18.7137H157.926V21.9974L156.159 23.6974H153.158L151.391 21.9974V13.7299L153.158 12.0298H156.159L157.926 13.7299V16.4968H155.492V14.2299Z" fill="white"/>
<path d="M165.394 18.947H163.727V23.6975H161.293V12.0297H163.727V16.7469H165.394V12.0297H167.828V23.6975H165.394V18.947Z" fill="white"/>
<path d="M101.682 38.7827L89.5126 26.6144H81.2612L101.682 47.0332L122.103 26.6144H113.852L101.682 38.7827Z" fill="white"/>
<path d="M81.2614 3.2788H122.103V9.1128H81.2614V3.2788Z" fill="white"/>
<path d="M125.537 44.1165C125.537 46.0667 123.956 47.6476 122.006 47.6476C120.055 47.6476 118.474 46.0667 118.474 44.1165C118.474 42.1662 120.055 40.5853 122.006 40.5853C123.956 40.5853 125.537 42.1662 125.537 44.1165Z" fill="white"/>
</svg>
