<svg width="24" height="25" viewBox="0 0 24 25" fill="none" xmlns="http://www.w3.org/2000/svg">
<path d="M3.4115 10.8695C2.81615 10.638 2.51848 10.5222 2.43158 10.3554C2.35624 10.2108 2.35614 10.0385 2.4313 9.89386C2.51801 9.72695 2.81555 9.61084 3.41062 9.37861L20.2984 2.78827C20.8356 2.57864 21.1041 2.47383 21.2758 2.53116C21.4248 2.58096 21.5418 2.69792 21.5916 2.84697C21.6489 3.0186 21.5441 3.28719 21.3345 3.82437L14.7441 20.7121C14.5119 21.3072 14.3958 21.6047 14.2289 21.6914C14.0842 21.7666 13.9119 21.7665 13.7673 21.6912C13.6005 21.6043 13.4848 21.3066 13.2533 20.7112L10.6251 13.9532C10.5782 13.8324 10.5547 13.772 10.5184 13.7211C10.4862 13.676 10.4468 13.6365 10.4017 13.6044C10.3508 13.5681 10.2904 13.5446 10.1695 13.4976L3.4115 10.8695Z" stroke="black" stroke-width="1.66"/>
</svg>
