<svg width="160" height="48" viewBox="0 0 160 48" fill="none" xmlns="http://www.w3.org/2000/svg">
<g clip-path="url(#clip0_11479_10482)">
<path d="M68.5328 0.0600204H77.0094C77.8988 1.15902 78.4744 2.6241 78.4744 4.24572C78.4744 5.86735 77.9771 7.33242 76.6955 8.27488C78.2388 9.42607 79.0761 11.2572 79.0761 12.8796C79.0761 16.2541 76.9833 18.3739 73.661 18.3739H68.5336V0.0600204H68.5328ZM74.8635 4.50743C74.8635 3.53967 74.6018 2.75456 74.0262 1.96944H72.116V7.6985C73.9994 7.30633 74.8627 6.31169 74.8627 4.50664L74.8635 4.50743ZM75.4652 12.8788C75.4652 11.5181 74.9157 10.3408 73.7645 9.347C73.2411 9.42528 72.6916 9.47746 72.116 9.47746V16.8028C74.2611 16.4107 75.4644 14.7883 75.4644 12.8788H75.4652Z" fill="#FFF3D7" stroke="#F4EBCA" stroke-width="0.53" stroke-miterlimit="10"/>
<path d="M87.2515 13.5066H83.4057L82.6467 18.3723H79.9783L79.7948 18.2149L83.8762 0.0600204H88.0097L91.9337 18.3731H88.2184L87.2507 13.5074L87.2515 13.5066ZM86.8585 11.5972L85.1056 2.78065L83.7188 11.5972H86.8585Z" fill="#FFF3D7" stroke="#F4EBCA" stroke-width="0.53" stroke-miterlimit="10"/>
<path d="M92.9252 17.3002V13.4805L93.1608 13.3762L97.7394 16.8036C98.5767 16.228 99.2306 15.182 99.2306 13.8996C99.2306 8.95484 92.8208 9.68777 92.8208 3.40843C92.8208 2.41458 92.9781 1.499 93.3964 0.0600204H101.899V3.87965L101.663 3.98402L96.7448 1.62946C96.5353 2.23115 96.4309 2.83283 96.4309 3.30406C96.4309 6.99324 102.919 7.56804 102.919 13.4544C102.919 16.4368 100.669 18.5818 97.4769 18.5818C95.7241 18.5818 93.9712 18.0323 92.9252 17.3002Z" fill="#FFF3D7" stroke="#F4EBCA" stroke-width="0.53" stroke-miterlimit="10"/>
<path d="M104.526 0.0600204H113.786V4.11527L113.551 4.21963L108.11 1.62946V7.93411H112.191V9.84353H108.11V16.8028L113.551 14.2127L113.786 14.317V18.3723H104.526V0.0600204Z" fill="#FFF3D7" stroke="#F4EBCA" stroke-width="0.53" stroke-miterlimit="10"/>
<path d="M115.882 0.0600204H124.358C125.248 1.15902 125.823 2.6241 125.823 4.24572C125.823 5.86735 125.326 7.33242 124.044 8.27488C125.588 9.42607 126.425 11.2572 126.425 12.8796C126.425 16.2541 124.332 18.3739 121.01 18.3739H115.882V0.0600204H115.882ZM122.212 4.50743C122.212 3.53967 121.951 2.75456 121.375 1.96944H119.466V7.6985C121.349 7.30633 122.212 6.31169 122.212 4.50664V4.50743ZM122.815 12.8788C122.815 11.5181 122.265 10.3408 121.114 9.347C120.591 9.42528 120.041 9.47746 119.466 9.47746V16.8028C121.611 16.4107 122.814 14.7883 122.814 12.8788H122.815Z" fill="#FFF3D7" stroke="#F4EBCA" stroke-width="0.53" stroke-miterlimit="10"/>
<path d="M134.6 13.5066H130.755L129.996 18.3723H127.327L127.144 18.2149L131.225 0.0600204H135.359L139.283 18.3731H135.567L134.6 13.5074L134.6 13.5066ZM134.208 11.5972L132.455 2.78065L131.069 11.5972H134.208Z" fill="#FFF3D7" stroke="#F4EBCA" stroke-width="0.53" stroke-miterlimit="10"/>
<path d="M140.609 0.0600204H144.193V16.8036L149.374 14.2135L149.609 14.3178V18.3731H140.609V0.0600204Z" fill="#FFF3D7" stroke="#F4EBCA" stroke-width="0.53" stroke-miterlimit="10"/>
<path d="M150.979 0.0600204H154.563V16.8036L159.744 14.2135L159.979 14.3178V18.3731H150.979V0.0600204Z" fill="#FFF3D7" stroke="#F4EBCA" stroke-width="0.53" stroke-miterlimit="10"/>
<path d="M68.0094 32.1763C68.0094 28.5923 68.925 24.9292 70.2857 22.9154H78.1084V26.7351L77.8727 26.8394L73.321 24.4849C72.3532 25.976 71.7776 29.0896 71.7776 32.1763C71.7776 35.263 72.1437 38.2462 73.0332 39.6843L77.8727 36.5186L78.1084 36.6229V40.1809C77.0615 40.913 75.3087 41.4364 73.5566 41.4364C69.3187 41.4364 68.0102 37.4334 68.0102 32.1755L68.0094 32.1763Z" fill="#FFF3D7" stroke="#F4EBCA" stroke-width="0.53" stroke-miterlimit="10"/>
<path d="M85.8251 24.4849L80.07 26.8394L79.8344 26.7351V22.9154H90.1421L83.7062 39.659L89.7491 37.3045L89.9847 37.4089V41.2285H79.1275L85.8251 24.4849Z" fill="#FFF3D7" stroke="#F4EBCA" stroke-width="0.53" stroke-miterlimit="10"/>
<path d="M91.5257 22.9154H100.787V26.9707L100.551 27.075L95.1097 24.4849V30.7895H99.1911V32.6989H95.1097V39.6582L100.551 37.0681L100.787 37.1724V41.2277H91.5257V22.9146V22.9154Z" fill="#FFF3D7" stroke="#F4EBCA" stroke-width="0.53" stroke-miterlimit="10"/>
<path d="M102.025 32.1763C102.025 28.5923 102.94 24.9292 104.301 22.9154H112.123V26.7351L111.887 26.8394L107.336 24.4849C106.368 25.976 105.792 29.0896 105.792 32.1763C105.792 35.263 106.158 38.2462 107.048 39.6843L111.887 36.5186L112.123 36.6229V40.1809C111.076 40.913 109.324 41.4364 107.571 41.4364C103.333 41.4364 102.025 37.4334 102.025 32.1755V32.1763Z" fill="#FFF3D7" stroke="#F4EBCA" stroke-width="0.53" stroke-miterlimit="10"/>
<path d="M113.983 22.9154H117.567V30.7903H121.046V22.9154H124.63V41.2285H121.046V32.6997H117.567V41.2285H113.983V22.9154Z" fill="#FFF3D7" stroke="#F4EBCA" stroke-width="0.53" stroke-miterlimit="10"/>
<path d="M127.056 22.9154H130.64V41.2285H127.056V22.9154Z" fill="#FFF3D7" stroke="#F4EBCA" stroke-width="0.53" stroke-miterlimit="10"/>
<path d="M139.391 36.362H135.545L134.786 41.2277H132.118L131.934 41.0703L136.016 22.9138H140.149L144.073 41.2269H140.358L139.39 36.3612L139.391 36.362ZM138.999 34.4526L137.246 25.6361L135.859 34.4526H138.999Z" fill="#FFF3D7" stroke="#F4EBCA" stroke-width="0.53" stroke-miterlimit="10"/>
<path d="M23.4902 41.4799L38.1639 39.5602V39.5594L46.2617 31.4734L32.7021 35.8592L51.533 11.032L51.1907 10.4437L27.5304 13.5676L25.0494 20.2826L25.5095 20.7641L41.385 15.7173L22.0686 40.0559L23.4902 41.4799Z" fill="#FFF3D7"/>
<path d="M8.82287 26.7912L8.62758 26.0456C8.33425 24.9245 7.92232 22.6268 8.46312 19.8327C9.049 16.8029 10.3662 13.8506 12.3776 11.0564C13.8609 8.996 15.8818 6.9245 18.3834 4.89964C20.2747 3.36894 22.4489 1.85722 24.8462 0.407164L25.4866 0.0197449H39.04L31.1888 10.4026L30.629 10.1923L31.2188 1.81848L30.8717 2.03511C30.6227 2.19008 30.206 2.45811 30.0012 2.59173C28.5559 3.53419 25.8653 5.28943 23.2333 7.76101C20.0035 10.7932 17.8877 13.9518 16.9436 17.1492C16.678 18.0513 16.2431 19.8445 16.3214 21.7302C16.4005 23.6381 16.9784 25.0937 18.0379 26.0567C18.8096 26.7477 19.8627 27.128 21.0044 27.128C21.2116 27.128 21.4219 27.1153 21.6275 27.0893C24.5703 26.7216 27.4024 25.0897 30.5389 21.954L30.5634 21.9287C30.599 21.8915 30.667 21.8204 30.7278 21.7571L30.7587 21.7255L31.1991 22.1967L31.1342 22.2892C29.4027 24.7798 26.1065 28.4626 24.4264 29.9688C23.0712 31.184 21.9097 32.0205 20.7728 32.6009C19.3622 33.3204 17.9019 33.6856 16.4321 33.6856C16.3665 33.6856 16.3001 33.6849 16.2297 33.6825L15.7071 33.6683L8.82366 26.7904L8.82287 26.7912Z" fill="#FFF3D7" stroke="#F4EBCA" stroke-width="0.53" stroke-miterlimit="10"/>
<path d="M25.4874 0.0208817L24.847 0.4083C22.4497 1.85756 20.2754 3.36929 18.3842 4.90078C15.8818 6.92563 13.8617 8.99714 12.3784 11.0576C10.367 13.8517 9.04979 16.804 8.46391 19.8338C7.92311 22.628 8.33504 24.9256 8.62837 26.0467L8.82366 26.7923L0 17.9694L7.51118 0.0208817H25.4874Z" fill="#DC0B29"/>
<path d="M59.7842 17.9691L46.261 31.4734L32.7021 35.8584L51.5322 11.032L51.1907 10.4437L27.5305 13.5676L25.0494 20.2818L25.5095 20.7633L41.3858 15.7166L22.0694 40.056L15.7071 33.6691L16.2297 33.6833C16.3 33.6857 16.3665 33.6865 16.4321 33.6865C17.9019 33.6865 19.3622 33.3212 20.7728 32.6017C21.9097 32.0214 23.0712 31.1848 24.4264 29.9696C26.1057 28.4634 29.4019 24.7806 31.1342 22.29L31.1991 22.1975L30.7587 21.7263L30.7278 21.7579C30.667 21.8212 30.599 21.8923 30.5634 21.9295L30.5389 21.9548C27.4024 25.0905 24.571 26.7224 21.6275 27.0901C21.4211 27.1162 21.2116 27.1288 21.0044 27.1288C19.8627 27.1288 18.8096 26.7485 18.0379 26.0575C16.9784 25.0945 16.4005 23.6389 16.3214 21.731C16.2431 19.8453 16.6772 18.0521 16.9436 17.15C17.8877 13.9526 20.0042 10.794 23.2333 7.76183C25.8653 5.29025 28.5559 3.5358 30.0012 2.59256C30.2052 2.45973 30.6227 2.1909 30.8717 2.03594L31.2188 1.8193L30.629 10.1931L31.1888 10.4034L39.0407 0.0205688H52.2928L59.785 17.9691H59.7842Z" fill="#DC0B29"/>
<path d="M38.1639 39.5602L29.8581 47.8541L23.4902 41.4799L38.1639 39.5602Z" fill="#DC0B29"/>
</g>
<defs>
<clipPath id="clip0_11479_10482">
<rect width="160" height="47.8541" fill="white"/>
</clipPath>
</defs>
</svg>
