<svg width="40" height="41" viewBox="0 0 40 41" fill="none" xmlns="http://www.w3.org/2000/svg">
<path d="M7.75 4.5C7.75 2.70508 9.20508 1.25 11 1.25H27C27.1212 1.25 27.2375 1.29816 27.3232 1.38388L38.1161 12.1768C38.2018 12.2625 38.25 12.3788 38.25 12.5V36.5C38.25 38.2949 36.7949 39.75 35 39.75H11C9.20507 39.75 7.75 38.2949 7.75 36.5V4.5Z" stroke="#E4E4E7" stroke-width="1.5"/>
<path d="M27 1V8.5C27 10.7091 28.7909 12.5 31 12.5H38.5" stroke="#E4E4E7" stroke-width="1.5"/>
<rect x="1" y="18.5" width="26" height="16" rx="2" fill="#D92D20"/>
<path d="M4.8323 30.5V23.2273H7.70162C8.25323 23.2273 8.72316 23.3326 9.11142 23.5433C9.49967 23.7517 9.7956 24.0417 9.9992 24.4134C10.2052 24.7827 10.3082 25.2088 10.3082 25.6918C10.3082 26.1747 10.204 26.6009 9.99565 26.9702C9.78732 27.3395 9.48547 27.6271 9.09011 27.8331C8.69712 28.0391 8.22127 28.142 7.66255 28.142H5.83372V26.9098H7.41397C7.7099 26.9098 7.95375 26.8589 8.14551 26.7571C8.33964 26.6529 8.48405 26.5097 8.57875 26.3274C8.67581 26.1428 8.72434 25.9309 8.72434 25.6918C8.72434 25.4503 8.67581 25.2396 8.57875 25.0597C8.48405 24.8774 8.33964 24.7365 8.14551 24.6371C7.95138 24.5353 7.70517 24.4844 7.40687 24.4844H6.36994V30.5H4.8323ZM13.885 30.5H11.3069V23.2273H13.9063C14.6379 23.2273 15.2676 23.3729 15.7955 23.6641C16.3235 23.9529 16.7295 24.3684 17.0136 24.9105C17.3 25.4527 17.4433 26.1013 17.4433 26.8565C17.4433 27.6141 17.3 28.2652 17.0136 28.8097C16.7295 29.3542 16.3211 29.772 15.7884 30.0632C15.2581 30.3544 14.6237 30.5 13.885 30.5ZM12.8445 29.1825H13.8211C14.2757 29.1825 14.658 29.102 14.9681 28.9411C15.2806 28.7777 15.515 28.5256 15.6713 28.1847C15.8299 27.8414 15.9092 27.3987 15.9092 26.8565C15.9092 26.3191 15.8299 25.88 15.6713 25.5391C15.515 25.1982 15.2818 24.9472 14.9717 24.7862C14.6615 24.6252 14.2792 24.5447 13.8247 24.5447H12.8445V29.1825ZM18.5823 30.5V23.2273H23.3976V24.495H20.1199V26.228H23.078V27.4957H20.1199V30.5H18.5823Z" fill="white"/>
</svg>
