<svg width="81" height="80" viewBox="0 0 81 80" fill="none" xmlns="http://www.w3.org/2000/svg">
<path fill-rule="evenodd" clip-rule="evenodd" d="M27.0202 9.34097C27.06 9.36754 27.1 9.3942 27.1401 9.42094L62.3025 32.8626C63.32 33.5407 64.2633 34.1695 64.9878 34.7538C65.7439 35.3636 66.6352 36.2091 67.1482 37.4461C67.8263 39.0812 67.8263 40.9187 67.1482 42.5537C66.6352 43.7908 65.7439 44.6363 64.9878 45.2461C64.2633 45.8304 63.3201 46.4591 62.3027 47.1372L27.0203 70.6588C25.7767 71.488 24.6584 72.2337 23.7095 72.7479C22.76 73.2625 21.4566 73.8505 19.9354 73.7597C17.9895 73.6435 16.192 72.6815 15.016 71.1269C14.0965 69.9116 13.8628 68.5009 13.7643 67.4254C13.6658 66.3507 13.6659 65.0067 13.666 63.512L13.666 16.632C13.666 16.5838 13.666 16.5358 13.666 16.4879C13.6659 14.9932 13.6658 13.6492 13.7643 12.5745C13.8628 11.499 14.0965 10.0883 15.016 8.87296C16.192 7.31837 17.9895 6.35637 19.9354 6.24019C21.4566 6.14936 22.76 6.73739 23.7095 7.25199C24.6584 7.76622 25.7766 8.51181 27.0202 9.34097Z" fill="#C22532"/>
</svg>
