<svg width="48" height="48" viewBox="0 0 48 48" fill="none" xmlns="http://www.w3.org/2000/svg">
<g clip-path="url(#clip0_6974_13231)">
<path d="M24 48C37.2548 48 48 37.2548 48 24C48 10.7452 37.2548 0 24 0C10.7452 0 0 10.7452 0 24C0 37.2548 10.7452 48 24 48Z" fill="#FFDA44"/>
<path d="M18.7813 20.8701H47.7955C46.2614 9.09443 36.1924 0.000488281 23.9986 0.000488281C22.2067 0.000488281 20.4612 0.198582 18.7812 0.570957V20.8701H18.7813Z" fill="#0052B4"/>
<path d="M12.5217 20.8698V2.91846C5.93163 6.51414 1.21403 13.1096 0.203125 20.8699H12.5217V20.8698Z" fill="#0052B4"/>
<path d="M12.5216 27.1313H0.203125C1.21403 34.8917 5.93163 41.4871 12.5217 45.0827L12.5216 27.1313Z" fill="#0052B4"/>
<path d="M18.7812 27.1314V47.4305C20.4612 47.8029 22.2067 48.001 23.9986 48.001C36.1924 48.001 46.2614 38.907 47.7955 27.1313H18.7812V27.1314Z" fill="#0052B4"/>
</g>
<defs>
<clipPath id="clip0_6974_13231">
<rect width="48" height="48" fill="white"/>
</clipPath>
</defs>
</svg>
