<svg width="20" height="21" viewBox="0 0 20 21" fill="none" xmlns="http://www.w3.org/2000/svg">
<path d="M15.0004 13.6974C16.2136 14.3069 17.2538 15.285 18.0131 16.508C18.1634 16.7502 18.2386 16.8713 18.2646 17.039C18.3174 17.3798 18.0844 17.7988 17.767 17.9336C17.6108 18 17.4351 18 17.0837 18M13.3337 10.1102C14.5685 9.49657 15.417 8.22238 15.417 6.75C15.417 5.27762 14.5685 4.00343 13.3337 3.3898M11.667 6.75C11.667 8.82107 9.98809 10.5 7.91702 10.5C5.84595 10.5 4.16702 8.82107 4.16702 6.75C4.16702 4.67893 5.84595 3 7.91702 3C9.98809 3 11.667 4.67893 11.667 6.75ZM2.13304 16.282C3.46163 14.2871 5.55816 13 7.91702 13C10.2759 13 12.3724 14.2871 13.701 16.282C13.9921 16.719 14.1376 16.9375 14.1208 17.2166C14.1078 17.4339 13.9653 17.7 13.7917 17.8313C13.5686 18 13.2619 18 12.6484 18H3.18565C2.57216 18 2.26542 18 2.04238 17.8313C1.86873 17.7 1.72626 17.4339 1.71321 17.2166C1.69646 16.9375 1.84199 16.719 2.13304 16.282Z" stroke="black" stroke-width="1.66"/>
</svg>
