<svg width="40" height="41" viewBox="0 0 40 41" fill="none" xmlns="http://www.w3.org/2000/svg">
<path d="M7.75 4.5C7.75 2.70508 9.20508 1.25 11 1.25H27C27.1212 1.25 27.2375 1.29816 27.3232 1.38388L38.1161 12.1768C38.2018 12.2625 38.25 12.3788 38.25 12.5V36.5C38.25 38.2949 36.7949 39.75 35 39.75H11C9.20507 39.75 7.75 38.2949 7.75 36.5V4.5Z" stroke="#E4E4E7" stroke-width="1.5"/>
<path d="M27 1V8.5C27 10.7091 28.7909 12.5 31 12.5H38.5" stroke="#E4E4E7" stroke-width="1.5"/>
<rect x="1" y="18.5" width="26" height="16" rx="2" fill="#079455"/>
<path d="M6.38636 23.2273L7.85298 25.706H7.9098L9.38352 23.2273H11.12L8.90057 26.8636L11.1697 30.5H9.40128L7.9098 28.0178H7.85298L6.36151 30.5H4.60014L6.87642 26.8636L4.64276 23.2273H6.38636ZM12.093 30.5V23.2273H13.6307V29.2322H16.7486V30.5H12.093ZM21.7122 25.3189C21.6838 25.0324 21.5618 24.8099 21.3464 24.6513C21.131 24.4927 20.8386 24.4134 20.4693 24.4134C20.2183 24.4134 20.0065 24.4489 19.8336 24.5199C19.6608 24.5885 19.5282 24.6844 19.4359 24.8075C19.3459 24.9306 19.301 25.0703 19.301 25.2266C19.2962 25.3568 19.3234 25.4704 19.3826 25.5675C19.4442 25.6645 19.5282 25.7486 19.6348 25.8196C19.7413 25.8883 19.8644 25.9486 20.0041 26.0007C20.1438 26.0504 20.2929 26.093 20.4515 26.1286L21.1049 26.2848C21.4222 26.3558 21.7134 26.4505 21.9785 26.5689C22.2437 26.6873 22.4733 26.8329 22.6674 27.0057C22.8616 27.1785 23.0119 27.3821 23.1184 27.6165C23.2273 27.8509 23.283 28.1196 23.2853 28.4226C23.283 28.8677 23.1693 29.2536 22.9444 29.5803C22.7219 29.9046 22.3999 30.1567 21.9785 30.3366C21.5595 30.5142 21.054 30.603 20.4622 30.603C19.8751 30.603 19.3637 30.513 18.9281 30.3331C18.4949 30.1532 18.1563 29.8868 17.9125 29.5341C17.671 29.179 17.5443 28.7398 17.5325 28.2166H19.0204C19.037 28.4605 19.1068 28.6641 19.2299 28.8274C19.3554 28.9884 19.5223 29.1103 19.7306 29.1932C19.9413 29.2737 20.1793 29.3139 20.4444 29.3139C20.7048 29.3139 20.9309 29.276 21.1227 29.2003C21.3168 29.1245 21.4672 29.0192 21.5737 28.8842C21.6802 28.7493 21.7335 28.5942 21.7335 28.419C21.7335 28.2557 21.685 28.1184 21.5879 28.0071C21.4932 27.8958 21.3535 27.8011 21.1689 27.723C20.9866 27.6449 20.7628 27.5739 20.4977 27.5099L19.7058 27.3111C19.0926 27.1619 18.6085 26.9287 18.2534 26.6115C17.8983 26.2943 17.7219 25.867 17.7243 25.3295C17.7219 24.8892 17.8391 24.5045 18.0758 24.1754C18.3149 23.8464 18.6428 23.5895 19.0595 23.4048C19.4761 23.2202 19.9496 23.1278 20.4799 23.1278C21.0197 23.1278 21.4908 23.2202 21.8933 23.4048C22.2981 23.5895 22.613 23.8464 22.8379 24.1754C23.0628 24.5045 23.1788 24.8857 23.1859 25.3189H21.7122Z" fill="white"/>
</svg>
