<svg width="40" height="41" viewBox="0 0 40 41" fill="none" xmlns="http://www.w3.org/2000/svg">
<path d="M7.75 4.5C7.75 2.70508 9.20508 1.25 11 1.25H27C27.1212 1.25 27.2375 1.29816 27.3232 1.38388L38.1161 12.1768C38.2018 12.2625 38.25 12.3788 38.25 12.5V36.5C38.25 38.2949 36.7949 39.75 35 39.75H11C9.20507 39.75 7.75 38.2949 7.75 36.5V4.5Z" stroke="#E4E4E7" stroke-width="1.5"/>
<path d="M27 1V8.5C27 10.7091 28.7909 12.5 31 12.5H38.5" stroke="#E4E4E7" stroke-width="1.5"/>
<rect x="1" y="18.5" width="33" height="16" rx="2" fill="#079455"/>
<path d="M6.31214 23.2273L7.77876 25.706H7.83558L9.3093 23.2273H11.0458L8.82635 26.8636L11.0955 30.5H9.32706L7.83558 28.0178H7.77876L6.28729 30.5H4.52592L6.8022 26.8636L4.56854 23.2273H6.31214ZM12.0188 30.5V23.2273H13.5565V29.2322H16.6744V30.5H12.0188ZM21.638 25.3189C21.6096 25.0324 21.4876 24.8099 21.2722 24.6513C21.0568 24.4927 20.7644 24.4134 20.3951 24.4134C20.1441 24.4134 19.9322 24.4489 19.7594 24.5199C19.5866 24.5885 19.454 24.6844 19.3617 24.8075C19.2717 24.9306 19.2267 25.0703 19.2267 25.2266C19.222 25.3568 19.2492 25.4704 19.3084 25.5675C19.37 25.6645 19.454 25.7486 19.5605 25.8196C19.6671 25.8883 19.7902 25.9486 19.9299 26.0007C20.0695 26.0504 20.2187 26.093 20.3773 26.1286L21.0307 26.2848C21.348 26.3558 21.6391 26.4505 21.9043 26.5689C22.1694 26.6873 22.3991 26.8329 22.5932 27.0057C22.7873 27.1785 22.9377 27.3821 23.0442 27.6165C23.1531 27.8509 23.2087 28.1196 23.2111 28.4226C23.2087 28.8677 23.0951 29.2536 22.8702 29.5803C22.6477 29.9046 22.3257 30.1567 21.9043 30.3366C21.4853 30.5142 20.9798 30.603 20.388 30.603C19.8008 30.603 19.2895 30.513 18.8539 30.3331C18.4206 30.1532 18.0821 29.8868 17.8382 29.5341C17.5968 29.179 17.4701 28.7398 17.4583 28.2166H18.9462C18.9628 28.4605 19.0326 28.6641 19.1557 28.8274C19.2812 28.9884 19.4481 29.1103 19.6564 29.1932C19.8671 29.2737 20.1051 29.3139 20.3702 29.3139C20.6306 29.3139 20.8567 29.276 21.0485 29.2003C21.2426 29.1245 21.3929 29.0192 21.4995 28.8842C21.606 28.7493 21.6593 28.5942 21.6593 28.419C21.6593 28.2557 21.6107 28.1184 21.5137 28.0071C21.419 27.8958 21.2793 27.8011 21.0946 27.723C20.9123 27.6449 20.6886 27.5739 20.4235 27.5099L19.6316 27.3111C19.0184 27.1619 18.5343 26.9287 18.1792 26.6115C17.824 26.2943 17.6477 25.867 17.65 25.3295C17.6477 24.8892 17.7649 24.5045 18.0016 24.1754C18.2407 23.8464 18.5686 23.5895 18.9853 23.4048C19.4019 23.2202 19.8754 23.1278 20.4057 23.1278C20.9455 23.1278 21.4166 23.2202 21.8191 23.4048C22.2239 23.5895 22.5388 23.8464 22.7637 24.1754C22.9886 24.5045 23.1046 24.8857 23.1117 25.3189H21.638ZM25.6871 23.2273L27.1538 25.706H27.2106L28.6843 23.2273H30.4208L28.2013 26.8636L30.4705 30.5H28.7021L27.2106 28.0178H27.1538L25.6623 30.5H23.9009L26.1772 26.8636L23.9435 23.2273H25.6871Z" fill="white"/>
</svg>
