<svg width="32" height="32" viewBox="0 0 32 32" fill="none" xmlns="http://www.w3.org/2000/svg">
<g clip-path="url(#clip0_6754_10661)">
<path d="M0 16C0 7.16344 7.16344 0 16 0C24.8366 0 32 7.16344 32 16C32 24.8366 24.8366 32 16 32C7.16344 32 0 24.8366 0 16Z" fill="#004873"/>
<path d="M24.1768 12.0488C23.9805 11.2948 23.4022 10.7011 22.6679 10.4996C21.3371 10.1333 16.0001 10.1333 16.0001 10.1333C16.0001 10.1333 10.6632 10.1333 9.3323 10.4996C8.59795 10.7011 8.01962 11.2948 7.82335 12.0488C7.4668 13.4154 7.4668 16.2667 7.4668 16.2667C7.4668 16.2667 7.4668 19.1179 7.82335 20.4845C8.01962 21.2385 8.59795 21.8323 9.3323 22.0339C10.6632 22.4 16.0001 22.4 16.0001 22.4C16.0001 22.4 21.3371 22.4 22.6679 22.0339C23.4022 21.8323 23.9805 21.2385 24.1768 20.4845C24.5335 19.1179 24.5335 16.2667 24.5335 16.2667C24.5335 16.2667 24.5335 13.4154 24.1768 12.0488Z" fill="white"/>
<path d="M14.4004 19.2V13.8667L18.6671 16.5334L14.4004 19.2Z" fill="#004873"/>
</g>
<defs>
<clipPath id="clip0_6754_10661">
<rect width="32" height="32" fill="white"/>
</clipPath>
</defs>
</svg>
