<svg width="459" height="261" viewBox="0 0 459 261" fill="none" xmlns="http://www.w3.org/2000/svg"><path d="M171.532 20.087l-.229.917-.459.642-.322.184-2.019.183-.275.23-.229.367-.138.55-.138 1.65-.183.78-.367.688-.413.55-.505.368-.597.137-.55-.137-3.534-3.67-.505-.229-.367.092-.229.55-.78 4.403-.872.826-.505.87-.138.551v1.1l-.092.46-.183.366-1.514 1.468-.276.367-1.239 3.21-.963.596-.322.367-.229.413-.092.459.092.596 3.809 12.015 4.818 3.99.505 2.43-.459.322-.459.78-.138.87v.643l-.091.871-.23.826-.229.458-.413.321-.551.322-1.973 1.65-1.01.505-.688-.138-.918-.412-.551-.092-.229.23-.092.412.138.413.413 1.376v.412l-.046 1.01.413 1.467-.046.642-.367.504-.459 1.239-.551.78-.55.32-.505.092-1.193-.092-1.927.184-.505.137-.551.367-1.468 1.238-.872.321-2.203-.825-5.323.917-1.377-.183-1.56-.55-1.698-.368-2.799.092-.826.23-.551.229-.275.458-.138.459-.092 1.055.092.642-.183.78-.367.596-.551.229-.551.046-.918-.046-.642.23-4.038 2.522-.826 1.054-.367.413-.78.596-.459.092-.505-.183-.459-.367-.551-.23-.55.046-6.471 3.394-1.193.321h-.321l-.688-.321-.459-.092h-.735l-.55.184-.734.504-.643.642-2.891 1.88-3.992 1.652-.78.458-.367.459-.918 1.422-.643 1.559-.642.825-.78.55-1.744 1.743-.688.321-1.056.276-.826.458-.734 1.009-1.423 1.055-.917-.046-3.075-.734-.596-.321-.46-.458-.734-1.055-.596-.688-.826-.734-1.423-1.009-.505-.504-.183-.321.23-.688 1.009-1.284.505-.918-.184-.87-.459-1.148-1.422-2.2-.505-1.056-.23-.871.322-1.009.046-.55-.092-1.1-.23-1.377-.137-1.238v-.688l.137-2.293-.046-.917-.091-.917-.367-1.422-.322-.688-.459-.504-1.01-.55-1.926-.505-2.065-.092-1.698-.367-.826-.642-.505-.642-.459-.917-.321-.459-.413-.32-4.452-.505-1.147-.642-2.248-1.927 1.468-1.421.964-1.147.413-1.972.459-4.31.55-.413.551-.138.597.138.504.412.597.138.642.092.643-.046.642-.184 1.882-.688 3.58.23 1.651-1.239.964-1.788 2.294-6.054 1.285.138 1.102.78 1.147.504 1.422-.734.689-2.155.413-.688 2.523-1.835.413-.412.046-.413.184-.092.826.275.367.413.964 1.605.413.55 1.514.78 1.285-.32 1.147-1.056 1.147-1.467.689-.367.413-.505.046-.642-.367-.871 1.1-.871.919-1.147.275-1.467-.78-1.606 2.753-1.696 3.075-.597 6.103.046 1.285-.275 2.57-.963 1.468-.138 3.121.367 1.193-.275 1.973-1.192.413-.046.413-.138.459-.642.046-.55-.184-.78-.092-.917.276-1.009.642-.78.597-.045.642.229.872-.138.688-.504 1.01-1.33.734-.55 1.331-.276 2.478.321 1.285-.091 10.554-4.862.826-.78 1.239-1.88.735-.687 2.432-.55 5.323.458 2.019-1.697.367-2.706-1.79-1.009-2.478-.78-1.743-1.696.046-1.147.596-.367.092-.229-1.331-.55-2.294-.321-.78-.505.734-1.1.963-3.073L149.781.32 151.937 0l2.524.825.505.46.367.595.459.596.734.413h.734l1.882-.825 2.478.137.78-.412.551-1.468.413.917.137.642.23.642.642.872.826.596 1.836.459.826.642.826 1.009.505.825.229 1.055-.138 1.65-.504 1.285-.826 1.513-.367 1.33.78.597 3.763-1.56.78.046.367 1.193-.367 1.421-1.148 2.706-.229 1.926z" fill="#004873" stroke="#fff" stroke-width="2" stroke-linecap="round" stroke-linejoin="round"/><path d="M90.005 101.583l.827 2.11v1.009l-.46 1.101-.275.733v.459l.23.321.367.138.688.045.734-.183 1.377-.78.734-.091.918.366 1.101.276 1.194.55 3.258 3.164.596.413 1.239.138.918-.092.918-.229.55-.046.689.046 1.285.367.734.366.597.367 1.743 1.972.459.367.413.23 2.249.687.413.276.275.412.23.872 3.533 1.834.597.596.321.505-.138.367v.917l.092.55.688 2.247.046.505-.092.459-.826.366-.826.092-.321.505v1.834l-.138.688-.826 2.155.046.688.23 1.055-.046.505-.688 2.339-.092.55-.046.596.275.413.643.275.504.275.138.367.046.321-.229.459-1.698 1.88-.505.504-.505.276-2.019.458-.826.367-.78.505-.78.779-.367.459-.184.504.275.459 1.01.917.092.367-.092.321-.551.321-.413.321v.138l.872.55.23.55-.138.276-.597.596-.045.367.183.825.23.367.367.229.642.275.459.322.597.687.229.551.138.55-.046 2.614.092 1.055.183.642.23.459.642.825.459.688.138.734v.596l-.184 1.009-.505 1.559v.963l.964 2.156.872 3.348.092.917-.092.504-.459 1.972-.138 1.605.184 1.285.367 1.834.092.871-.092.688-.321.642-1.285 2.202-.597 1.33-.367 1.33-.505 1.146-.367.275-1.147.734-.597.642-.091.734.413 1.009v.596l-.092.367-.23.413-.642.963-.046.413.092.366.275.367.918.963.321.734-.046.413-.367.321-.55.183-.735.459-.596.596-1.79 3.394-.642.917-.551.229-.826-.137-.643.275-.688.826-.872 2.247-.275 1.513.046 1.101.183 1.1-.046.918-.183.596-.321.55-1.469 1.468-1.56 2.43-1.468 3.165.091.963-.459-.092-.917.459-.643 1.1-.734 1.835-1.56-.78-2.157-1.559-1.927-1.789-.964-1.605-.046-2.889-.78-1.789-2.845-2.935-2.065-2.797-.826-.688-1.377-.55-4.084-.184-1.927-1.101-1.056-1.742-.918-2.064-6.332-8.622-.826-.459-2.203-2.614-.275-.963-.092-1.009-.413-.825-1.147-.505-1.928-2.017-.963-.826-1.148-.596-2.615-.734-.918.321.321 1.33-1.285.183-3.992-.596-1.33-.504-1.056-1.101-2.249-4.999-1.377-1.376-3.12-1.513-1.285-1.101-.78-1.467-.367-1.697-.275-5.182-.505-.413-.689.092-.78-.23-.734-.779-.55-.78-.414-.917-.413-1.238-.275-1.239-.321-2.339-.505-1.1-.688-.78-1.606-.917-.689-.826.367-1.1-.734-.413.597-1.238-.092-1.422-.55-1.101-.918-.504-2.25-1.055-1.054-.734-.964-.871-1.423-2.018-.688-1.33-.321-1.1.78-1.606 2.799-1.192 1.101-1.101.184-1.697.046-2.201.413-1.467 1.377.412.504-1.651 1.56-2.889.551-1.605.184-2.018 3.212.596.642-.137.505-.275 1.836-1.835.367-.183h.367l2.02.733 1.146.138.964-.183.321-.184 2.065-2.431.46-.229 5.23.092 1.515 1.559.505.229.23-.091 1.697-1.239.734-.137 1.836.917 1.101.275.413-.137.321-.367.872-4.449.276-.55.367-.321 6.287-3.394 1.468-1.605.688-.459.322-.045 4.68.917 2.386 2.706.918.367.872-.046.367-.138.276-.275.091-.413-.78-3.118-.046-.597v-.55l.138-.413.275-.275 3.947-.871.275-.275-.046-.413-.459-1.101-.183-.642-.046-.642.046-.642.275-.55.413-.459.734-.32.597.687.734 1.055.459.458.597.321 3.074.734.918.046 1.422-1.055zM319.266 151.937l-.276 1.239-.321.779-.367.413-.413.138-2.157-.551-.504.184-.184.413.092.596.229.733.918 1.56 2.891 2.889.184.596-.184.23-.78.366-.138.459.046.55.184.734 1.652 4.311.091.596v.551l-.091.504-.23.55-.321.459-.413.459-.321.458.046.505.367.55 3.671 2.843h.551l.642-.275.597-.458 1.055-1.239.826-1.238.184-.55.046-.642-.046-.688-.184-.642-.459-1.238-1.239-2.064-.137-.826.091-1.238.276-.642.413-.367.596-.137.643.045 2.661 1.101.459.413.826 1.33.643 1.559.413 2.431.229.55.367.55 3.121 3.073.413.826.091.55-.091 2.018.183.55.413.505 1.101.642 2.524.779 1.377 1.33 1.285 1.926.826 1.881.092.733v.597l-.138.688-.092.229-1.101 1.972-.138.688.046.871.597 2.018.917 1.926.872 1.238 1.79 1.055.275.275.23.413.183.596.046.597-.137.504-.276.413-.872.596-1.835.688-.321.321-1.744 2.522-1.056.917-.091.459.137.505.367.458.505.413 1.239.55h1.193l3.304-1.146.505.046.367.275.184.504.046.688-.184 3.21.138.551.275.412.367.321 2.799 1.285 4.176.871.321.229.276.413.321 1.101.229 1.467 2.387 1.009 1.239 1.009.734 1.101.413.275.505.046.55-.092 2.157-1.192 1.973.275 1.561.642.275.229.413.734.367.963.184 1.101.229.458.413.321 3.671 1.055.643.459.55.642.413.825.643 1.835.505 2.339-7.48 2.935-2.478-.367-2.065-2.201-1.01-.459-1.606.459-2.57 1.696-1.193.23-7.709-3.944-3.258-.872-3.029.688-3.625 2.66-.643.917-.367 1.972-1.009 1.239-2.295 2.018-1.698 2.843-3.396 9.906-.78 1.422-1.101 1.284-.138 1.972-2.34-2.752-.964-6.787-1.606-2.248-1.101-.091-2.616.917-1.285.183-1.239-.458-2.478-1.651-1.009-.367-2.57.138-1.101-.184-.872-.642-.505-1.238-.23-1.468-.55-1.238-1.285-.505-1.239-.137-4.084-1.192-1.147-.734-.597-.23-.642.092-1.239.505-.689.045-1.927-.275-1.193.78-3.442 5.916-.734.688-1.056.321-.413-.138-.871-.733-1.423.229-.046.046-9.499-1.422-6.241.413-3.579-1.559-6.838-4.999-.091-.505v-.688l-.368-.458-1.147.275-.046-1.055-.504-.459-.781-.045-.871.183.734-.917-.597.046-.505-.23-.734-.55-1.285-.092-.459-.183-.367-.55-.275-1.239-.367-.321h-2.065l-.597.184-2.432 1.238-1.101.367h-1.56l-1.561-.367-5.231-2.935-4.038-1.605.183-.963.276-.642.229-.826 1.056-2.614.321-1.055v-.458l.183-.459.322-.275.413-.092.459.046.458.275.505.413 1.285 2.064.413.183.367-.046.367-.321.551-.779.184-.459.504-.596.689-.551.413-.183h.504l.459.183 2.019 1.743.413.138.413-.046 4.911-4.449 1.881-.871 2.34.229.459-.229.321-.459.368-1.467.229-.459.367-.321.321-.137.643.045.275.092 1.744-2.201.505-.275.459.046.367.458.275.642.321.413.367.321.826.229 2.019-.091.413-.184 1.194-.917.321-.092 4.681.78.688-.229.551-.459 1.422-2.11.275-.229 4.773-1.559 1.468-1.789.459-1.055.138-.458v-.505l-.138-.458-.55-1.33-.092-.918.137-.504.276-.55.963-1.147.322-.55.137-.551v-.504l-.137-.459-.276-.366-.321-.276-.872-.458-.275-.367-.138-.505-.092-.596.092-1.284.321-1.284.23-.459.321-.321 1.469-.596.183-.229.092-.321-.184-.734-.459-.871-.183-.872.046-.642.137-.734.276-.642.688-1.146.872-.871 5.92-3.623.275-.505.046-.642-.092-.734-1.239-3.99-.138-.733-.183-4.77-.367-1.376v-.504l.183-.321.322-.23 2.019-.367.275-.321.184-.504.137-.596.046-.642-.092-.642-.137-.597-.23-.504-1.881-1.834-.138-.459v-.55l.826-2.11.321-1.192.138-1.147 1.652.138 8.031-.78.596-.504.23-.413.091-.688.092-.871.367-.459.597-.275h3.579l.551.137.826.413.642.092 2.249-.184 1.698.138 1.606.596 3.396 1.697.734-.138z" fill="#004873" stroke="#fff" stroke-width="2" stroke-linecap="round" stroke-linejoin="round"/><path d="M427.507 175.925l-.138 3.669-4.084 3.256-9.132 3.531-1.973 1.926-1.652 2.66-1.239 3.119-.872 3.44-.229 2.751.091 5.274-.459 2.247-1.422 2.385-1.973 1.88-2.249 1.009-3.625-.275-1.652.275-1.423.918-.872 1.788-.459 1.514-.504 3.21-.551 1.422-1.239 1.192-1.285.092-1.468-.23-1.652.276-1.102.917-2.34 4.036-1.193.963-5.507 2.201-.505-2.339-.642-1.834-.413-.826-.551-.642-.642-.459-3.671-1.054-.413-.321-.23-.459-.183-1.101-.367-.963-.413-.734-.276-.229-1.56-.642-1.973-.275-2.157 1.192-.551.092-.504-.046-.413-.275-.735-1.101-1.239-1.009-2.386-1.009-.229-1.467-.322-1.101-.275-.412-.321-.23-4.176-.871-2.799-1.284-.367-.321-.276-.413-.137-.55.183-3.211-.046-.688-.183-.504-.367-.275-.505-.046-3.304 1.146h-1.193l-1.239-.55-.505-.413-.367-.458-.138-.505.092-.458 1.055-.918 1.744-2.522.321-.321 1.836-.688.872-.596.275-.413.138-.504-.046-.596-.184-.597-.229-.412-.275-.276-1.79-1.054-.872-1.239-.918-1.926-.596-2.018-.046-.871.137-.688 1.102-1.972.092-.229.367.688.459.412.321.092.321-.137.275-.321.184-.505.321-1.926.184-.55.275-.367.505-.138 4.405-.092.505.046.275-.183.918-1.193 2.34-2.247.23-.275.596-1.284-.596-.734-.551-1.743.092-1.788.321-1.697 1.652.229 1.056.413 1.697 1.422 1.423.779.597.092 2.891 1.33.688.138.413-.138.413-.367.367-.596.597-1.238.642-.642.872-.505 1.193-.504.505-.138 4.818.092.505-.046.413-.183.505-.597.137-.458v-.459l-.137-.642-.459-1.055-.092-.412.092-.321.275-.23.826-.321.78-.091 1.01.045 5.966 1.193 1.789-.78-.183-1.146v-1.009l.183-1.009.459-.551.872-.504.505-.642.459-1.284.275-.459.321-.321.321-.137h.368l.367.137.321.275.642.734.413.184.826.091.964-.229 1.055-2.752 2.983.046.505.459.184.412.275 1.33.275.505.367.367.459.275.597.092 10.554-1.055.643.275 2.019 1.468.459.137 5.139-.046 1.193.413.322.413 1.422 3.027.459.504 1.147.734.413.504.322.551.183.688.551 2.981.229.596.322.458.367.276.413.183h.734z" fill="#004873" stroke="#fff" stroke-width="2" stroke-linecap="round" stroke-linejoin="round"/><path d="M359.767 81.953l1.056 6.282-.092.505-.184.55-.275.505-.367.504-.459.413-.459.183h-.459l-.963-.596-.413-.046-.368.138-.367.321-1.56 2.293-5.461 3.073-.918 1.054-.321.643-.229.733-.138 1.606-.138.55-.688 1.1-.183.413-.046.459.78 3.118v.505l-.046.458-.23.459-4.038 5.687-.275.504-.184.597-.046.596.046.596.138.55.275.551 1.882 1.834.183.642-.137.321-1.928 2.568-.183.505-.138.596-.321 3.852.046.459.183.367.276.367.917.367 2.891.412.322.184.137.275.184 1.101.183.321.276.275 5.782 2.935.459.046 1.927-1.055.459-.092.505.184 5.185 5.641 1.01.504 3.441.183 1.561-1.192.367-.183h.367l2.478 1.697 1.744.137 2.478-.825 1.927.963 1.56 1.33.322.458.091.459-.367 3.485.046.688.23.551.367.412.459.138.458-.092 1.239-.825.368-.138.413.092.367.413 2.065 4.356.459.459 2.11 1.009 1.836 1.559.734.963.23.551.321 1.146.138 1.33 1.927.505.826.642 1.055 1.192-1.055 2.752-.964.229-.826-.092-.413-.183-.642-.734-.321-.275-.368-.138h-.367l-.321.138-.321.321-.275.458-.459 1.285-.505.642-.872.504-.459.55-.183 1.009v1.009l.183 1.147-1.79.78-5.965-1.193-1.01-.046-.78.092-.826.321-.275.229-.092.321.092.413.459 1.055.137.642v.459l-.137.458-.505.596-.413.184-.505.046-4.818-.092-.505.138-1.193.504-.872.504-.642.643-.597 1.238-.367.596-.413.367-.413.137-.688-.137-2.891-1.33-.597-.092-1.423-.779-1.697-1.422-1.056-.413-1.652-.229-.321 1.697-.092 1.788.551 1.743.596.734-.596 1.284-.23.275-2.34 2.247-.918 1.193-.275.183-.505-.046-4.405.092-.505.137-.275.367-.184.551-.321 1.926-.184.504-.275.321-.321.138-.322-.092-.458-.413-.368-.687.138-.688v-.597l-.092-.733-.826-1.881-1.285-1.926-1.376-1.33-2.524-.779-1.101-.642-.413-.505-.184-.55.092-2.018-.092-.55-.413-.826-3.12-3.073-.368-.55-.229-.55-.413-2.431-.642-1.559-.826-1.33-.459-.413-2.662-1.101-.642-.046-.597.138-.413.367-.275.642-.092 1.238.138.826 1.239 2.064.458 1.238.184.642.046.688-.046.642-.184.55-.826 1.238-1.055 1.239-.597.458-.642.275h-.551l-3.671-2.843-.367-.55-.046-.505.321-.458.413-.459.322-.459.229-.55.092-.504v-.551l-.092-.596-1.652-4.311-.183-.734-.046-.55.137-.459.78-.366.184-.23-.184-.596-2.891-2.889-.917-1.56-.23-.733-.092-.596.184-.413.505-.184 2.157.551.413-.138.367-.413.321-.779.275-1.239.643-.733.413-1.56.183-2.109.184-.734 2.065-2.201-.505-3.532-.642-1.009-1.102-.412-.367-.367-.229-.596-.184-1.789-2.799-5.687-1.101-1.651-.368-.779-.137-.872.092-.825 1.101-2.339-.092-2.522.046-2.844-.046-.642-.505-2.018-.275-2.339-.321-1.009-.459-.825-.046-.505.229-.55 1.79-1.055 1.423-1.467 2.065-1.514.321-.275.275-.825-.137-1.055-.413-1.147.091-1.1 1.698-5.733 2.57-6.558.734-.184.643-.596 1.147-1.56.78-.55.597-.045 1.285.458.596-.046.184-.366-.046-1.284.183-.322 1.01.046.413.276.321.642.688 1.054.826.321.459-.917-.137-1.376-.872-1.146-.138-2.614-.688-1.88-1.239-1.376-1.652-.964-1.285-1.284-.643-2.063-.504-2.248-.781-1.971-2.156-3.21v-1.468l1.835-1.147 1.561.23 2.891 1.742 1.56-.183 6.975 1.972.734.413 1.56 1.33.872.458.964.046 2.065-.459.78.276-.138.275.23 1.146.413 1.376.413.917.642.734 2.386 1.513 1.607.459 3.166-.092 1.423.597-1.239.504.413.78.596.55-.092 1.376.138 1.376.459 1.054.918.688.734-1.926 1.514-.138z" fill="#004873" stroke="#fff" stroke-width="2" stroke-linecap="round" stroke-linejoin="round"/><path d="M319.204 151.94l-.735.137-3.395-1.697-1.606-.596-1.698-.137-2.249.183-.642-.092-.826-.412-.551-.138h-3.579l-.597.275-.367.459-.092.871-.092.688-.229.413-.597.504-8.03.78-1.652-.138-1.285-.413-2.799-1.788-2.387-.871-.734-.551-.459-.688-.413-.779-.642-.734-.872-.734-2.524-1.697-2.019-1.009-1.377-.412-1.744-.092-1.468.137-.734-.183-.505-.321-.413-1.009-.459-.504-.78-.413-1.56-.321-1.01-.367-.918-.459-.917-.642-.459-.183-.413-.046-.459.55-.321.826-.23.413-.321.275-.78.275-.321.183-1.01 1.147-.688.458h-.643l-.734-.229-.918-.413-.596.092-.459.229-1.744-.458-1.055-2.156-.918-1.284-1.102-.871-1.743-.872-.276-.229-.183-.367-.138-1.055-.229-.504-.367-.367-.964-.596-1.79-.459-3.074-2.43-1.193-.321-5.186.412-.367-.183-.734-.826-1.744-2.843-1.285-1.513-2.937-1.972.092-.826.275-1.1.321-1.009.23-1.193.046-2.109.046-.413.413-1.238-.092-.505-.643-.78-.504-.412-.459-.23-.918-.229-.505-.413-2.478-2.384-.505-.321-2.294-.734-1.56-1.055-.505-.504-.78-1.239.321-.504 1.239-.596 1.377-.367.642.046.138-1.468v-.367l-.367-1.743v-.55l.275-.642 1.101-1.1 3.717 1.421.551-.046 4.084-3.898 1.331-.642 1.01-.092 2.661 1.33h1.01l2.065-.596.367.092 2.753 1.88.505.138.413-.138.367-.413.872-2.889.321-.642.413-.55 3.396-.963.321.137.276.367.642 2.706.459 1.1.551.643.275.091.367-.183 4.314-4.265.642-.275 2.845-.092 1.882.596.367.275.183.413.092.55V98.1l.138.642.321.596.551.367 3.9.78.367.321.505 1.054.688 1.009.826.734.735.413.596.137.276.23 1.055 1.376.321.229.78.183 2.616 2.248 1.01-.734 1.055-.413 6.057-.596.918-.459.413-.413.321-.458.276-.596.275-1.33.321-.459.367-.321 7.021-3.348.368-.504.183-.642.092-1.422.138-.642.183-.505.275-.366.368-.184 7.158 2.293 2.341 2.156 2.845 1.513 2.753-.229 2.065-2.844 1.514-1.1.826-1.147.735-1.467 1.239-1.835 1.514-1.284 1.331-.23 1.376.093.826-.184-2.569 6.558-1.698 5.733-.092 1.1.413 1.147.138 1.055-.276.825-.321.275-2.065 1.514-1.422 1.467-1.79 1.055-.23.551.046.504.459.826.321 1.008.276 2.339.505 2.018.045.642-.045 2.844.091 2.522-1.101 2.339-.092.825.138.872.367.779 1.101 1.651 2.8 5.687.183 1.789.23.596.367.367 1.101.413.642 1.009.505 3.531-2.065 2.201-.183.734-.184 2.11-.413 1.559-.642.734zM59.931 67.46l2.249 1.926 1.147.642 4.451.505.413.32.321.46.46.916.504.643.826.642L72 73.88l2.065.091 1.927.505 1.01.55.459.504.321.688.367 1.422.092.917.046.917-.138 2.294v.688l.138 1.238.23 1.376.091 1.1-.046.55-.321 1.01.23.87.504 1.056 1.423 2.201.459 1.146.183.872-.505.917-1.01 1.284-.229.688.184.321.505.505 1.422 1.009.826.733-.734.321-.413.459-.275.55-.046.642.046.642.183.642.46 1.101.045.413-.275.275-3.947.871-.275.276-.138.412v.551l.046.596.78 3.118-.091.413-.276.275-.367.138-.872.046-.918-.367-2.386-2.706-4.68-.917-.322.046-.688.458-1.469 1.605-6.286 3.394-.367.321-.276.551-.872 4.448-.321.367-.413.138-1.101-.276-1.836-.917-.734.138-1.698 1.238-.23.092-.504-.23-1.514-1.559-5.232-.092-.459.23-2.065 2.43-.321.184-.964.183-1.147-.137-2.02-.734h-.366l-.367.183-1.836 1.835-.505.275-.642.137-3.212-.596-.413-.779-.964-.367-2.753-1.651.046-1.147.459-1.421-.138-1.514-1.147-1.101-2.524-.275-1.01-1.009h-.092l-10.233-5.503-.23-.642v-.963l-.137-1.101-.597-1.055-1.01-.825-1.055-.642-.963-.871-.597-1.606-.046-1.559.505-2.43-.23-1.56-.504-1.284-.78-1.192-1.652-1.789-3.35-2.11-.689-1.238.826-1.284.735-.458.459-.505.091-1.376-.23-1.513-.55-.917L0 77.458l4.956.367 1.285.917.413 1.009v1.788l.23.826.78.688.963.32 1.973.047.46.275.229.367-.046.504-.276.596-.55.367-.092.23.275.458 1.194 1.192.275.413.275.688.184 1.147.826 2.935.688 1.055 1.147.137.964-.688v-.917l-.413-1.147-.184-1.284.184-1.88.367-1.009 1.33-1.697.184-1.697.551-.825.78-.55.78-.78 2.065-3.852.735-.734 2.019-1.1.78-.735.23-.137.642.046.275-.184.138-.367-.138-1.008.321-1.01.23-.504 2.386-2.064 2.707-.825 5.094-.367 3.625.642.872-.092.734-.734 1.515-2.338.872-.826 1.101-.413 1.101-.091 1.193.183.413-.138.964-.642.597-.137.55.183 6.287 3.807 2.34.137.551-.55zM192.78 158.538l.964 1.055.275.459.184.504v.505l-.275.458-.459.321-2.387.734-.413.229-.137.413 1.009 3.669.184 1.697-.092 1.926-1.422 5.641v.734l.183.642.275.504 1.148 1.101.321.596v.505l-.138 2.155.092.505.184.55.367.504 2.524 2.385 1.284.78.597.091.642-.183 1.148-1.101.596-.183.597.046 1.055.642 1.515 1.467 1.973 1.33 1.789 2.385 2.708 1.743h.275l.321-.184 1.194-1.834.321-.229.367-.138.413.046 3.579 1.88.276.184.78.183 3.304.413.55.229.413.551.276.871.137 1.651.138.963.229.688.322.458 3.212 3.027.597.23 1.422-.23 3.212.596.964-.091 2.616-1.055.504-.046.276.184 3.212 3.21.413.55.138.642-.184.23-.642.412-.459.138-1.469.092-.367.045-.367.597-.138 1.192-.137.504-.321.688-2.203 2.614-.321.413-.276 1.238.184.688.551.138.229.229.551 1.193.413.275.459.092 1.055.091.826.184.597.504.367.505.046.367v.458l-.322 1.055-1.055 2.614-.23.826-.275.642-.183.963-1.561-.597-3.35-2.889-1.422-.871-3.029-1.009-3.258-1.651-1.514-.413-3.167-.046-.321-.229-.321-.504-.321-.459h-.505l-.275.459-.184 1.375-.229.551-.918 1.1-.367.23-5.14 1.421-1.377-.045.459-1.468.046-1.422-.321-1.376-.459-1.467-5.277-.413-3.763-1.33-1.514.229-.184.138-.138.367.092 1.009-.918 2.201-.045 2.935.275 3.165v2.843l-1.423 6.421-.504 1.33-.138.688.138.642.321.825.459.871-.78 1.789-1.377.138-3.534-1.468-3.533-.459-1.01.367-.413 1.009-.275 1.239-.642 1.192-.368 1.972-3.533 3.118-1.285 2.11-.275 2.752.046 3.118-.322 2.66-1.376 1.376-1.102-.046-.55-.688-.413-.963-.689-.963-.458-.092-1.056.367-.505-.091-.229-.413v-.688l-.092-.642-.413-.413-1.055.092-2.019 1.009-1.01.229-.826-.229-2.707-1.422-1.607-1.88-1.009.642-1.514 4.081-1.056 1.101-3.533 1.514-1.331 1.1-.551.184-.642.091-6.746-2.384-9.591-1.055-2.294-1.009-.551-.505-1.193-1.421-.275-.597-.322-1.375.138-.321.367-.138.459-.963.184-.138.367.046.275-.091.138-.643-.184-.596-.413-.275-.459-.229-.321-.321-.459-.826-1.101-1.742-.597-.643-4.589-2.522-1.468-1.238-1.239-.963-1.285-.688-2.707-.734-1.331-1.376-3.258-6.558-1.606-2.43-.918-.551-2.524-.413-1.285-.596-1.193-1.146-1.055-1.605-.689-1.881-.183-1.972-1.239.138-1.148-.596-1.147-.963-1.193-.688-1.101-.275-.092-.964 1.468-3.164 1.561-2.431 1.468-1.467.321-.55.184-.597.046-.917-.184-1.101-.046-1.1.276-1.514.872-2.247.688-.825.642-.275.826.137.551-.229.642-.917 1.79-3.394.597-.596.734-.459.551-.183.367-.321.046-.413-.322-.734-.917-.963-.276-.367-.092-.367.046-.413.643-.963.229-.412.092-.367v-.596l-.413-1.009.092-.734.596-.642 1.148-.734.367-.275.504-1.147.368-1.33.596-1.33 1.285-2.201.321-.642.092-.688-.092-.871-.367-1.835-.183-1.284.137-1.605.459-1.972.092-.504-.092-.918-.872-3.348-.963-2.155 3.946-2.293h.688l.78.55.368.138 1.422.046.826.275.413.275 1.193.688.597.092.688-.092 1.239-.642.872-.55 3.258-1.009.367-.367.367-1.193.367-.733.413-.367.781-.413.458-.092.505.092.689.367.826.642.413.137 1.284.092.872.321 1.79.046 3.947-.504 1.33-.551 1.239-1.238.597-.275.826-.184h1.055l.826.23.597.412.229.688.276.413.78.275.55.505.459.688.322.275.504.229.505.046.688-.092 3.167-1.788.55-.092.872-.046.872.229 1.147.597 1.239.183 7.526-.321.872.229-.092.597.138.412 1.606.23.734-.092.735-.184 1.606-1.054 1.009-1.009.459-.23 2.203-.458.918-.734.458-.642.138-2.752.138-.642.413-.825.459-.688.872-.734.55-.046.367.413.505.642.597.459 1.973.596.367.321.23.413.091.917.322.229.688.092 1.331-.275.826.321.413.275.596 1.467.276.413.688.688.596.321.459-.092z" fill="#004873" stroke="#fff" stroke-width="2" stroke-linecap="round" stroke-linejoin="round"/><path d="M292.354 153.041l-.138 1.146-.321 1.192-.826 2.11v.55l.138.459 1.881 1.834.23.505.137.596.092.642-.046.642-.137.596-.184.505-.275.321-2.019.367-.322.229-.183.321v.505l.367 1.375.184 4.77.137.734 1.239 3.99.092.733-.046.642-.275.505-5.92 3.623-.872.871-.688 1.147-.275.642-.138.734-.046.642.184.871.458.871.184.734-.092.321-.183.23-1.469.596-.321.321-.229.458-.322 1.284-.091 1.285.091.596.138.504.275.367.872.459.321.275.276.367.137.458v.505l-.137.55-.321.551-.964 1.146-.275.55-.138.505.092.917.55 1.33.138.459v.504l-.138.459-.459 1.055-1.468 1.788-4.772 1.559-.276.23-1.422 2.109-.551.459-.688.229-4.681-.779-.321.091-1.193.918-.413.183-2.02.092-.826-.23-.367-.321-.321-.412-.275-.642-.367-.459-.459-.046-.505.275-1.744 2.202-.275-.092-.643-.046-.321.138-.367.321-.229.458-.367 1.468-.322.458-.459.23-2.34-.23-1.881.872-4.91 4.448-.413.046-.413-.137-2.02-1.743-.458-.184h-.505l-.413.184-.689.55-.504.596-.184.459-.551.78-.367.321-.367.045-.413-.183-1.285-2.064-.505-.412-.458-.276-.459-.045-.413.091-.322.275-.183.459-.046-.367-.367-.504-.597-.505-.826-.183-1.055-.092-.459-.092-.413-.275-.551-1.192-.229-.23-.551-.137-.183-.688.275-1.238.321-.413 2.203-2.614.321-.688.138-.505.137-1.192.368-.596.367-.046 1.468-.092.459-.137.642-.413.184-.229-.138-.642-.413-.551-3.212-3.21-.275-.183-.505.045-2.616 1.055-.963.092-3.213-.596-1.422.229-.597-.229-3.212-3.027-.321-.459-.23-.688-.137-.963-.138-1.651-.275-.871-.413-.55-.551-.23-3.304-.412-.78-.184-.275-.183-3.58-1.881-.413-.045-.367.137-.321.229-1.193 1.835-.321.183h-.276l-2.707-1.742-1.79-2.385-1.973-1.33-1.514-1.468-1.056-.642-.596-.046-.597.184-1.147 1.101-.643.183-.596-.092-1.285-.779-2.524-2.385-.367-.505-.184-.55-.091-.504.137-2.156v-.504l-.321-.597-1.147-1.1-.276-.505-.183-.642v-.734l1.422-5.64.092-1.927-.183-1.696-1.01-3.669.138-.413.413-.229 2.386-.734.459-.321.275-.459v-.504l-.183-.505-.276-.458-.963-1.055.55-.229.78-.688.276-.505.321-.825.413-.642 1.285-.688.275-.505-.229-.825.046-.275.321-.459.321-.046.551.046 2.661 1.146.735.046.917-.091 1.606-.505 1.974.046 1.147.504 1.927-.321 5.278-2.568.183-1.238-.183-1.147-.322-.917-.367-.596-.367-.413-3.074-2.293-.322-.413-.091-.458.183-.78.321-.55 1.561-1.789.55-.825.184-.413.183-.871.367-.826.551-.596.551-.183.367.045.872.551.367.092.551-.092 2.753-1.651 2.386-.917 2.386-2.156.413-.229 1.744.275.918-.183.551-.276.413-.367.229-.366.184-.459.275-1.697.229-.825.551-1.009.734-.688.689-.23.275-.275.092-.55-.046-1.101.092-.871 2.936 1.972 1.285 1.513 1.744 2.844.734.825.367.184 5.186-.413 1.193.321 3.075 2.431 1.789.458.964.596.367.367.23.505.137 1.055.184.366.275.23 1.744.871 1.101.871.918 1.285 1.055 2.155 1.744.459.459-.23.597-.091.917.412.735.23h.642l.688-.459 1.01-1.146.321-.184.78-.275.322-.275.229-.413.321-.825.459-.551.413.046.459.183.918.643.918.458 1.009.367 1.56.321.781.413.458.504.413 1.009.505.321.734.184 1.469-.138 1.744.092 1.376.413 2.019 1.009 2.524 1.696.872.734.643.734.413.78.459.687.734.551 2.386.871 2.799 1.789 1.285.413zM173.276 98.466l.23.458.459.55.459.276 1.422.459.413.321.276.504.091.55-.183.688-.551.78-1.927 1.834-.184.321-.092.367.368.872.137.596-.092.963.046.275.413 1.009v.504l-.504 1.009-1.515.367-2.432.138-1.193-.138-.964-.229-.321-.183-.642.045-.643.184-1.101.825-1.01.918-.413.229-3.028.963-4.865.871-2.845 1.193-.963-.23-.368-.412-.091-.642.137-1.743-.229-.78-1.836-2.109-.459-.872-.367-1.284-.504-.963-1.652-2.11-.23-.321-.046-.504.413-1.192-.046-.459-.596-.55-1.239-.78-.321-.413.045-.321.23-.32 1.285-.78 3.212-1.193h.78l1.698.734.321.046.413-.092.367-.23.367-.55-.183-1.146.183-.596.276-.23 8.948-2.614 3.35-.366.734.137.78.459 1.056 1.1.826.642.321.367.23.688.275.459.505.23 1.606.412.505.367.458.642z" fill="#004873" stroke="#fff" stroke-width="2" stroke-linecap="round" stroke-linejoin="round"/><path fill-rule="evenodd" clip-rule="evenodd" d="M207.025 56.684l-.138-.413-2.432-2.156-.688-1.33-.597-3.118-1.744.459-.963-.276-.413-.412-1.285-1.514-.367-.275-.368-.092-1.606.138-.55-.275-.643-.55-.505-.046-.458.091-.781.367h-.55l-.689-.275-.367-.046-.321.138-.275.32-.78 1.285-.368.504-1.422 1.193-.688.871-.735 1.422-.459.642-.596.504-1.101.596-.505.367-.826.78-.597.459-2.478 1.192-2.753 1.834-6.057 1.56-1.194.137-.596-.091-.321-.413-.23-1.193-.229-.55-.321-.183-.459-.046-1.056.046-1.285-.184-3.028.046-.735.23-.458.32-.459.78-.138.871v.642l-.092.872-.229.825-.23.459-.413.321-.55.321-1.974 1.651-1.009.504-.688-.137-.918-.413-.551-.092-.229.23-.092.412.138.413.413 1.376v.413l-.046 1.009.413 1.467-.046.642-.367.505-.459 1.238-.551.78-.551.32-.504.093-1.193-.092-1.928.183-.505.138-.55.367-1.469 1.238-.872.321-2.202-.825-5.323.917-1.377-.184-1.56-.55-1.698-.367-2.799.092-.826.229-.551.23-.275.458-.138.459-.092 1.054.092.642-.184.78-.367.596-.55.23-.551.045-.918-.045-.642.229-4.038 2.522-.826 1.055-.368.413-.78.596-.459.092-.504-.184-.459-.367-.551-.229-.551.046-6.47 3.394-1.193.32h-.321l-.689-.32-.458-.092h-.735l-.55.183-.735.505-.642.642-2.891 1.88-3.992 1.651-.78.459-.368.458-.917 1.422-.643 1.56-.642.825-.78.55-1.744 1.743-.688.32-1.056.276-.826.459-.734 1.009.826 2.109v1.009l-.46 1.101-.274.734v.458l.229.321.367.138.689.046.734-.184 1.376-.779.735-.092.917.367 1.102.275 1.193.55 3.258 3.165.596.412 1.239.138.918-.092.918-.229.551-.046.688.046 1.285.367.734.367.597.367 1.744 1.972.458.367.413.229 2.249.688.413.275.275.413.23.871 3.533 1.835.597.596.321.504-.138.367v.917l.092.551.688 2.247.046.504-.091.459-.826.367-.826.091-.322.505v1.834l-.137.688-.826 2.156.046.688.229 1.055-.046.504-.688 2.339-.092.55-.046.596.275.413.643.275.505.275.137.367.046.321-.229.459-1.698 1.88-.505.505-.505.275-2.019.459-.826.366-.78.505-.78.78-.367.458-.184.505.276.458 1.009.917.092.367-.092.321-.55.321-.413.321v.138l.871.55.23.551-.138.275-.596.596-.046.367.183.825.23.367.367.23.642.275.459.321.597.688.229.55.138.55-.046 2.614.092 1.055.183.642.23.459.642.825.459.688.138.734v.596l-.184 1.009-.505 1.56v.963l3.947-2.293h.688l.78.55.367.137 1.423.046.826.276.413.275 1.193.688.597.091.688-.091 1.239-.642.872-.551 3.258-1.009.367-.367.367-1.192.367-.734.413-.367.78-.412.459-.092.505.092.688.366.826.643.413.137 1.285.092.872.321 1.79.046 3.946-.505 1.331-.55 1.239-1.238.597-.275.826-.184h1.055l.826.229.597.413.229.688.275.413.781.275.55.504.459.688.321.275.505.23.505.046.688-.092 3.167-1.789.55-.091.872-.046.872.229 1.147.596 1.239.184 7.526-.321.872.229-.092.596.138.413 1.606.229.734-.091.734-.184 1.606-1.055 1.01-1.009.459-.229 2.203-.459.917-.733.459-.642.138-2.752.138-.642.413-.826.458-.688.872-.733.551-.046.367.413.505.642.596.458 1.974.596.367.321.229.413.092.917.321.23.689.091 1.33-.275.826.321.413.275.597 1.468.275.413.689.688.596.321.459-.092.551-.229.78-.688.275-.505.321-.825.413-.642 1.285-.688.276-.505-.23-.825.046-.275.321-.459.322-.046.55.046 2.662 1.147.734.045.918-.091 1.606-.505 1.973.046 1.147.505 1.928-.321 5.277-2.569.183-1.238-.183-1.146-.321-.918-.367-.596-.368-.413-3.074-2.293-.321-.412-.092-.459.183-.78.322-.55 1.56-1.789.551-.825.183-.413.184-.871.367-.826.55-.596.551-.183.367.046.872.55.367.092.551-.092 2.753-1.651 2.386-.917 2.387-2.156.413-.229 1.743.275.918-.183.551-.275.413-.367.229-.367.184-.459.275-1.697.23-.825.55-1.009.735-.688.688-.229.275-.276.092-.55-.046-1.101.092-.871.092-.825.275-1.101.321-1.009.23-1.192.046-2.11.045-.413.413-1.238-.091-.504-.643-.78-.505-.413-.458-.229-.918-.229-.505-.413-2.478-2.385-.505-.321-2.294-.734-1.56-1.055-.505-.504-.78-1.238.321-.505 1.239-.596 1.377-.367.642.046.138-1.468v-.366l-.367-1.743v-.551l.275-.642 1.101-1.1.184-.275-.046-.459-.275-.642-.872-1.33-.643-.78-.505-.55-1.101-.734-.367-.596.046-.504.092-.321 1.101-1.147.275-.459.23-.688-.138-.596-1.055-3.026-.276-1.101-.183-.872v-1.421l-.23-1.835-.229-.596-.275-.596-.597-.504-.413-.23h-.505l-2.799.321-1.836-.413-.596-.045-1.285.275h-.964l-.367-.184-.367-.412-.229-.55-.184-1.193-.275-.871-.597-.918-.413-.412-.413-.276-3.35-1.467-.183-.092-.138-.413-.092-.688.092-1.559.413-1.376.551-.825.596-1.055.23-.596.092-.872-.046-1.054-.597-4.265-.367-.964-.459-.825-.183-.642.045-.871.23-.55.459-.735.046-.412zm-34.218 41.14l.459.642.229.458.459.55.459.276 1.423.458.413.321.275.505.092.55-.184.688-.55.78-1.928 1.834-.183.321-.092.367.367.871.138.597-.092.963.046.275.413 1.009v.504l-.505 1.009-1.514.367-2.432.138-1.193-.138-.964-.229-.321-.184-.643.046-.642.184-1.102.825-1.009.917-.413.23-3.029.963-4.864.871-2.845 1.192-.964-.229-.367-.413-.092-.642.138-1.742-.23-.78-1.835-2.11-.459-.871-.367-1.284-.505-.963-1.652-2.11-.229-.321-.046-.504.413-1.193-.046-.458-.597-.551-1.239-.779-.321-.413.046-.321.229-.321 1.285-.78 3.213-1.192h.78l1.698.734.321.046.413-.092.367-.23.367-.55-.183-1.146.183-.597.275-.229 8.949-2.614 3.35-.367.734.138.78.458 1.055 1.101.826.642.322.367.229.688.275.459.505.229 1.606.413.505.367z" fill="#004873"/><path d="M206.887 56.271l.949-.316a1 1 0 00-.286-.432l-.663.748zm.138.413l.994.11a.997.997 0 00-.046-.427l-.948.317zm-2.57-2.569l-.888.46c.056.11.133.207.225.289l.663-.748zm-.688-1.33l-.983.188c.018.095.05.187.094.272l.889-.46zm-.597-3.118l.982-.188a1.001 1.001 0 00-1.236-.78l.254.968zm-1.744.459l-.274.961a1 1 0 00.529.006l-.255-.967zm-.963-.276l-.707.708a1 1 0 00.432.254l.275-.962zm-.413-.412l-.763.647.056.06.707-.707zm-1.285-1.514l.762-.647a.981.981 0 00-.163-.153l-.599.8zm-.367-.275l.599-.8a.996.996 0 00-.357-.17l-.242.97zm-.368-.092l.243-.97a1.003 1.003 0 00-.328-.026l.085.996zm-1.606.138l-.447.895c.165.082.349.117.533.101l-.086-.996zm-.55-.275l-.651.76c.062.052.13.098.204.134l.447-.894zm-.643-.55l.651-.76a1.003 1.003 0 00-.56-.236l-.091.995zm-.505-.046l.091-.996a1.006 1.006 0 00-.287.015l.196.98zm-.458.091l-.196-.98a.993.993 0 00-.23.075l.426.905zm-.781.367v1a.997.997 0 00.426-.095l-.426-.905zm-.55 0l-.371.929a1 1 0 00.371.071v-1zm-.689-.275l.372-.928a1.012 1.012 0 00-.248-.064l-.124.992zm-.367-.046l.124-.992a.997.997 0 00-.517.073l.393.92zm-.321.138l-.394-.92c-.14.06-.265.153-.365.269l.759.65zm-.275.32l-.759-.65a.926.926 0 00-.096.132l.855.519zm-.78 1.285l.808.588a.965.965 0 00.046-.069l-.854-.52zm-.368.504l.643.767a1.02 1.02 0 00.166-.178l-.809-.589zm-1.422 1.193l-.642-.767a1 1 0 00-.143.147l.785.62zm-.688.871l-.785-.62a.958.958 0 00-.104.161l.889.46zm-.735 1.422l.814.581a.985.985 0 00.075-.122l-.889-.46zm-.459.642l.646.764c.063-.054.12-.115.168-.183l-.814-.581zm-.596.504l.476.88a1.04 1.04 0 00.17-.116l-.646-.764zm-1.101.596l-.476-.879a.931.931 0 00-.112.07l.588.81zm-.505.367l-.588-.808a.95.95 0 00-.099.081l.687.727zm-.826.78l.609.793a.887.887 0 00.077-.066l-.686-.727zm-.597.459l.434.9c.062-.03.121-.066.176-.108l-.61-.792zm-2.478 1.192l-.433-.901a.957.957 0 00-.121.069l.554.832zm-2.753 1.834l.249.969a.99.99 0 00.305-.136l-.554-.833zm-6.057 1.56l.114.993a.989.989 0 00.135-.025l-.249-.968zm-1.194.137l-.151.989a.995.995 0 00.266.005l-.115-.994zm-.596-.091l-.789.614c.157.201.385.335.637.374l.152-.988zm-.321-.413l-.982.189c.03.155.096.3.193.425l.789-.614zm-.23-1.193l.982-.188a.96.96 0 00-.059-.196l-.923.385zm-.229-.55l.923-.385a1 1 0 00-.427-.483l-.496.868zm-.321-.183l.495-.869a.992.992 0 00-.396-.126l-.099.995zm-.459-.046l.099-.995a1 1 0 00-.143-.004l.044.999zm-1.056.046l-.141.99c.061.008.123.011.185.009l-.044-1zm-1.285-.184l.142-.99a1.002 1.002 0 00-.157-.01l.015 1zm-3.028.046l-.015-1a.995.995 0 00-.283.046l.298.954zm-.735.23l-.298-.955a.997.997 0 00-.275.135l.573.82zm-.458.32l-.574-.819a.995.995 0 00-.288.312l.862.508zm-.459.78l-.862-.507a1 1 0 00-.126.351l.988.156zm-.138.871l-.988-.156a1.019 1.019 0 00-.012.157h1zm0 .642l.995.105c.003-.035.005-.07.005-.105h-1zm-.092.872l.964.268c.015-.054.025-.108.031-.163l-.995-.105zm-.229.825l.894.448a.968.968 0 00.069-.18l-.963-.268zm-.23.459l.614.79c.118-.092.214-.209.281-.343l-.895-.447zm-.413.321l.504.864a1.01 1.01 0 00.11-.075l-.614-.789zm-.55.321l-.504-.864a.967.967 0 00-.138.097l.642.767zm-1.974 1.651l.447.895c.07-.035.135-.078.195-.128l-.642-.767zm-1.009.504l-.196.981a1 1 0 00.643-.086l-.447-.895zm-.688-.137l-.411.912c.069.03.141.054.215.069l.196-.981zm-.918-.413l.41-.912a.99.99 0 00-.246-.074l-.164.986zm-.551-.092l.164-.986a1 1 0 00-.871.28l.707.706zm-.229.23l-.707-.708a.994.994 0 00-.269.49l.976.218zm-.092.412l-.976-.216a.997.997 0 00.027.533l.949-.317zm.138.413l.957-.287-.009-.03-.948.317zm.413 1.376h1a1 1 0 00-.043-.287l-.957.287zm0 .413l.999.045.001-.045h-1zm-.046 1.009l-.999-.046a.994.994 0 00.036.317l.963-.271zm.413 1.467l.997.072a.989.989 0 00-.035-.343l-.962.271zm-.046.642l.808.589a.998.998 0 00.189-.517l-.997-.072zm-.367.505l-.809-.589a1.002 1.002 0 00-.129.241l.938.348zm-.459 1.238l.817.577c.05-.07.09-.148.12-.23l-.937-.347zm-.551.78l.504.864c.123-.073.23-.17.313-.287l-.817-.577zm-.551.32l.179.985a.992.992 0 00.325-.12l-.504-.864zm-.504.093l-.077.997a.995.995 0 00.255-.014l-.178-.983zm-1.193-.092l.076-.997a.987.987 0 00-.171.001l.095.996zm-1.928.183l-.095-.995a1.012 1.012 0 00-.168.03l.263.965zm-.505.138l-.263-.965a.998.998 0 00-.291.133l.554.832zm-.55.367l-.555-.832c-.031.02-.061.043-.09.067l.645.765zm-1.469 1.238l.346.938c.109-.04.21-.099.299-.174l-.645-.764zm-.872.321l-.351.936c.225.084.472.085.697.002l-.346-.938zm-2.202-.825l.351-.937a1 1 0 00-.521-.049l.17.986zm-5.323.917l-.132.99c.1.014.202.012.301-.005l-.169-.985zm-1.377-.184l-.333.943c.065.023.133.04.201.049l.132-.992zm-1.56-.55l.332-.943a.968.968 0 00-.121-.035l-.211.978zm-1.698-.367l.211-.977a1.004 1.004 0 00-.244-.023l.033 1zm-2.799.092l-.033-1a.998.998 0 00-.235.036l.268.964zm-.826.229l-.268-.963a.967.967 0 00-.117.04l.385.923zm-.551.23l-.384-.924a.996.996 0 00-.473.409l.857.514zm-.275.458l-.858-.515a.995.995 0 00-.1.227l.958.288zm-.138.459l-.958-.288a1.051 1.051 0 00-.038.2l.996.088zm-.092 1.054l-.996-.086a.968.968 0 00.006.228l.99-.142zm.092.642l.973.23a.985.985 0 00.017-.371l-.99.141zm-.184.78l.852.524c.056-.09.097-.19.122-.295l-.974-.229zm-.367.596l.385.923c.193-.08.357-.22.467-.398l-.852-.525zm-.55.23l.083.996a1 1 0 00.301-.073l-.384-.923zm-.551.045l-.05 1c.044.001.089 0 .133-.003l-.083-.997zm-.918-.045l.05-1a1.001 1.001 0 00-.386.058l.336.942zm-.642.229l-.336-.942a.991.991 0 00-.194.094l.53.848zm-4.038 2.522l-.53-.848a1 1 0 00-.258.232l.788.616zm-.826 1.055l.747.665.04-.048-.787-.617zm-.368.413l.608.794a1.08 1.08 0 00.14-.13l-.748-.664zm-.78.596l.196.98c.15-.03.29-.093.412-.185l-.608-.795zm-.459.092l-.341.94a.998.998 0 00.537.04l-.196-.98zm-.504-.184l-.625.781c.085.068.181.122.283.16l.342-.94zm-.459-.367l.624-.78a1.003 1.003 0 00-.24-.143l-.384.923zm-.551-.229l.384-.923a.996.996 0 00-.467-.073l.083.996zm-.551.046l-.083-.997a.997.997 0 00-.381.111l.464.886zm-6.47 3.394l.26.965c.071-.019.139-.046.205-.08l-.465-.885zm-1.193.32v1c.088 0 .175-.01.26-.034l-.26-.965zm-.321 0l-.423.907a1 1 0 00.423.094v-1zm-.689-.32l.423-.907a.99.99 0 00-.227-.074l-.196.98zm-.458-.092l.196-.98a1.01 1.01 0 00-.196-.02v1zm-.735 0v-1a1 1 0 00-.316.051l.316.949zm-.55.183l-.316-.948a1 1 0 00-.251.124l.567.824zm-.735.505l-.566-.824c-.05.034-.097.073-.141.117l.707.707zm-.642.642l.545.838c.058-.038.113-.082.162-.13l-.707-.708zm-2.891 1.88l.382.924a.981.981 0 00.163-.085l-.545-.839zm-3.992 1.651l-.383-.924a.99.99 0 00-.124.062l.507.862zm-.78.459l-.507-.862a1 1 0 00-.274.237l.78.625zm-.368.458l-.78-.625a1.005 1.005 0 00-.06.083l.84.542zm-.917 1.422l-.84-.542a1.004 1.004 0 00-.085.161l.925.381zm-.643 1.56l.79.613c.055-.07.1-.15.135-.233l-.925-.38zm-.642.825l.576.817a1 1 0 00.213-.203l-.79-.614zm-.78.55l-.577-.817c-.046.033-.09.07-.13.11l.707.707zm-1.744 1.743l.422.906a.983.983 0 00.285-.199l-.707-.707zm-.688.32l.252.969c.058-.016.115-.036.17-.062l-.422-.906zm-1.056.276l-.252-.968a1 1 0 00-.233.094l.485.874zm-.826.459l-.485-.875a1 1 0 00-.324.286l.809.589zm-.734 1.009l-.809-.589a1 1 0 00-.122.953l.93-.364zm.826 2.109h1a.995.995 0 00-.069-.364l-.931.364zm0 1.009l.923.385c.05-.122.077-.253.077-.385h-1zm-.46 1.101l-.922-.385a.603.603 0 00-.013.034l.936.351zm-.274.734l-.937-.352a1.008 1.008 0 00-.063.352h1zm0 .458h-1c0 .209.065.412.186.582l.814-.582zm.229.321l-.813.582c.115.161.276.285.462.355l.351-.937zm.367.138l-.35.936c.09.034.186.055.284.062l.066-.998zm.689.046l-.067.997c.104.007.208-.002.309-.027l-.242-.97zm.734-.184l.242.97a.95.95 0 00.25-.1l-.492-.87zm1.376-.779l-.124-.993c-.13.017-.255.058-.368.122l.492.871zm.735-.092l.37-.929a1.008 1.008 0 00-.494-.063l.124.992zm.917.367l-.37.928a.973.973 0 00.128.042l.242-.97zm1.102.275l.419-.908a1.005 1.005 0 00-.177-.062l-.242.97zm1.193.55l.697-.717a1.01 1.01 0 00-.278-.191l-.42.908zm3.258 3.165l-.697.717c.04.039.083.074.128.105l.569-.822zm.596.412l-.568.823a.995.995 0 00.458.171l.11-.994zm1.239.138l-.11.994c.07.008.14.008.21.001l-.1-.995zm.918-.092l.1.995a.874.874 0 00.143-.025l-.243-.97zm.918-.229l-.083-.997a1.056 1.056 0 00-.159.027l.242.97zm.551-.046l.066-.998a.925.925 0 00-.149.002l.083.996zm.688.046l.275-.962a1.053 1.053 0 00-.208-.036l-.067.998zm1.285.367l.447-.895a1.057 1.057 0 00-.172-.067l-.275.962zm.734.367l.524-.852a1.161 1.161 0 00-.077-.043l-.447.895zm.597.367l.749-.663a.996.996 0 00-.225-.189l-.524.852zm1.744 1.972l-.75.662c.038.043.08.083.125.119l.625-.781zm.458.367l-.624.781a.99.99 0 00.139.093l.485-.874zm.413.229l-.485.874a.965.965 0 00.193.082l.292-.956zm2.249.688l.554-.832a.977.977 0 00-.261-.124l-.293.956zm.413.275l.832-.555a.99.99 0 00-.278-.277l-.554.832zm.275.413l.967-.255a.978.978 0 00-.135-.3l-.832.555zm.23.871l-.967.255a.998.998 0 00.506.633l.461-.888zm3.533 1.835l.707-.708a.992.992 0 00-.246-.18l-.461.888zm.597.596l.843-.537a1.022 1.022 0 00-.136-.171l-.707.708zm.321.504l.936.351a.997.997 0 00-.093-.888l-.843.537zm-.138.367l-.936-.351a1 1 0 00-.064.351h1zm0 .917h-1c0 .055.005.11.014.165l.986-.165zm.092.551l-.986.164a.916.916 0 00.03.128l.956-.292zm.688 2.247l.996-.091a1.001 1.001 0 00-.039-.202l-.957.293zm.046.504l.981.197a.988.988 0 00.015-.287l-.996.09zm-.091.459l.405.914c.297-.132.511-.4.575-.718l-.98-.196zm-.826.367l.11.994c.102-.012.202-.039.295-.08l-.405-.914zm-.826.091l-.111-.993a1 1 0 00-.733.456l.844.537zm-.322.505l-.843-.537c-.102.16-.157.347-.157.537h1zm0 1.834l.981.197c.013-.065.019-.131.019-.197h-1zm-.137.688l.933.358a.9.9 0 00.047-.161l-.98-.197zm-.826 2.156l-.934-.358a.99.99 0 00-.064.424l.998-.066zm.046.688l-.998.066c.003.049.01.098.02.146l.978-.212zm.229 1.055l.996.09a.995.995 0 00-.019-.303l-.977.213zm-.046.504l.959.282a.949.949 0 00.037-.191l-.996-.091zm-.688 2.339l-.96-.282c-.011.038-.02.078-.027.117l.987.165zm-.092.55l-.986-.164a.862.862 0 00-.011.087l.997.077zm-.046.596l-.997-.076a1 1 0 00.165.631l.832-.555zm.275.413l-.832.555a1 1 0 00.439.364l.393-.919zm.643.275l.478-.878a.93.93 0 00-.084-.041l-.394.919zm.505.275l.936-.351a.999.999 0 00-.458-.527l-.478.878zm.137.367l.99-.141a1.01 1.01 0 00-.053-.21l-.937.351zm.046.321l.894.448a.992.992 0 00.096-.589l-.99.141zm-.229.459l.742.67a1 1 0 00.152-.223l-.894-.447zm-1.698 1.88l.707.708a1.19 1.19 0 00.035-.037l-.742-.671zm-.505.505l.479.878a1 1 0 00.228-.171l-.707-.707zm-.505.275l.222.975a.986.986 0 00.257-.097l-.479-.878zm-2.019.459l-.221-.976a1.006 1.006 0 00-.185.062l.406.914zm-.826.366l-.406-.913a.956.956 0 00-.137.074l.543.839zm-.78.505l-.543-.84a.994.994 0 00-.164.133l.707.707zm-.78.78l-.707-.708a.974.974 0 00-.074.083l.781.625zm-.367.458l-.781-.625a1 1 0 00-.159.283l.94.342zm-.184.505l-.939-.342a.996.996 0 00.082.856l.857-.514zm.276.458l-.858.515c.051.084.113.16.185.225l.673-.74zm1.009.917l.97-.242a1.001 1.001 0 00-.297-.498l-.673.74zm.092.367l.961.275a.986.986 0 00.009-.517l-.97.242zm-.092.321l.504.864a1 1 0 00.458-.589l-.962-.275zm-.55.321l-.504-.864a1.184 1.184 0 00-.11.075l.614.789zm-.413.321l-.614-.789a.998.998 0 00-.386.789h1zm0 .138h-1c0 .343.176.662.466.846l.534-.846zm.871.55l.923-.384a1 1 0 00-.389-.461l-.534.845zm.23.551l.894.447a1 1 0 00.029-.832l-.923.385zm-.138.275l.707.707a1 1 0 00.187-.26l-.894-.447zm-.596.596l-.707-.707a.997.997 0 00-.286.583l.993.124zm-.046.367l-.993-.124c-.014.114-.008.229.017.341l.976-.217zm.183.825l-.976.217c.025.111.068.217.128.314l.848-.531zm.23.367l-.848.531c.08.128.189.237.318.317l.53-.848zm.367.23l-.53.848c.044.027.089.051.136.071l.394-.919zm.642.275l.574-.82a1.052 1.052 0 00-.18-.099l-.394.919zm.459.321l.756-.655a.99.99 0 00-.183-.165l-.573.82zm.597.688l.923-.385a.979.979 0 00-.168-.27l-.755.655zm.229.55l.97-.243a1.027 1.027 0 00-.047-.142l-.923.385zm.138.55l1 .018a1.033 1.033 0 00-.03-.26l-.97.242zm-.046 2.614l-1-.017a.895.895 0 00.004.104l.996-.087zm.092 1.055l-.997.087c.006.064.018.127.035.188l.962-.275zm.183.642l-.961.275c.017.06.039.117.067.173l.894-.448zm.23.459l-.895.447c.03.059.065.115.106.167l.789-.614zm.642.825l.832-.554a.651.651 0 00-.043-.06l-.789.614zm.459.688l.983-.184a1.01 1.01 0 00-.151-.371l-.832.555zm.138.734h1c0-.062-.006-.123-.017-.184l-.983.184zm0 .596l.984.179c.01-.059.016-.119.016-.179h-1zm-.184 1.009l.952.308c.013-.042.024-.085.032-.129l-.984-.179zm-.505 1.56l-.951-.308a1.002 1.002 0 00-.049.308h1zm0 .963h-1a1 1 0 001.503.864l-.503-.864zm3.947-2.293v-1a.998.998 0 00-.503.135l.503.865zm.688 0l.577-.818a1 1 0 00-.577-.182v1zm.78.55l-.576.817c.07.049.145.089.225.119l.351-.936zm.367.137l-.351.937c.103.038.21.059.319.063l.032-1zm1.423.046l.316-.948a.981.981 0 00-.284-.051l-.032.999zm.826.276l.554-.833a1.009 1.009 0 00-.238-.116l-.316.949zm.413.275l-.555.832.055.034.5-.866zm1.193.688l-.499.866a.999.999 0 00.347.122l.152-.988zm.597.091l-.152.989c.094.014.189.015.284.003l-.132-.992zm.688-.091l.132.991a.968.968 0 00.328-.104l-.46-.887zm1.239-.642l.46.887c.025-.013.05-.027.074-.042l-.534-.845zm.872-.551l-.296-.955a.99.99 0 00-.238.11l.534.845zm3.258-1.009l.296.956a1.02 1.02 0 00.411-.248l-.707-.708zm.367-.367l.707.708c.115-.116.201-.257.249-.413l-.956-.295zm.367-1.192l-.894-.447a1.02 1.02 0 00-.062.153l.956.294zm.367-.734l-.664-.747a.993.993 0 00-.23.3l.894.447zm.413-.367l-.467-.884a1.036 1.036 0 00-.197.137l.664.747zm.78-.412l-.196-.981a.976.976 0 00-.271.097l.467.884zm.459-.092l.179-.984a1.006 1.006 0 00-.375.003l.196.981zm.505.092l.47-.883a.968.968 0 00-.291-.101l-.179.984zm.688.366l.614-.789a1.03 1.03 0 00-.143-.093l-.471.882zm.826.643l-.613.789a.99.99 0 00.297.159l.316-.948zm.413.137l-.316.949c.08.026.162.043.245.049l.071-.998zm1.285.092l.346-.939a1.032 1.032 0 00-.274-.059l-.072.998zm.872.321l-.345.938c.102.038.21.059.32.062l.025-1zm1.79.046l-.026.999a.98.98 0 00.153-.007l-.127-.992zm3.946-.505l.127.992a.97.97 0 00.255-.068l-.382-.924zm1.331-.55l.382.924a.991.991 0 00.325-.217l-.707-.707zm1.239-1.238l-.419-.908a1.006 1.006 0 00-.288.2l.707.708zm.597-.275l-.217-.977a1.09 1.09 0 00-.202.068l.419.909zm.826-.184v-1a.988.988 0 00-.217.024l.217.976zm1.055 0l.268-.964a1.012 1.012 0 00-.268-.036v1zm.826.229l.569-.822a.998.998 0 00-.301-.141l-.268.963zm.597.413l.948-.316a.993.993 0 00-.379-.506l-.569.822zm.229.688l-.949.316c.029.085.068.165.117.239l.832-.555zm.275.413l-.831.555a1 1 0 00.499.388l.332-.943zm.781.275l.675-.737a1.001 1.001 0 00-.343-.206l-.332.943zm.55.504l.832-.555a1.042 1.042 0 00-.156-.182l-.676.737zm.459.688l-.832.555c.051.076.112.145.182.205l.65-.76zm.321.275l-.65.76a.994.994 0 00.237.151l.413-.911zm.505.23l-.413.91a.979.979 0 00.323.086l.09-.996zm.505.046l-.091.996c.075.006.149.005.223-.005l-.132-.991zm.688-.092l.132.991c.127-.017.249-.058.36-.12l-.492-.871zm3.167-1.789l-.165-.986a.976.976 0 00-.327.116l.492.87zm.55-.091l-.052-.999a1.036 1.036 0 00-.112.012l.164.987zm.872-.046l.254-.967a.988.988 0 00-.306-.032l.052.999zm.872.229l.461-.887a1.02 1.02 0 00-.207-.08l-.254.967zm1.147.596l-.461.888c.099.051.205.085.315.101l.146-.989zm1.239.184l-.146.989a.994.994 0 00.189.01l-.043-.999zm7.526-.321l.254-.967a.958.958 0 00-.297-.032l.043.999zm.872.229l.988.152a1 1 0 00-.734-1.119l-.254.967zm-.092.596l-.988-.152a.996.996 0 00.04.469l.948-.317zm.138.413l-.949.316c.12.36.433.62.807.674l.142-.99zm1.606.229l-.141.99a.98.98 0 00.265.003l-.124-.993zm.734-.091l.124.992c.04-.005.08-.013.119-.022l-.243-.97zm.734-.184l.243.97a.984.984 0 00.306-.134l-.549-.836zm1.606-1.055l.549.836a.972.972 0 00.158-.128l-.707-.708zm1.01-1.009l-.447-.894a1 1 0 00-.26.187l.707.707zm.459-.229l-.204-.979a1.044 1.044 0 00-.243.084l.447.895zm2.203-.459l.203.979a.991.991 0 00.421-.198l-.624-.781zm.917-.733l.625.781c.072-.058.135-.125.189-.2l-.814-.581zm.459-.642l.814.581c.111-.156.175-.34.185-.531l-.999-.05zm.138-2.752l-.978-.21a1.078 1.078 0 00-.021.16l.999.05zm.138-.642l-.895-.448a1.02 1.02 0 00-.083.238l.978.21zm.413-.826l-.832-.555a1.168 1.168 0 00-.063.108l.895.447zm.458-.688l-.643-.765a.968.968 0 00-.188.211l.831.554zm.872-.733l-.083-.997a.998.998 0 00-.561.232l.644.765zm.551-.046l.747-.665a1 1 0 00-.83-.332l.083.997zm.367.413l.786-.618a.571.571 0 00-.039-.047l-.747.665zm.505.642l-.786.618a1 1 0 00.176.174l.61-.792zm.596.458l-.609.793c.096.074.204.13.32.164l.289-.957zm1.974.596l.658-.752a.994.994 0 00-.369-.205l-.289.957zm.367.321l.874-.485a.995.995 0 00-.216-.267l-.658.752zm.229.413l.995-.099a.984.984 0 00-.121-.387l-.874.486zm.092.917l-.995.1a1 1 0 00.414.714l.581-.814zm.321.23l-.581.814c.133.095.287.155.449.177l.132-.991zm.689.091l-.132.992c.111.015.224.01.334-.012l-.202-.98zm1.33-.275l.363-.932a1 1 0 00-.565-.047l.202.979zm.826.321l.555-.832a1.001 1.001 0 00-.192-.1l-.363.932zm.413.275l.927-.376a1.001 1.001 0 00-.372-.456l-.555.832zm.597 1.468l-.926.377c.025.062.057.122.094.178l.832-.555zm.275.413l-.832.555c.037.054.079.106.125.152l.707-.707zm.689.688l-.707.707a.987.987 0 00.233.173l.474-.88zm.596.321l-.474.88a.994.994 0 00.67.1l-.196-.98zm.459-.092l.196.981a1 1 0 00.188-.058l-.384-.923zm.551-.229l.384.923c.101-.042.195-.101.277-.173l-.661-.75zm.78-.688l.661.75a.997.997 0 00.217-.271l-.878-.479zm.275-.505l.878.479a.942.942 0 00.054-.116l-.932-.363zm.321-.825l-.841-.541a1.066 1.066 0 00-.091.178l.932.363zm.413-.642l-.472-.882a.999.999 0 00-.369.341l.841.541zm1.285-.688l.472.881a.989.989 0 00.406-.402l-.878-.479zm.276-.505l.877.479a.995.995 0 00.086-.746l-.963.267zm-.23-.825l-.986-.165c-.024.144-.016.292.023.433l.963-.268zm.046-.275l-.819-.574a.986.986 0 00-.167.409l.986.165zm.321-.459l-.141-.99c-.274.039-.519.19-.678.416l.819.574zm.322-.046l.082-.996a.988.988 0 00-.224.006l.142.99zm.55.046l.396-.918a1 1 0 00-.313-.078l-.083.996zm2.662 1.147l-.396.918c.106.046.219.072.333.08l.063-.998zm.734.045l-.062.999c.054.003.108.002.161-.003l-.099-.996zm.918-.091l.099.995c.068-.007.135-.021.2-.041l-.299-.954zm1.606-.505l.023-.999a.986.986 0 00-.323.045l.3.954zm1.973.046l.403-.915a.997.997 0 00-.38-.085l-.023 1zm1.147.505l-.402.915c.178.078.375.103.567.071l-.165-.986zm1.928-.321l.164.986a1 1 0 00.273-.087l-.437-.899zm5.277-2.569l.437.9a1 1 0 00.552-.753l-.989-.147zm.183-1.238l.99.147a1.006 1.006 0 00-.002-.305l-.988.158zm-.183-1.146l.987-.158a1.018 1.018 0 00-.043-.173l-.944.331zm-.321-.918l.943-.33a.931.931 0 00-.092-.194l-.851.524zm-.367-.596l.851-.524a.959.959 0 00-.104-.14l-.747.664zm-.368-.413l.748-.664a.928.928 0 00-.15-.137l-.598.801zm-3.074-2.293l-.789.615c.055.07.119.133.191.187l.598-.802zm-.321-.412l-.981.196c.031.152.096.295.191.418l.79-.614zm-.092-.459l-.974-.229c-.032.14-.035.285-.007.425l.981-.196zm.183-.78l-.863-.504c-.05.086-.087.179-.11.275l.973.229zm.322-.55l-.754-.657a1.041 1.041 0 00-.11.153l.864.504zm1.56-1.789l.753.658a.97.97 0 00.079-.103l-.832-.555zm.551-.825l.831.555a.938.938 0 00.082-.149l-.913-.406zm.183-.413l.914.407c.028-.065.05-.132.065-.201l-.979-.206zm.184-.871l-.914-.406a.995.995 0 00-.065.2l.979.206zm.367-.826l-.735-.678a.987.987 0 00-.179.272l.914.406zm.55-.596l-.316-.949c-.16.054-.304.147-.418.271l.734.678zm.551-.183l.124-.993a1.01 1.01 0 00-.44.044l.316.949zm.367.046l.534-.846a1.016 1.016 0 00-.41-.147l-.124.993zm.872.55l-.534.846c.09.056.189.098.292.124l.242-.97zm.367.092l-.242.97a.993.993 0 00.406.016l-.164-.986zm.551-.092l.164.986a.99.99 0 00.35-.128l-.514-.858zm2.753-1.651l-.359-.933a.963.963 0 00-.155.075l.514.858zm2.386-.917l.359.933c.115-.044.221-.109.312-.191l-.671-.742zm2.387-2.156l-.486-.874a1.039 1.039 0 00-.185.132l.671.742zm.413-.229l.156-.988a.996.996 0 00-.642.114l.486.874zm1.743.275l-.155.988c.116.018.235.016.351-.007l-.196-.981zm.918-.183l.196.98a.968.968 0 00.251-.086l-.447-.894zm.551-.275l.447.894c.078-.039.151-.089.217-.147l-.664-.747zm.413-.367l.664.747c.071-.063.133-.136.184-.217l-.848-.53zm.229-.367l.848.53a.951.951 0 00.081-.159l-.929-.371zm.184-.459l.928.372a.967.967 0 00.059-.212l-.987-.16zm.275-1.697l-.963-.268c-.01.036-.018.072-.024.108l.987.16zm.23-.825l-.878-.479a1.016 1.016 0 00-.086.211l.964.268zm.55-1.009l-.683-.73a.987.987 0 00-.194.251l.877.479zm.735-.688l-.317-.949c-.136.046-.262.12-.367.219l.684.73zm.688-.229l.316.948a1 1 0 00.391-.241l-.707-.707zm.275-.276l.707.708c.148-.148.245-.337.28-.543l-.987-.165zm.092-.55l.986.165a.96.96 0 00.013-.207l-.999.042zm-.046-1.101l-.994-.104a.887.887 0 00-.005.146l.999-.042zm.092-.871l-.994-.11-.001.005.995.105zm.092-.825l-.97-.243a.988.988 0 00-.024.132l.994.111zm.275-1.101l-.953-.303-.017.06.97.243zm.321-1.009l.953.303a.865.865 0 00.029-.114l-.982-.189zm.23-1.192l.982.189c.01-.056.016-.112.017-.168l-.999-.021zm.046-2.11l-.994-.11a.65.65 0 00-.006.088l1 .022zm.045-.413l-.948-.316a.972.972 0 00-.045.206l.993.11zm.413-1.238l.949.316c.053-.159.065-.33.035-.495l-.984.179zm-.091-.504l.983-.179a.986.986 0 00-.212-.457l-.771.636zm-.643-.78l.772-.636a.954.954 0 00-.139-.138l-.633.774zm-.505-.413l.633-.774a.954.954 0 00-.186-.12l-.447.894zm-.458-.229l.447-.895a1.008 1.008 0 00-.205-.075l-.242.97zm-.918-.229l-.633.774c.114.093.247.16.39.196l.243-.97zm-.505-.413l-.693.72a.77.77 0 00.06.054l.633-.774zm-2.478-2.385l.693-.721a1.03 1.03 0 00-.156-.123l-.537.844zm-.505-.321l.537-.844a1.019 1.019 0 00-.232-.108l-.305.952zm-2.294-.734l-.56.829c.078.053.165.095.255.124l.305-.953zm-1.56-1.055l-.707.708c.045.045.094.085.146.121l.561-.829zm-.505-.504l-.846.533a.932.932 0 00.139.174l.707-.707zm-.78-1.238l-.844-.537a.997.997 0 00-.002 1.07l.846-.533zm.321-.505l-.434-.901c-.168.081-.31.207-.41.364l.844.537zm1.239-.596l-.258-.966c-.06.016-.119.038-.176.065l.434.901zm1.377-.367l.071-.997a.985.985 0 00-.329.031l.258.966zm.642.046l-.071.997a1 1 0 001.067-.904l-.996-.093zm.138-1.468l.995.094a.97.97 0 00.005-.094h-1zm0-.366h1c0-.07-.008-.139-.022-.207l-.978.207zm-.367-1.743h-1c0 .069.007.138.021.206l.979-.206zm0-.551l-.92-.394a1.01 1.01 0 00-.08.394h1zm.275-.642l-.707-.707a.996.996 0 00-.212.313l.919.394zm1.101-1.1l.707.707a.953.953 0 00.125-.152l-.832-.555zm.184-.275l.832.555c.128-.193.186-.425.163-.655l-.995.1zm-.046-.459l.995-.1c-.01-.101-.036-.2-.076-.294l-.919.394zm-.275-.642l.919-.394a1.003 1.003 0 00-.083-.154l-.836.548zm-.872-1.33l.836-.548c-.02-.03-.042-.06-.065-.088l-.771.636zm-.643-.78l.772-.636a.82.82 0 00-.035-.04l-.737.676zm-.505-.55l.737-.676a.981.981 0 00-.182-.156l-.555.832zm-1.101-.734l-.851.525a.993.993 0 00.297.307l.554-.832zm-.367-.596l-.996-.09c-.019.215.031.43.144.614l.852-.524zm.046-.504l-.962-.275c-.017.06-.028.122-.034.184l.996.09zm.092-.321l-.722-.693a1.001 1.001 0 00-.24.418l.962.275zm1.101-1.147l.721.693a.973.973 0 00.136-.178l-.857-.515zm.275-.459l.858.515c.037-.062.068-.129.091-.198l-.949-.317zm.23-.688l.948.317a.988.988 0 00.026-.541l-.974.224zm-.138-.596l.974-.225a.94.94 0 00-.03-.104l-.944.33zm-1.055-3.026l-.97.242c.007.03.015.058.025.087l.945-.33zm-.276-1.101l-.978.206a.459.459 0 00.008.037l.97-.243zm-.183-.872h-1c0 .07.007.139.021.207l.979-.207zm0-1.421h1c0-.042-.003-.083-.008-.124l-.992.124zm-.23-1.835l.993-.124c-.01-.08-.03-.16-.059-.235l-.934.36zm-.229-.596l.933-.359a1.27 1.27 0 00-.025-.06l-.908.42zm-.275-.596l.907-.42a.99.99 0 00-.262-.344l-.645.764zm-.597-.504l.646-.764a1.017 1.017 0 00-.161-.11l-.485.874zm-.413-.23l.485-.874a.996.996 0 00-.485-.126v1zm-.505 0v-1a.99.99 0 00-.114.007l.114.993zm-2.799.321l-.219.976a1 1 0 00.333.018l-.114-.994zm-1.836-.413l.22-.975a1 1 0 00-.143-.022l-.077.997zm-.596-.045l.077-.998c-.096-.007-.193 0-.287.02l.21.978zm-1.285.275v1c.07 0 .141-.008.209-.022l-.209-.978zm-.964 0l-.447.894c.139.07.292.106.447.106v-1zm-.367-.184l-.747.665c.085.095.186.173.3.23l.447-.895zm-.367-.412l-.923.384a1 1 0 00.176.28l.747-.664zm-.229-.55l-.989.151c.013.08.035.158.066.233l.923-.385zm-.184-1.193l.988-.152a.956.956 0 00-.034-.15l-.954.302zm-.275-.871l.953-.302a.999.999 0 00-.115-.244l-.838.546zm-.597-.918l.838-.545a1.017 1.017 0 00-.131-.162l-.707.707zm-.413-.412l.707-.708a1.004 1.004 0 00-.152-.125l-.555.832zm-.413-.276l.555-.832c-.049-.032-.1-.06-.154-.084l-.401.916zm-3.35-1.467l-.447.894.046.022.401-.916zm-.183-.092l-.949.317c.084.251.264.459.502.578l.447-.895zm-.138-.413l-.991.133a.969.969 0 00.042.184l.949-.317zm-.092-.688l-.998-.058c-.004.063-.001.127.007.19l.991-.132zm.092-1.559l-.958-.287a.987.987 0 00-.04.228l.998.06zm.413-1.376l-.832-.555a1.015 1.015 0 00-.126.268l.958.287zm.551-.825l.832.555.038-.063-.87-.492zm.596-1.055l.871.492c.024-.043.045-.087.063-.133l-.934-.359zm.23-.596l.933.359c.031-.082.052-.167.061-.255l-.994-.104zm.092-.872l.994.105c.005-.049.007-.099.005-.148l-.999.043zm-.046-1.054l.999-.044a1.514 1.514 0 00-.009-.095l-.99.139zm-.597-4.265l.99-.139a.964.964 0 00-.056-.218l-.934.357zm-.367-.964l.934-.356a1.03 1.03 0 00-.06-.13l-.874.486zm-.459-.825l-.961.275c.021.073.05.144.087.21l.874-.485zm-.183-.642l-.999-.053c-.006.11.007.221.037.328l.962-.275zm.045-.871l-.923-.385a.999.999 0 00-.075.332l.998.053zm.23-.55l-.848-.531a1 1 0 00-.075.145l.923.385zm.459-.735l.848.53c.079-.127.129-.27.146-.419l-.994-.11zm-33.713 41.37l.894-.448a.996.996 0 00-.08-.134l-.814.582zm-.459-.642l.814-.582a1.012 1.012 0 00-.226-.227l-.588.808zm.688 1.1l-.894.448c.035.069.077.133.126.193l.768-.64zm.459.55l-.768.641c.072.086.158.159.254.217l.514-.857zm.459.276l-.514.857a.99.99 0 00.207.094l.307-.951zm1.423.458l.614-.79a1 1 0 00-.307-.162l-.307.952zm.413.321l.878-.479a1.01 1.01 0 00-.264-.31l-.614.789zm.275.505l.987-.165a1.028 1.028 0 00-.109-.314l-.878.479zm.092.55l.966.258a.986.986 0 00.02-.422l-.986.164zm-.184.688l.817.577c.068-.097.119-.205.15-.319l-.967-.258zm-.55.78l.689.724c.047-.045.09-.094.128-.147l-.817-.577zm-1.928 1.834l-.689-.724a.99.99 0 00-.179.228l.868.496zm-.183.321l-.868-.496a.973.973 0 00-.102.253l.97.243zm-.092.367l-.97-.243a.997.997 0 00.048.631l.922-.388zm.367.871l.975-.225a1.069 1.069 0 00-.053-.163l-.922.388zm.138.597l.995.094a.977.977 0 00-.021-.319l-.974.225zm-.092.963l-.995-.095a.938.938 0 00.009.259l.986-.164zm.046.275l-.986.164a.994.994 0 00.06.215l.926-.379zm.413 1.009h1a.985.985 0 00-.075-.379l-.925.379zm0 .504l.894.448a.994.994 0 00.106-.448h-1zm-.505 1.009l.236.972a.996.996 0 00.658-.524l-.894-.448zm-1.514.367l.056.998a.966.966 0 00.179-.026l-.235-.972zm-2.432.138l-.115.993a.978.978 0 00.171.005l-.056-.998zm-1.193-.138l-.232.973a.954.954 0 00.117.02l.115-.993zm-.964-.229l-.496.868c.083.047.172.083.264.105l.232-.973zm-.321-.184l.496-.868a1.005 1.005 0 00-.568-.129l.072.997zm-.643.046l-.071-.997a.993.993 0 00-.203.036l.274.961zm-.642.184l-.275-.962a1.019 1.019 0 00-.325.161l.6.801zm-1.102.825l-.599-.8c-.025.019-.05.039-.073.06l.672.74zm-1.009.917l.485.875a1 1 0 00.187-.135l-.672-.74zm-.413.23l.303.953c.063-.02.124-.047.182-.079l-.485-.874zm-3.029.963l.177.984c.042-.008.085-.018.126-.031l-.303-.953zm-4.864.871l-.176-.984a.981.981 0 00-.211.062l.387.922zm-2.845 1.192l-.232.973a.999.999 0 00.618-.05l-.386-.923zm-.964-.229l-.747.665a.995.995 0 00.516.308l.231-.973zm-.367-.413l-.99.142a1 1 0 00.243.523l.747-.665zm-.092-.642l-.997-.078a1.08 1.08 0 00.007.22l.99-.142zm.138-1.742l.997.078a1.003 1.003 0 00-.038-.361l-.959.283zm-.23-.78l.96-.282a1.007 1.007 0 00-.205-.374l-.755.656zm-1.835-2.11l-.885.466c.036.069.08.133.131.191l.754-.657zm-.459-.871l-.961.275a.95.95 0 00.076.191l.885-.466zm-.367-1.284l.961-.275a.992.992 0 00-.075-.189l-.886.464zm-.505-.963l.886-.464a.952.952 0 00-.099-.153l-.787.617zm-1.652-2.11l-.813.582.026.035.787-.617zm-.229-.321l-.996.091c.016.177.079.346.182.491l.814-.582zm-.046-.504l-.945-.328a.992.992 0 00-.051.418l.996-.09zm.413-1.193l.945.328c.047-.137.064-.283.05-.427l-.995.099zm-.046-.458l.995-.1a.998.998 0 00-.317-.635l-.678.735zm-.597-.551l.678-.735a1.05 1.05 0 00-.145-.111l-.533.846zm-1.239-.779l-.789.614c.072.092.158.17.257.232l.532-.846zm-.321-.413l-.99-.141a1 1 0 00.201.755l.789-.614zm.046-.321l-.814-.581c-.093.13-.153.28-.176.44l.99.141zm.229-.321l-.518-.855a1 1 0 00-.295.273l.813.582zm1.285-.78l-.348-.937c-.059.022-.116.05-.17.082l.518.855zm3.213-1.192v-1a.996.996 0 00-.348.063l.348.937zm.78 0l.396-.918a.998.998 0 00-.396-.082v1zm1.698.734l-.397.918c.081.035.167.06.255.072l.142-.99zm.321.046l-.142.99c.12.017.241.012.359-.014l-.217-.976zm.413-.092l.217.976c.11-.025.216-.068.313-.128l-.53-.848zm.367-.23l.53.849c.12-.075.223-.175.302-.293l-.832-.555zm.367-.55l.832.555a.998.998 0 00.155-.713l-.987.158zm-.183-1.146l-.956-.294a1.004 1.004 0 00-.032.452l.988-.158zm.183-.597l-.64-.768a1 1 0 00-.316.474l.956.294zm.275-.229l-.28-.96a1.005 1.005 0 00-.36.192l.64.768zm8.949-2.614l-.109-.994a.998.998 0 00-.172.034l.281.96zm3.35-.367l.184-.983a1 1 0 00-.293-.01l.109.993zm.734.138l.507-.862c-.1-.059-.209-.1-.323-.121l-.184.983zm.78.458l.722-.692a1.016 1.016 0 00-.215-.17l-.507.862zm1.055 1.101l-.721.692a.888.888 0 00.108.098l.613-.79zm.826.642l.753-.659a1.023 1.023 0 00-.139-.13l-.614.79zm.322.367l.948-.316a.99.99 0 00-.196-.343l-.752.66zm.229.688l-.948.316c.023.07.053.136.091.199l.857-.515zm.275.459l-.857.514c.105.174.259.312.444.396l.413-.91zm.505.229l-.413.91a.997.997 0 00.164.058l.249-.968zm1.606.413l.588-.81a1.001 1.001 0 00-.339-.159l-.249.969zm34.585-41.186l-.949.316.138.413.949-.316.948-.317-.137-.412-.949.316zm-2.432-2.156l-.663.749 2.432 2.155.663-.748.663-.748-2.432-2.156-.663.748zm-.688-1.33l-.889.46.689 1.33.888-.46.888-.46-.688-1.33-.888.46zm-.597-3.118l-.982.188.596 3.118.983-.188.982-.187-.597-3.119-.982.188zm-1.744.459l.255.967 1.743-.459-.254-.967-.254-.967-1.744.458.254.968zm-.963-.276l-.275.962.964.275.274-.961.275-.962-.964-.275-.274.961zm-.413-.412l-.707.707.413.413.707-.708.706-.707-.413-.413-.706.708zm-1.285-1.514l-.763.648 1.285 1.513.763-.647.762-.648-1.285-1.513-.762.647zm-.367-.275l-.6.8.367.275.6-.8.599-.8-.367-.275-.599.8zm-.368-.092l-.242.97.367.092.243-.97.242-.97-.367-.092-.243.97zm-1.606.138l.086.996 1.606-.137-.086-.997-.085-.996-1.606.138.085.996zm-.55-.275l-.447.894.55.276.447-.895.447-.895-.55-.275-.447.895zm-.643-.55l-.65.759.642.55.651-.76.65-.759-.642-.55-.651.76zm-.505-.046l-.09.995.505.046.09-.995.091-.996-.505-.046-.091.996zm-.458.091l.196.98.458-.09-.196-.981-.196-.981-.458.092.196.98zm-.781.367l.426.905.78-.367-.425-.905-.426-.905-.78.367.425.905zm-.55 0v1h.55v-2h-.55v1zm-.689-.275l-.371.929.689.275.371-.929.371-.928-.688-.276-.372.93zm-.367-.046l-.124.992.367.046.124-.992.124-.992-.367-.046-.124.992zm-.321.138l.394.919.321-.138-.394-.919-.393-.919-.322.137.394.92zm-.275.32l.759.652.275-.321-.759-.651-.759-.651-.275.32.759.652zm-.78 1.285l.854.52.78-1.285-.854-.52-.855-.518-.78 1.284.855.519zm-.368.504l.809.589.367-.505-.808-.588-.809-.589-.367.505.808.588zm-1.422 1.193l.642.766 1.423-1.192-.643-.767-.642-.766-1.422 1.192.642.767zm-.688.871l.784.62.689-.871-.785-.62-.785-.62-.688.871.785.62zm-.735 1.422l.889.459.734-1.422-.888-.459-.889-.459-.734 1.422.888.459zm-.459.642l.814.581.459-.642-.814-.581-.813-.582-.459.642.813.582zm-.596.504l.646.764.596-.505-.646-.763-.645-.764-.597.505.646.763zm-1.101.596l.476.88 1.101-.596-.476-.88-.476-.88-1.101.597.476.88zm-.505.367l.588.81.505-.368-.588-.808-.588-.81-.505.367.588.81zm-.826.78l.686.727.826-.78-.686-.727-.687-.727-.826.78.687.727zm-.597.459l.61.792.596-.458-.609-.793-.61-.793-.596.459.609.793zm-2.478 1.192l.434.901 2.478-1.192-.434-.901-.433-.901-2.478 1.192.433.901zm-2.753 1.834l.554.833 2.754-1.835-.555-.832-.554-.832-2.754 1.834.555.833zm-6.057 1.56l.249.968 6.057-1.56-.249-.968-.249-.968-6.058 1.56.25.968zm-1.194.137l.115.994 1.193-.138-.114-.993-.115-.994-1.193.138.114.993zm-.596-.091l-.152.988.597.092.151-.989.152-.988-.596-.092-.152.989zm-.321-.413l-.789.614.321.413.789-.614.789-.614-.321-.413-.789.614zm-.23-1.193l-.982.19.23 1.192.982-.19.982-.188-.23-1.193-.982.19zm-.229-.55l-.923.385.229.55.923-.385.923-.384-.229-.55-.923.384zm-.321-.183l-.496.868.321.183.496-.868.496-.868-.322-.184-.495.869zm-.459-.046l-.1.995.459.046.1-.995.099-.995-.459-.046-.099.995zm-1.056.046l.044.999 1.055-.046-.043-1-.044-.998-1.055.046.043.999zm-1.285-.184l-.141.99 1.285.184.141-.99.142-.99-1.285-.184-.142.99zm-3.028.046l.015 1 3.028-.046-.015-1-.015-1-3.028.046.015 1zm-.735.23l.299.954.734-.23-.298-.954-.298-.954-.735.229.298.954zm-.458.32l.573.82.459-.321-.574-.82-.573-.819-.459.321.574.82zm-.459.78l.861.507.459-.78-.861-.506-.862-.508-.459.78.862.507zm-.138.871l.988.156.137-.87-.987-.157-.988-.156-.138.871.988.157zm0 .642h1v-.642h-2v.642h1zm-.092.872l.995.105.092-.872-.995-.105-.994-.104-.092.871.994.105zm-.229.825l.963.268.23-.825-.964-.268-.963-.268-.23.826.964.267zm-.23.459l.895.447.229-.458-.894-.448-.895-.447-.229.459.894.447zm-.413.321l.614.79.413-.322-.614-.789-.613-.79-.413.322.613.789zm-.55.321l.503.864.551-.321-.504-.864-.503-.864-.551.321.504.864zm-1.974 1.651l.642.767 1.973-1.651-.641-.767-.642-.767-1.973 1.651.641.767zm-1.009.504l.447.895 1.009-.504-.447-.895-.447-.895-1.009.505.447.894zm-.688-.137l-.196.98.688.138.196-.98.196-.981-.688-.138-.196.98zm-.918-.413l-.41.912.917.413.411-.912.41-.912-.918-.413-.41.912zm-.551-.092l-.164.987.55.092.165-.987.164-.986-.551-.092-.164.986zm-.229.23l.707.707.229-.23-.707-.707-.707-.707-.229.23.707.707zm-.092.412l.976.218.092-.413-.976-.217-.976-.217-.092.412.976.218zm.138.413l.948-.316-.137-.413-.949.316-.949.317.138.413.949-.317zm.413 1.376l.957-.287-.413-1.376-.957.287-.958.288.413 1.376.958-.288zm0 .413h1v-.413h-2v.413h1zm-.046 1.009l.999.045.046-1.009-.999-.045-.999-.046-.046 1.01.999.045zm.413 1.467l.962-.27-.413-1.468-.962.27-.963.272.413 1.467.963-.27zm-.046.642l.997.072.046-.642-.997-.072-.998-.071-.046.642.998.071zm-.367.505l.808.588.367-.504-.808-.589-.809-.588-.367.504.809.589zm-.459 1.238l.937.348.459-1.239-.937-.347-.938-.348-.459 1.239.938.347zm-.551.78l.817.577.551-.78-.817-.577-.817-.577-.551.78.817.577zm-.551.32l.504.865.551-.321-.504-.864-.504-.864-.55.32.503.865zm-.504.093l.178.983.505-.091-.179-.984-.178-.984-.505.092.179.984zm-1.193-.092l-.077.997 1.193.092.077-.997.076-.998-1.193-.091-.076.997zm-1.928.183l.095.996 1.927-.184-.094-.995-.095-.996-1.928.184.095.995zm-.505.138l.263.965.505-.138-.263-.965-.263-.965-.505.138.263.965zm-.55.367l.554.832.551-.367-.555-.832-.554-.832-.551.367.555.832zm-1.469 1.238l.645.764 1.468-1.238-.644-.764-.645-.765-1.468 1.238.644.765zm-.872.321l.346.938.872-.32-.346-.94-.345-.938-.872.322.345.938zm-2.202-.825l-.351.936 2.202.825.351-.936.351-.936-2.202-.826-.351.937zm-5.323.917l.169.985 5.324-.917-.17-.985-.17-.986-5.323.917.17.986zm-1.377-.184l-.132.992 1.377.183.132-.991.132-.992-1.377-.183-.132.991zm-1.56-.55l-.333.943 1.56.55.333-.943.333-.943-1.561-.55-.332.943zm-1.698-.367l-.211.978 1.698.366.211-.977.211-.978-1.698-.366-.211.977zm-2.799.092l.032 1 2.8-.093-.033-.999-.033-1-2.799.092.033 1zm-.826.229l.267.964.826-.23-.267-.963-.268-.964-.826.23.268.963zm-.551.23l.384.922.551-.229-.384-.923-.385-.923-.55.23.384.922zm-.275.458l.857.515.275-.459-.857-.515-.857-.514-.276.458.858.515zm-.138.459l.958.287.137-.459-.957-.287-.958-.288-.138.46.958.287zm-.092 1.054l.996.087.092-1.055-.996-.086-.996-.087-.092 1.055.996.086zm.092.642l.99-.141-.092-.642-.99.141-.99.142.092.642.99-.142zm-.184.78l.974.23.183-.78-.973-.23-.973-.229-.184.78.973.23zm-.367.596l.852.525.367-.597-.852-.524-.851-.524-.367.596.851.524zm-.55.23l.384.923.551-.23-.385-.923-.384-.923-.551.23.385.923zm-.551.045l.083.997.551-.046-.083-.996-.083-.997-.551.046.083.996zm-.918-.045l-.05.998.918.046.05-.999.05-.998-.918-.046-.05.999zm-.642.229l.336.942.642-.23-.336-.941-.336-.942-.642.23.336.94zm-4.038 2.522l.529.848 4.039-2.522-.53-.848-.53-.848-4.038 2.522.53.848zm-.826 1.055l.787.617.826-1.055-.787-.617-.788-.616-.826 1.055.788.616zm-.368.413l.748.664.367-.412-.747-.665-.748-.665-.367.413.747.665zm-.78.596l.608.794.78-.596-.608-.794-.607-.795-.78.596.607.795zm-.459.092l.196.98.459-.091-.196-.981-.196-.98-.459.091.196.98zm-.504-.184l-.342.94.505.183.341-.94.342-.94-.505-.183-.341.94zm-.459-.367l-.625.781.459.367.625-.78.624-.782-.459-.367-.624.781zm-.551-.229l-.384.923.55.23.385-.924.384-.923-.551-.23-.384.924zm-.551.046l.083.997.551-.046-.083-.997-.083-.996-.551.045.083.997zm-6.47 3.394l.465.885 6.47-3.394-.465-.885-.464-.886-6.47 3.394.464.886zm-1.193.32l.26.966 1.193-.32-.26-.966-.26-.966-1.193.321.26.966zm-.321 0v1h.321v-2h-.321v1zm-.689-.32l-.422.906.688.32.423-.905.422-.907-.688-.32-.423.906zm-.458-.092l-.196.98.458.092.196-.98.196-.981-.458-.092-.196.98zm-.735 0v1h.735v-2h-.735v1zm-.55.183l.316.95.55-.184-.316-.95-.316-.948-.55.184.316.948zm-.735.505l.567.824.734-.505-.566-.824-.567-.824-.734.505.566.824zm-.642.642l.707.707.642-.642-.707-.707-.707-.707-.642.642.707.707zm-2.891 1.88l.545.839 2.891-1.88-.545-.84-.545-.837-2.891 1.88.545.838zm-3.992 1.651l.382.924 3.992-1.65-.382-.925-.382-.924-3.993 1.651.383.924zm-.78.459l.506.862.78-.459-.506-.862-.507-.862-.78.459.507.862zm-.368.458l.781.625.367-.458-.78-.625-.781-.625-.367.458.78.625zm-.917 1.422l.84.542.918-1.421-.84-.543-.84-.542-.918 1.422.84.542zm-.643 1.56l.925.38.642-1.559-.924-.38-.925-.382-.642 1.56.924.38zm-.642.825l.789.614.642-.826-.789-.614-.789-.614-.642.826.789.614zm-.78.55l.576.817.78-.55-.576-.817-.577-.817-.78.55.577.817zm-1.744 1.743l.707.707 1.743-1.742-.706-.708-.707-.707-1.744 1.743.707.707zm-.688.32l.422.907.688-.321-.422-.906-.423-.906-.688.32.423.907zm-1.056.276l.252.968 1.056-.275-.252-.968-.253-.968-1.055.275.252.968zm-.826.459l.486.874.826-.459-.486-.874-.485-.874-.826.458.485.875zm-.734 1.009l.808.588.735-1.009-.809-.588-.809-.589-.734 1.009.809.589zm.826 2.109l.931-.364-.826-2.11-.931.365-.931.364.826 2.11.93-.365zm0 1.009h1v-1.009h-2v1.009h1zm-.46 1.101l.924.385.459-1.101-.923-.385-.923-.385-.46 1.101.924.385zm-.274.734l.936.351.275-.734-.936-.351-.936-.351-.276.733.937.352zm0 .458h1v-.458h-2v.458h1zm.229.321l.814-.581-.23-.321-.813.581-.814.582.23.321.813-.582zm.367.138l.351-.937-.367-.137-.351.936-.35.937.366.137.351-.936zm.689.046l.066-.998-.688-.046-.067.998-.066.998.688.045.067-.997zm.734-.184l-.243-.97-.734.184.243.97.242.97.734-.184-.242-.97zm1.376-.779l-.492-.871-1.377.78.493.87.493.87 1.376-.779-.493-.87zm.735-.092l-.124-.992-.735.091.124.993.124.992.735-.092-.124-.992zm.917.367l.372-.929-.918-.367-.371.929-.372.928.918.367.371-.928zm1.102.275l.242-.97-1.101-.275-.243.97-.242.97 1.101.275.243-.97zm1.193.55l.419-.908-1.193-.55-.42.908-.418.908 1.193.55.419-.908zm3.258 3.165l.697-.718-3.259-3.164-.696.717-.697.718 3.258 3.164.697-.717zm.596.412l.569-.822-.596-.413-.569.823-.569.822.597.413.568-.823zm1.239.138l.111-.994-1.239-.137-.111.993-.11.994 1.239.138.11-.994zm.918-.092l-.099-.995-.918.092.099.995.1.995.918-.092-.1-.995zm.918-.229l-.242-.97-.918.229.242.97.243.97.917-.229-.242-.97zm.551-.046l-.083-.996-.551.045.083.997.083.997.551-.046-.083-.997zm.688.046l.067-.998-.689-.046-.066.998-.067.998.689.046.066-.998zm1.285.367l.275-.962-1.285-.367-.275.962-.275.962 1.285.366.275-.961zm.734.367l.447-.895-.734-.367-.447.895-.447.894.734.367.447-.894zm.597.367l.524-.852-.597-.367-.524.852-.524.852.597.366.524-.851zm1.744 1.972l.749-.663-1.744-1.972-.749.663-.749.662 1.743 1.972.75-.662zm.458.367l.625-.781-.459-.367-.624.781-.625.781.459.367.624-.781zm.413.229l.486-.874-.413-.23-.486.875-.485.874.413.229.485-.874zm2.249.688l.293-.956-2.249-.688-.293.956-.292.956 2.248.688.293-.956zm.413.275l.554-.832-.413-.275-.554.832-.555.832.413.275.555-.832zm.275.413l.832-.555-.275-.413-.832.555-.832.555.275.413.832-.555zm.23.871l.967-.255-.23-.871-.967.255-.967.254.23.872.967-.255zm3.533 1.835l.461-.888-3.534-1.834-.46.887-.461.888 3.533 1.834.461-.887zm.597.596l.707-.708-.597-.596-.707.708-.707.707.597.596.707-.707zm.321.504l.843-.537-.321-.504-.843.537-.844.537.321.504.844-.537zm-.138.367l.937.351.137-.367-.936-.351-.936-.351-.138.367.936.351zm0 .917h1v-.917h-2v.917h1zm.092.551l.986-.165-.091-.55-.987.164-.986.165.092.55.986-.164zm.688 2.247l.957-.293-.689-2.247-.956.293-.956.292.688 2.248.956-.293zm.046.504l.996-.09-.046-.505-.996.091-.995.09.045.505.996-.091zm-.091.459l.98.196.092-.458-.981-.197-.98-.196-.092.459.981.196zm-.826.367l.405.914.826-.367-.405-.914-.406-.914-.826.367.406.914zm-.826.091l.11.994.826-.091-.11-.994-.111-.994-.826.092.111.993zm-.322.505l.844.537.321-.504-.843-.538-.844-.537-.321.505.843.537zm0 1.834h1v-1.834h-2v1.834h1zm-.137.688l.98.197.138-.688-.981-.197-.98-.196-.138.688.981.196zm-.826 2.156l.933.358.826-2.156-.933-.358-.934-.358-.826 2.156.934.358zm.046.688l.997-.067-.046-.688-.997.067-.998.066.046.688.998-.066zm.229 1.055l.977-.213-.229-1.055-.977.213-.978.212.23 1.055.977-.212zm-.046.504l.996.091.046-.505-.996-.09-.996-.091-.046.504.996.091zm-.688 2.339l.959.282.688-2.339-.959-.282-.959-.282-.689 2.339.96.282zm-.092.55l.986.165.092-.551-.986-.164-.987-.165-.091.551.986.164zm-.046.596l.997.077.046-.596-.997-.077-.997-.077-.046.597.997.076zm.275.413l.832-.555-.275-.413-.832.555-.832.555.275.413.832-.555zm.643.275l.394-.919-.643-.275-.394.919-.393.919.642.276.394-.92zm.505.275l.478-.878-.505-.275-.478.878-.479.878.505.276.479-.879zm.137.367l.937-.351-.138-.367-.936.351-.937.352.138.367.936-.352zm.046.321l.99-.141-.046-.321-.99.141-.99.142.046.321.99-.142zm-.229.459l.894.447.229-.458-.894-.448-.894-.447-.23.459.895.447zm-1.698 1.88l.742.671 1.698-1.881-.742-.67-.742-.67-1.698 1.88.742.67zm-.505.505l.707.707.505-.504-.707-.708-.707-.707-.505.504.707.708zm-.505.275l.479.878.505-.275-.479-.878-.479-.878-.504.275.478.878zm-2.019.459l.222.975 2.019-.459-.222-.975-.221-.975-2.019.458.221.976zm-.826.366l.406.914.826-.367-.406-.913-.406-.914-.826.367.406.913zm-.78.505l.543.84.78-.505-.543-.84-.543-.839-.78.504.543.84zm-.78.78l.707.707.78-.78-.707-.707-.707-.707-.78.779.707.708zm-.367.458l.781.625.367-.459-.781-.624-.781-.625-.367.458.781.625zm-.184.505l.94.342.184-.505-.94-.342-.94-.342-.183.505.939.342zm.276.458l.857-.514-.275-.459-.858.515-.857.514.275.459.858-.515zm1.009.917l.673-.74-1.01-.917-.672.74-.673.74 1.01.918.672-.741zm.092.367l.97-.242-.092-.367-.97.242-.97.243.092.367.97-.243zm-.092.321l.962.275.091-.321-.961-.275-.962-.275-.091.322.961.274zm-.55.321l.503.864.551-.321-.504-.864-.503-.864-.551.321.504.864zm-.413.321l.613.79.413-.321-.613-.79-.614-.789-.413.321.614.789zm0 .138h1v-.138h-2v.138h1zm.871.55l.534-.845-.872-.551-.533.846-.534.846.872.55.533-.846zm.23.551l.923-.385-.23-.55-.923.384-.923.385.23.551.923-.385zm-.138.275l.894.447.138-.275-.894-.447-.894-.448-.138.275.894.448zm-.596.596l.707.707.596-.596-.707-.707-.707-.707-.596.596.707.707zm-.046.367l.992.124.046-.367-.992-.124-.993-.124-.046.367.993.124zm.183.825l.976-.217-.183-.825-.976.217-.976.217.183.825.976-.217zm.23.367l.848-.53-.23-.367-.848.53-.848.531.23.367.848-.531zm.367.23l.53-.848-.367-.23-.53.848-.53.848.367.23.53-.848zm.642.275l.394-.919-.642-.276-.394.92-.394.919.643.275.393-.919zm.459.321l.573-.82-.458-.321-.574.82-.573.819.459.321.573-.819zm.597.688l.755-.655-.596-.688-.756.655-.755.655.596.688.756-.655zm.229.55l.923-.385-.229-.55-.923.385-.923.385.229.55.923-.385zm.138.55l.97-.242-.138-.551-.97.243-.97.243.138.55.97-.243zm-.046 2.614l1 .018.046-2.614-1-.018-1-.017-.046 2.614 1 .017zm.092 1.055l.996-.086-.092-1.055-.996.086-.996.087.091 1.055.997-.087zm.183.642l.962-.275-.184-.642-.961.275-.962.275.184.642.961-.275zm.23.459l.894-.447-.229-.459-.895.447-.894.448.229.458.895-.447zm.642.825l.789-.614-.642-.825-.789.614-.789.614.642.826.789-.615zm.459.688l.832-.555-.459-.687-.832.554-.832.555.459.688.832-.555zm.138.734l.983-.184-.138-.734-.983.184-.983.185.138.734.983-.185zm0 .596h1v-.596h-2v.596h1zm-.184 1.009l.984.179.184-1.009-.984-.179-.984-.179-.184 1.009.984.179zm-.505 1.56l.952.308.505-1.56-.952-.308-.951-.308-.505 1.56.951.308zm0 .963h1v-.963h-2v.963h1zm3.947-2.293l-.503-.865-3.946 2.293.502.865.503.864 3.946-2.293-.502-.864zm.688 0v-1h-.688v2h.688v-1zm.78.55l.577-.817-.78-.551-.577.818-.576.817.78.55.576-.817zm.367.137l.351-.936-.367-.137-.351.936-.351.936.367.138.351-.937zm1.423.046l.032-.999-1.422-.046-.033.999-.032 1 1.423.046.032-1zm.826.276l.316-.949-.826-.275-.316.948-.316.949.826.275.316-.948zm.413.275l.554-.833-.413-.275-.554.833-.555.832.413.275.555-.832zm1.193.688l.5-.867-1.194-.688-.499.867-.5.866 1.194.688.499-.866zm.597.091l.152-.988-.597-.092-.152.989-.152.988.597.092.152-.989zm.688-.091l-.132-.992-.688.092.132.991.132.992.688-.092-.132-.991zm1.239-.642l-.46-.888-1.239.642.46.888.46.887 1.239-.642-.46-.887zm.872-.551l-.534-.845-.872.55.534.846.534.845.872-.55-.534-.846zm3.258-1.009l-.296-.955-3.258 1.009.296.955.296.955 3.258-1.008-.296-.956zm.367-.367l-.707-.707-.367.367.707.707.707.708.367-.367-.707-.708zm.367-1.192l-.956-.294-.367 1.192.956.294.956.295.367-1.193-.956-.294zm.367-.734l-.894-.447-.367.734.894.447.895.447.367-.733-.895-.448zm.413-.367l-.664-.747-.413.367.664.747.664.748.413-.367-.664-.748zm.78-.412l-.467-.884-.78.412.467.884.468.884.78-.413-.468-.883zm.459-.092l-.196-.981-.459.092.196.981.196.98.459-.092-.196-.98zm.505.092l.179-.984-.505-.092-.179.984-.178.984.504.091.179-.983zm.688.366l.471-.882-.689-.367-.47.883-.47.882.688.367.47-.883zm.826.643l.614-.79-.826-.642-.614.789-.613.79.826.642.613-.789zm.413.137l.316-.949-.413-.137-.316.949-.316.948.413.138.316-.949zm1.285.092l.072-.998-1.285-.091-.072.997-.071.998 1.285.091.071-.997zm.872.321l.346-.939-.872-.321-.346.939-.345.938.872.321.345-.938zm1.79.046l.026-1-1.79-.046-.026 1-.025 1 1.789.045.026-.999zm3.946-.505l-.126-.992-3.947.505.127.992.127.992 3.946-.505-.127-.992zm1.331-.55l-.382-.924-1.331.55.382.924.382.924 1.331-.55-.382-.924zm1.239-1.238l-.707-.708-1.239 1.239.707.707.707.707 1.239-1.238-.707-.707zm.597-.275l-.419-.909-.597.276.419.908.419.908.597-.275-.419-.908zm.826-.184l-.217-.976-.826.183.217.977.216.976.826-.184-.216-.976zm1.055 0v-1h-1.055v2h1.055v-1zm.826.229l.268-.963-.826-.23-.268.964-.267.964.826.229.267-.964zm.597.413l.569-.822-.597-.413-.569.822-.569.823.597.412.569-.822zm.229.688l.949-.316-.23-.688-.948.316-.949.317.229.687.949-.316zm.275.413l.832-.555-.275-.413-.832.555-.832.555.276.413.831-.555zm.781.275l.332-.943-.78-.275-.333.943-.332.943.78.275.333-.943zm.55.504l.676-.737-.551-.504-.675.737-.676.737.551.505.675-.738zm.459.688l.832-.555-.459-.688-.832.555-.832.555.459.688.832-.555zm.321.275l.651-.759-.321-.275-.651.759-.65.76.321.275.65-.76zm.505.23l.414-.911-.505-.229-.414.91-.413.911.505.229.413-.91zm.505.046l.09-.996-.504-.046-.091.996-.09.996.504.046.091-.996zm.688-.092l-.132-.991-.688.091.132.992.132.991.688-.092-.132-.991zm3.167-1.789l-.492-.87-3.167 1.788.492.871.492.871 3.166-1.789-.491-.871zm.55-.091l-.164-.987-.551.092.165.986.164.987.551-.092-.165-.986zm.872-.046l-.052-.999-.872.046.052.999.053.998.872-.046-.053-.998zm.872.229l.254-.967-.872-.229-.254.967-.254.967.872.229.254-.967zm1.147.596l.461-.887-1.147-.596-.461.887-.461.887 1.147.597.461-.888zm1.239.184l.147-.989-1.239-.184-.147.989-.146.989 1.239.184.146-.989zm7.526-.321l-.043-.999-7.525.321.042.999.043.999 7.526-.321-.043-.999zm.872.229l.254-.967-.872-.229-.254.967-.254.967.872.229.254-.967zm-.092.596l.988.152.092-.596-.988-.152-.988-.152-.092.596.988.152zm.138.413l.948-.316-.137-.413-.949.316-.948.317.137.412.949-.316zm1.606.229l.141-.99-1.606-.229-.141.99-.142.99 1.607.229.141-.99zm.734-.091l-.124-.993-.734.092.124.992.124.993.734-.092-.124-.992zm.734-.184l-.242-.97-.734.183.242.971.243.97.734-.184-.243-.97zm1.606-1.055l-.548-.836-1.607 1.055.549.836.549.836 1.606-1.055-.549-.836zm1.01-1.009l-.707-.707-1.009 1.009.706.707.707.708 1.01-1.009-.707-.708zm.459-.229l-.447-.895-.459.23.447.894.447.895.459-.229-.447-.895zm2.203-.459l-.204-.979-2.203.459.204.979.204.979 2.202-.459-.203-.979zm.917-.733l-.624-.781-.918.733.625.781.624.781.918-.733-.625-.781zm.459-.642l-.813-.582-.459.642.813.582.814.581.459-.642-.814-.581zm.138-2.752l-.999-.05-.137 2.752.998.05.999.05.138-2.752-.999-.05zm.138-.642l-.978-.21-.138.642.978.21.978.21.137-.642-.977-.21zm.413-.826l-.895-.447-.413.825.895.448.894.447.413-.825-.894-.448zm.458-.688l-.831-.554-.459.687.832.555.831.555.459-.688-.832-.555zm.872-.733l-.644-.765-.871.733.643.765.644.766.872-.734-.644-.765zm.551-.046l-.083-.997-.551.046.083.997.083.996.551-.046-.083-.996zm.367.413l.747-.665-.367-.413-.747.665-.747.664.367.413.747-.664zm.505.642l.786-.618-.505-.642-.786.618-.786.618.505.642.786-.618zm.596.458l.61-.793-.597-.458-.609.793-.61.792.597.459.609-.793zm1.974.596l.289-.957-1.973-.596-.29.957-.289.957 1.973.597.29-.958zm.367.321l.658-.752-.367-.321-.658.752-.659.753.368.321.658-.753zm.229.413l.874-.486-.229-.412-.874.485-.874.486.229.413.874-.486zm.092.917l.995-.099-.092-.917-.995.099-.995.1.092.917.995-.1zm.321.23l.581-.814-.321-.229-.581.813-.581.814.321.23.581-.814zm.689.091l.132-.991-.689-.092-.132.992-.132.991.689.092.132-.992zm1.33-.275l-.202-.979-1.331.275.203.979.202.98 1.331-.275-.203-.98zm.826.321l.363-.932-.826-.321-.363.932-.362.932.826.321.362-.932zm.413.275l.555-.832-.413-.275-.555.832-.554.833.413.275.554-.833zm.597 1.468l.926-.377-.596-1.467-.927.376-.926.377.597 1.468.926-.377zm.275.413l.832-.555-.275-.413-.832.555-.832.555.275.413.832-.555zm.689.688l.707-.708-.689-.688-.707.708-.707.707.689.688.707-.707zm.596.321l.474-.881-.597-.321-.473.881-.474.88.596.321.474-.88zm.459-.092l-.196-.981-.459.092.196.981.196.98.459-.091-.196-.981zm.551-.229l-.385-.923-.55.229.384.923.384.923.551-.229-.384-.923zm.78-.688l-.662-.75-.78.688.662.75.661.75.78-.688-.661-.75zm.275-.505l-.878-.479-.275.505.878.479.878.479.275-.505-.878-.479zm.321-.825l-.932-.363-.321.826.932.362.932.363.321-.826-.932-.362zm.413-.642l-.841-.541-.413.642.841.541.841.541.413-.642-.841-.541zm1.285-.688l-.472-.882-1.285.688.472.882.472.881 1.285-.688-.472-.881zm.276-.505l-.878-.479-.275.505.877.479.878.479.275-.505-.877-.479zm-.23-.825l-.963.268.229.825.964-.268.963-.267-.229-.826-.964.268zm.046-.275l-.986-.165-.046.275.986.165.987.164.045-.275-.986-.164zm.321-.459l-.819-.574-.321.459.819.574.819.573.321-.458-.819-.574zm.322-.046l-.142-.99-.321.046.141.99.142.99.321-.046-.141-.99zm.55.046l.083-.996-.551-.046-.082.996-.083.997.55.046.083-.997zm2.662 1.147l.395-.919-2.661-1.146-.396.918-.395.919 2.661 1.146.396-.918zm.734.045l.062-.998-.734-.045-.062.998-.063.998.735.046.062-.999zm.918-.091l-.1-.995-.917.091.099.995.099.996.918-.092-.099-.995zm1.606-.505l-.3-.954-1.606.505.3.954.299.954 1.607-.505-.3-.954zm1.973.046l.023-1-1.973-.045-.023.999-.023 1 1.973.046.023-1zm1.147.505l.403-.916-1.147-.504-.403.915-.402.916 1.147.504.402-.915zm1.928-.321l-.165-.987-1.927.321.164.987.165.986 1.927-.321-.164-.986zm5.277-2.569l-.438-.899-5.277 2.568.438.9.437.899 5.277-2.568-.437-.9zm.183-1.238l-.989-.147-.183 1.239.989.146.989.147.184-1.238-.99-.147zm-.183-1.146l-.988.158.184 1.146.987-.158.988-.158-.184-1.146-.987.158zm-.321-.918l-.944.331.321.917.944-.33.944-.331-.322-.917-.943.33zm-.367-.596l-.852.525.367.596.852-.525.851-.524-.367-.596-.851.524zm-.368-.413l-.747.665.367.413.748-.665.747-.664-.367-.413-.748.664zm-3.074-2.293l-.598.802 3.075 2.293.597-.802.598-.801-3.074-2.293-.598.801zm-.321-.412l-.79.614.322.413.789-.615.789-.614-.321-.413-.789.615zm-.092-.459l-.981.196.092.459.981-.196.98-.197-.092-.458-.98.196zm.183-.78l-.973-.229-.184.78.974.229.973.229.184-.779-.974-.23zm.322-.55l-.864-.504-.321.55.863.504.864.504.321-.55-.863-.504zm1.56-1.789l-.754-.657-1.56 1.789.754.657.753.657 1.56-1.788-.753-.658zm.551-.825l-.832-.555-.551.826.832.554.832.555.55-.825-.831-.555zm.183-.413l-.914-.406-.183.413.914.406.913.406.184-.412-.914-.407zm.184-.871l-.979-.206-.183.871.978.206.979.206.183-.871-.978-.206zm.367-.826l-.914-.406-.367.826.914.406.913.406.367-.825-.913-.407zm.55-.596l-.734-.678-.551.596.735.678.734.679.551-.596-.735-.679zm.551-.183l-.316-.949-.551.183.316.949.316.949.551-.184-.316-.948zm.367.046l.124-.993-.367-.046-.124.993-.124.992.367.046.124-.992zm.872.55l.534-.846-.872-.55-.534.846-.534.845.872.551.534-.846zm.367.092l.243-.971-.368-.091-.242.97-.242.97.367.092.242-.97zm.551-.092l-.164-.986-.551.091.164.987.164.986.551-.092-.164-.986zm2.753-1.651l-.514-.858-2.753 1.651.514.858.514.858 2.753-1.651-.514-.858zm2.386-.917l-.358-.934-2.387.918.359.933.359.933 2.386-.917-.359-.933zm2.387-2.156l-.671-.742-2.386 2.156.67.742.671.742 2.386-2.156-.67-.742zm.413-.229l-.486-.874-.413.229.486.874.485.875.413-.23-.485-.874zm1.743.275l.156-.988-1.743-.275-.156.988-.156.988 1.744.275.155-.988zm.918-.183l-.196-.981-.918.184.196.98.196.981.918-.184-.196-.98zm.551-.275l-.447-.895-.551.275.447.895.447.894.551-.275-.447-.894zm.413-.367l-.664-.748-.413.367.664.748.664.747.413-.367-.664-.747zm.229-.367l-.848-.53-.229.366.848.531.848.53.229-.367-.848-.53zm.184-.459l-.929-.371-.183.458.928.372.929.371.183-.458-.928-.372zm.275-1.697l-.987-.16-.275 1.697.987.16.987.16.275-1.697-.987-.16zm.23-.825l-.964-.268-.229.825.963.268.964.268.229-.825-.963-.268zm.55-1.009l-.877-.479-.551 1.009.878.479.877.479.551-1.009-.878-.479zm.735-.688l-.684-.73-.734.688.683.73.684.73.734-.688-.683-.73zm.688-.229l-.316-.949-.689.229.317.949.316.949.688-.23-.316-.948zm.275-.276l-.707-.707-.275.275.707.708.707.707.275-.275-.707-.708zm.092-.55l-.986-.164-.092.55.986.164.987.165.091-.55-.986-.165zm-.046-1.101l-.999.042.046 1.101.999-.042.999-.042-.046-1.1-.999.041zm.092-.871l-.995-.105-.091.872.994.104.995.105.091-.871-.994-.105zm.092-.825l-.994-.111-.092.826.994.11.994.111.092-.826-.994-.11zm.275-1.101l-.97-.243-.275 1.101.97.243.97.242.275-1.1-.97-.243zm.321-1.009l-.953-.303-.321 1.009.953.303.953.303.321-1.009-.953-.303zm.23-1.192l-.982-.189-.23 1.192.982.189.982.189.23-1.192-.982-.189zm.046-2.11l-1-.022-.046 2.11 1 .022.999.021.046-2.109-.999-.022zm.045-.413l-.993-.11-.046.413.994.11.993.11.046-.412-.994-.111zm.413-1.238l-.948-.316-.413 1.238.948.316.949.317.413-1.239-.949-.316zm-.091-.504l-.984.179.092.504.983-.179.984-.179-.092-.504-.983.179zm-.643-.78l-.772.636.643.779.772-.635.771-.636-.642-.78-.772.636zm-.505-.413l-.633.774.505.413.633-.774.633-.774-.505-.413-.633.774zm-.458-.229l-.447.894.458.23.447-.895.447-.894-.458-.23-.447.895zm-.918-.229l-.243.97.918.229.243-.97.242-.97-.918-.23-.242.971zm-.505-.413l-.633.774.505.413.633-.774.633-.775-.505-.412-.633.774zm-2.478-2.385l-.693.721 2.478 2.384.693-.72.693-.721-2.478-2.385-.693.721zm-.505-.321l-.536.844.504.321.537-.844.537-.844-.505-.321-.537.844zm-2.294-.734l-.305.953 2.295.733.304-.952.305-.952-2.295-.734-.304.952zm-1.56-1.055l-.561.829 1.561 1.055.56-.829.56-.828-1.56-1.055-.56.828zm-.505-.504l-.707.707.505.505.707-.708.706-.707-.504-.504-.707.707zm-.78-1.238l-.846.533.78 1.238.846-.533.846-.533-.78-1.238-.846.533zm.321-.505l-.844-.537-.321.505.844.537.843.537.321-.505-.843-.537zm1.239-.596l-.434-.901-1.239.596.434.901.433.901 1.239-.596-.433-.901zm1.377-.367l-.258-.966-1.377.367.258.966.257.966 1.377-.367-.257-.966zm.642.046l.071-.997-.642-.046-.071.997-.072.998.643.045.071-.997zm.138-1.468l-.996-.093-.138 1.468.996.093.996.093.137-1.467-.995-.094zm0-.366h-1v.366h2v-.366h-1zm-.367-1.743l-.979.206.367 1.743.979-.206.978-.207-.367-1.742-.978.206zm0-.551h-1v.551h2v-.551h-1zm.275-.642l-.919-.394-.276.642.92.394.919.395.275-.642-.919-.395zm1.101-1.1l-.707-.708-1.101 1.101.707.707.707.708 1.101-1.101-.707-.707zm.184-.275l-.832-.555-.184.275.832.555.832.555.184-.275-.832-.555zm-.046-.459l-.995.1.046.458.995-.1.995-.099-.046-.459-.995.1zm-.275-.642l-.92.394.276.642.919-.394.919-.394-.275-.642-.919.394zm-.872-1.33l-.837.548.872 1.33.837-.548.836-.548-.872-1.33-.836.548zm-.643-.78l-.772.636.643.78.772-.636.771-.636-.642-.78-.772.636zm-.505-.55l-.737.676.505.55.737-.676.737-.676-.505-.55-.737.676zm-1.101-.734l-.554.832 1.101.734.554-.832.555-.832-1.101-.734-.555.832zm-.367-.596l-.852.524.368.597.851-.525.852-.524-.367-.596-.852.524zm.046-.504l-.996-.091-.046.504.996.091.996.09.046-.504-.996-.09zm.092-.321l-.962-.275-.092.32.962.276.961.275.092-.322-.961-.274zm1.101-1.147l-.721-.693-1.102 1.147.722.693.721.692 1.101-1.146-.721-.693zm.275-.459l-.857-.514-.275.458.857.515.857.515.276-.459-.858-.515zm.23-.688l-.949-.316-.229.688.948.316.949.317.229-.688-.948-.317zm-.138-.596l-.974.225.137.597.975-.226.974-.225-.138-.596-.974.225zm-1.055-3.026l-.945.329 1.056 3.027.944-.33.944-.329-1.055-3.027-.944.33zm-.276-1.101l-.97.242.276 1.101.97-.242.97-.243-.276-1.1-.97.242zm-.183-.872l-.979.207.184.87.978-.205.979-.206-.184-.872-.978.206zm0-1.421h-1v1.421h2v-1.421h-1zm-.23-1.835l-.992.124.23 1.835.992-.124.992-.124-.229-1.835-.993.124zm-.229-.596l-.933.36.229.596.933-.36.934-.359-.23-.596-.933.36zm-.275-.596l-.908.42.275.595.908-.419.908-.42-.276-.595-.907.419zm-.597-.504l-.646.763.597.505.646-.764.645-.764-.596-.504-.646.764zm-.413-.23l-.485.874.413.23.485-.874.485-.875-.413-.23-.485.875zm-.505 0v1h.505v-2h-.505v1zm-2.799.321l.114.994 2.799-.321-.114-.994-.114-.993-2.799.32.114.994zm-1.836-.413l-.219.976 1.836.413.219-.976.219-.975-1.835-.413-.22.975zm-.596-.045l-.077.997.597.045.076-.997.077-.997-.596-.046-.077.998zm-1.285.275l.209.978 1.285-.276-.209-.977-.21-.978-1.284.275.209.978zm-.964 0v1h.964v-2h-.964v1zm-.367-.184l-.447.895.367.183.447-.894.447-.895-.367-.183-.447.894zm-.367-.412l-.747.664.367.413.747-.665.747-.664-.367-.413-.747.665zm-.229-.55l-.923.384.229.55.923-.384.923-.385-.229-.55-.923.384zm-.184-1.193l-.988.152.183 1.192.989-.152.988-.152-.184-1.192-.988.152zm-.275-.871l-.954.3.276.872.953-.301.954-.301-.276-.872-.953.302zm-.597-.918l-.838.546.596.917.839-.546.838-.545-.597-.917-.838.545zm-.413-.412l-.707.707.413.413.707-.708.707-.707-.413-.413-.707.707zm-.413-.276l-.554.833.413.275.554-.832.555-.833-.413-.275-.555.832zm-3.35-1.467l-.401.916 3.35 1.467.401-.916.401-.916-3.349-1.467-.402.916zm-.183-.092l-.447.895.183.091.447-.894.447-.895-.183-.091-.447.894zm-.138-.413l-.949.317.138.412.949-.316.948-.316-.137-.413-.949.316zm-.092-.688l-.991.133.092.688.991-.133.991-.132-.091-.688-.992.132zm.092-1.559l-.998-.059-.092 1.56.998.058.999.06.091-1.56-.998-.059zm.413-1.376l-.958-.287-.413 1.376.958.287.958.288.413-1.376-.958-.288zm.551-.825l-.832-.555-.551.825.832.555.832.555.551-.825-.832-.555zm.596-1.055l-.87-.492-.597 1.055.871.492.87.492.597-1.055-.871-.492zm.23-.596l-.934-.36-.229.597.933.359.934.36.229-.597-.933-.36zm.092-.872l-.995-.104-.092.871.995.105.994.105.092-.872-.994-.105zm-.046-1.054l-.999.043.045 1.055 1-.044.999-.043-.046-1.055-.999.044zm-.597-4.265l-.99.138.596 4.265.991-.138.99-.139-.597-4.265-.99.139zm-.367-.964l-.934.357.367.963.934-.356.934-.357-.367-.963-.934.356zm-.459-.825l-.874.486.459.825.874-.486.874-.485-.459-.826-.874.486zm-.183-.642l-.962.275.184.642.961-.275.962-.275-.184-.642-.961.275zm.045-.871l-.998-.053-.046.871.999.053.998.052.046-.87-.999-.053zm.23-.55l-.923-.386-.23.55.923.386.923.384.23-.55-.923-.385zm.459-.735l-.848-.53-.459.734.848.53.848.53.459-.733-.848-.53zm.046-.412l-.994-.11-.046.412.994.11.994.111.046-.413-.994-.11zm-33.759 41.782l.814-.582-.459-.642-.814.581-.813.582.458.642.814-.581zm.229.458l.895-.447-.23-.459-.894.448-.894.447.229.459.894-.448zm.459.55l.768-.64-.458-.55-.769.64-.768.64.459.551.768-.64zm.459.276l.515-.858-.459-.275-.515.858-.514.857.459.275.514-.857zm1.423.458l.307-.951-1.423-.46-.307.953-.307.951 1.423.459.307-.952zm.413.321l.614-.79-.413-.32-.614.789-.614.79.413.321.614-.79zm.275.505l.878-.479-.275-.505-.878.479-.878.479.275.505.878-.479zm.092.55l.986-.164-.091-.551-.987.165-.986.164.092.551.986-.165zm-.184.688l.967.258.183-.688-.966-.258-.966-.258-.184.688.966.258zm-.55.78l.817.577.55-.78-.817-.577-.816-.577-.551.78.817.577zm-1.928 1.834l.69.724 1.927-1.834-.689-.724-.69-.725-1.927 1.835.689.724zm-.183.321l.868.497.183-.322-.868-.496-.868-.496-.183.321.868.496zm-.092.367l.97.243.092-.367-.97-.243-.97-.243-.092.367.97.243zm.367.871l.922-.388-.367-.871-.922.388-.922.388.368.872.921-.389zm.138.597l.974-.225-.137-.597-.975.225-.974.225.137.597.975-.225zm-.092.963l.996.095.091-.964-.995-.094-.996-.095-.091.963.995.095zm.046.275l.986-.165-.046-.275-.986.165-.986.164.046.275.986-.164zm.413 1.009l.925-.379-.413-1.009-.925.379-.926.379.413 1.009.926-.379zm0 .504h1v-.504h-2v.504h1zm-.505 1.009l.894.448.505-1.009-.894-.448-.894-.447-.505 1.009.894.447zm-1.514.367l.235.972 1.515-.367-.236-.972-.235-.972-1.515.367.236.972zm-2.432.138l.056.998 2.432-.138-.056-.998-.057-.998-2.432.137.057.999zm-1.193-.138l-.115.993 1.193.138.115-.993.114-.994-1.193-.137-.114.993zm-.964-.229l-.232.973.964.229.232-.973.231-.973-.964-.229-.231.973zm-.321-.184l-.496.869.321.183.496-.868.496-.869-.321-.183-.496.868zm-.643.046l.071.998.643-.046-.071-.998-.072-.997-.642.046.071.997zm-.642.184l.274.961.643-.183-.275-.962-.274-.961-.643.183.275.962zm-1.102.825l.6.8 1.102-.825-.6-.8-.6-.801-1.101.826.599.8zm-1.009.917l.672.74 1.01-.917-.673-.74-.672-.74-1.01.917.673.74zm-.413.23l.485.874.413-.229-.485-.875-.486-.874-.413.229.486.875zm-3.029.963l.303.953 3.029-.963-.303-.953-.303-.953-3.029.963.303.953zm-4.864.871l.176.984 4.865-.871-.177-.984-.176-.985-4.864.872.176.984zm-2.845 1.192l.386.923 2.845-1.193-.386-.922-.387-.922-2.845 1.192.387.922zm-.964-.229l-.231.973.963.229.232-.973.231-.972-.963-.23-.232.973zm-.367-.413l-.747.665.367.413.747-.665.747-.664-.367-.413-.747.664zm-.092-.642l-.99.142.092.642.99-.142.99-.141-.092-.642-.99.141zm.138-1.742l-.997-.079-.138 1.743.997.078.997.079.138-1.743-.997-.078zm-.23-.78l-.959.282.23.78.959-.282.959-.283-.229-.779-.96.282zm-1.835-2.11l-.754.657 1.835 2.109.754-.656.755-.656-1.836-2.11-.754.656zm-.459-.871l-.885.466.459.871.885-.466.885-.466-.459-.871-.885.466zm-.367-1.284l-.962.275.368 1.284.961-.275.962-.275-.368-1.284-.961.275zm-.505-.963l-.886.464.505.963.886-.464.886-.464-.505-.963-.886.464zm-1.652-2.11l-.787.617 1.652 2.109.787-.616.787-.617-1.652-2.109-.787.616zm-.229-.321l-.814.582.23.321.813-.582.814-.581-.23-.321-.813.581zm-.046-.504l-.996.09.046.505.996-.091.996-.09-.046-.505-.996.091zm.413-1.193l-.945-.327-.413 1.192.945.328.945.327.413-1.192-.945-.328zm-.046-.458l-.995.099.046.459.995-.1.995-.099-.046-.459-.995.1zm-.597-.551l-.678.735.597.551.678-.735.678-.735-.597-.551-.678.735zm-1.239-.779l-.532.846 1.239.78.532-.847.533-.846-1.239-.78-.533.847zm-.321-.413l-.789.614.321.413.789-.614.79-.614-.322-.413-.789.614zm.046-.321l-.99-.141-.046.321.99.141.99.142.046-.321-.99-.142zm.229-.321l-.813-.582-.23.322.814.581.814.581.229-.321-.814-.581zm1.285-.78l-.518-.855-1.285.78.518.855.519.855 1.285-.78-.519-.855zm3.213-1.192l-.348-.938-3.213 1.193.348.937.348.938 3.213-1.192-.348-.938zm.78 0v-1h-.78v2h.78v-1zm1.698.734l.396-.918-1.698-.734-.396.918-.397.918 1.698.734.397-.918zm.321.046l.141-.99-.321-.046-.141.99-.142.99.321.046.142-.99zm.413-.092l-.217-.976-.413.091.217.977.217.976.413-.092-.217-.976zm.367-.23l-.53-.848-.367.23.53.848.53.848.367-.23-.53-.847zm.367-.55l-.832-.555-.367.55.832.556.832.555.367-.55-.832-.556zm-.183-1.146l-.988.158.184 1.146.987-.158.987-.158-.183-1.146-.987.158zm.183-.597l-.956-.294-.183.597.956.294.955.294.184-.596-.956-.294zm.275-.229l-.64-.768-.275.23.64.767.64.769.275-.23-.64-.768zm8.949-2.614l-.281-.96-8.948 2.614.28.96.281.96 8.948-2.614-.28-.96zm3.35-.367l-.109-.994-3.35.367.109.994.109.994 3.35-.367-.109-.994zm.734.138l.184-.983-.734-.138-.184.983-.185.983.735.138.184-.983zm.78.458l.507-.862-.78-.458-.507.862-.507.862.78.459.507-.863zm1.055 1.101l.722-.692-1.055-1.1-.722.691-.722.693 1.056 1.1.721-.692zm.826.642l.614-.79-.826-.641-.614.79-.613.789.826.642.613-.79zm.322.367l.752-.659-.321-.367-.753.66-.752.658.321.367.753-.659zm.229.688l.949-.316-.23-.688-.948.316-.949.316.23.688.948-.316zm.275.459l.858-.515-.276-.459-.857.515-.857.515.275.458.857-.514zm.505.229l.414-.91-.505-.23-.414.91-.413.911.505.23.413-.911zm1.606.413l.249-.969-1.606-.413-.249.969-.249.968 1.606.413.249-.968zm.505.367l.588-.81-.505-.366-.588.809-.588.809.505.366.588-.809z" fill="#fff"/><path d="M233.411 27.652l.964 3.119 2.249 4.54.183.871-.138.596-.229.597-.184.78-.091.962.091 2.11.184.963.321.78.826 1.1.321.55.23.597.092.596v1.33l-.505 2.247.138.826 2.294 5.365.138.642.046.642-.092.688-.276.597-.367.32-.504.092-5.186-.917-.78-.504-1.423-1.514-.367-.229h-.78l-1.744.596-.413.275-.183.596-.23 3.394-.183.734-.275.55-.413.367-.459.138-.459-.046-.505-.23-1.01-.87-2.065-2.66-1.284-1.055-2.937-1.193h-.735l-.688.275-2.891 3.302-.413.184-.413-.046-.459-.23-3.763-3.164-1.055-.412-.689.091-.367.275-2.432-2.155-.688-1.33-.597-3.119-1.743.459-.964-.275-.413-.413-1.285-1.513-.367-.276-.367-.091-1.606.137-.551-.275-.642-.55-.505-.046-.459.092-.78.367h-.551l-.688-.276-.367-.045-.322.137-.275.321-.78 1.284-.367.505-1.423 1.192-.688.871-.734 1.422-.459.642-.597.505-1.101.596-.505.367-.826.78-.596.458-2.478 1.192-2.754 1.835-6.057 1.56-1.193.137-.597-.092-.321-.413-.229-1.192-.23-.55-.321-.184-.459-.046-1.055.046-1.285-.183-3.029.046-.734.229-.505-2.43-4.818-3.99-3.809-12.016-.092-.596.092-.46.229-.412.322-.367.963-.596 1.239-3.21.276-.367 1.514-1.468.183-.366.092-.46v-1.1l.138-.55.505-.871.872-.826.78-4.403.229-.55.367-.092.505.23 3.533 3.669.551.137.597-.137.504-.367.413-.55.368-.689.183-.78.138-1.65.137-.55.23-.367.275-.23 2.019-.183.322-.184.458-.642.23-.917.321.825 2.34.643.964.55 2.616 1.972 2.478.55 1.468.046 1.102-.275.688-.78.642-1.238 1.056-2.843 1.422.046 2.478-.688 7.71.55.137-.917-.045-3.715-.138-.734.046-.596.183-.367.689-.734.183-.55-.046-3.119-1.055-1.513-1.101-.871-.276-1.239.689-.642.734-.275 1.009-.688.322-.504.183-.917 1.285 1.192 3.396.78.596 1.054.78.78.964.459.78-.138.23-1.1.596-1.422.872-.596.78.412.321 1.605.643 1.606 3.855.045 1.789.918 1.102 1.742-.092 1.055-.551 1.1-.505 1.973.23 1.56.596 1.88.826 1.788.735 1.147 1.33 1.1 1.239.505 1.01.871.826 2.018v1.055l-.184 1.055-.045 1.009.413.917.963.275.78-.78.643-1.146.596-.78 2.845-.23 5.415 1.881z" fill="#004873" stroke="#fff" stroke-width="2" stroke-linecap="round" stroke-linejoin="round"/><path d="M305.349 97.317l-7.159-2.293-.367.183-.275.367-.184.504-.137.642-.092 1.422-.184.642-.367.505-7.021 3.348-.367.321-.321.458-.276 1.33-.275.596-.321.459-.413.413-.918.458-6.057.597-1.056.412-1.009.734-2.616-2.247-.78-.184-.321-.229-1.056-1.376-.275-.229-.597-.138-.734-.412-.826-.734-.688-1.009-.505-1.055-.367-.321-3.901-.78-.55-.366-.322-.597-.137-.642v-2.155l-.092-.55-.184-.413-.367-.275-1.881-.597-2.845.092-.643.275-4.313 4.265-.367.184-.276-.092-.55-.642-.459-1.1-.643-2.706-.275-.367-.321-.138-3.396.963-.413.55-.321.643-.872 2.889-.367.413-.413.137-.505-.137-2.753-1.88-.368-.092-2.065.596h-1.009l-2.662-1.33-1.009.091-1.331.643-4.084 3.898-.551.046-3.717-1.422.184-.275-.046-.459-.276-.642-.871-1.33-.643-.78-.505-.55-1.101-.734-.367-.596.046-.504.092-.321 1.101-1.147.275-.459.23-.687-.138-.597-1.055-3.026-.276-1.101-.183-.871v-1.422l-.23-1.835-.229-.596-.276-.596-.596-.504-.413-.23h-.505l-2.799.321-1.836-.412-.596-.046-1.285.275h-.964l-.367-.184-.367-.412-.23-.55-.183-1.193-.275-.871-.597-.918-.413-.412-.413-.276-3.35-1.467-.183-.092-.138-.412-.092-.689.092-1.559.413-1.376.551-.825.596-1.055.23-.596.091-.871-.046-1.055-.596-4.265-.367-.963-.459-.826-.184-.642.046-.871.23-.55.459-.734.045-.413-.137-.413.367-.275.688-.092 1.056.413 3.763 3.164.458.23.413.046.414-.184 2.891-3.302.688-.275h.734l2.937 1.192 1.285 1.055 2.065 2.66 1.009.871.505.23.459.046.459-.138.413-.367.275-.55.184-.734.229-3.394.184-.596.413-.275 1.744-.596h.78l.367.23 1.422 1.512.781.505 5.185.917.505-.092.367-.32.275-.597.092-.688-.046-.642-.137-.642-2.295-5.365-.138-.826.505-2.247v-1.33l-.092-.596-.229-.597-.321-.55-.826-1.1-.321-.78-.184-.963-.092-2.11.092-.963.184-.78.229-.596.138-.596-.184-.871-2.249-4.54-.963-3.12 8.122 2.89.78.505.872 1.375.505.459.734.23 5.645-1.33 1.652.137.137.734.23.642 3.441 5.87.413.138 1.882-.046 3.992-1.514 1.147.138.918.871.872 1.697.597 1.468.367 1.467-.184 1.238-.963.826-.184.688.184.642 2.891-.55 4.175-4.036 2.891.275 2.111 1.651 1.056.459 1.147-.23.826-1.055.459-1.375.505-1.055.872-.184 2.478.046 2.202.55 2.065 1.193 5.782 6.145.597 2.018-2.111.872.275.825v.321l-.504.917-.184 1.376v.642l-.367.734-1.423 1.376-.642.917-1.147.23-2.157-.597-1.101.367-.505 1.376-1.01.871-1.193.688-1.055.871-.367.138-.597.413-.413.046.459 1.513-1.377-.32-.55 1.696.642 1.88 2.203.413.872 2.706.321.642.872.688.504-.092.505-.413.78-.275h3.075l.642.184.505 1.008.046.964-.092.963.184.963 1.193 1.605 3.029 1.1 1.514 1.055.964 1.376 1.743 3.119.964 1.376.872 1.559 2.065 2.11.734 2.017.734 3.623.643 1.284 1.193 1.56zM427.481 175.925h-.734l-.413-.183-.367-.275-.322-.459-.229-.596-.551-2.981-.183-.688-.322-.55-.413-.505-1.147-.734-.459-.504-1.422-3.027-.321-.413-1.194-.412-5.139.045-.459-.137-2.019-1.468-.643-.275-10.554 1.055-.597-.092-.459-.275-.367-.367-.275-.504-.275-1.33-.184-.413-.505-.459-2.982-.046-1.056-1.192-.826-.642-1.927-.504-.138-1.33-.321-1.147-.23-.55-.734-.963-1.835-1.56-2.111-1.009-.459-.458-2.065-4.357-.367-.413-.413-.091-.367.137-1.239.826-.459.091-.459-.137-.367-.413-.23-.55-.046-.688.367-3.486-.091-.458-.322-.459-1.56-1.33-1.927-.963-2.478.826-1.744-.138-2.478-1.697h-.367l-.367.184-1.56 1.192-3.442-.183-1.01-.505-5.185-5.641-.505-.183-.459.091-1.927 1.055-.459-.046-5.782-2.935-.275-.275-.184-.321-.184-1.101-.137-.275-.321-.183-2.891-.413-.918-.367-.276-.367-.183-.367-.046-.458.321-3.853.138-.596.183-.504 1.928-2.568.137-.321-.183-.643-1.882-1.834-.275-.55-.138-.551-.046-.596.046-.596.184-.596.275-.505 4.039-5.686.229-.459.046-.459v-.504l-.78-3.119.046-.458.183-.413.689-1.101.137-.55.138-1.605.229-.734.322-.642.917-1.055 5.461-3.073 1.56-2.292.367-.322.368-.137.413.046.963.596h.459l.459-.183.459-.413.367-.505.275-.504.184-.55.092-.505-1.056-6.283 1.469 1.238.642 1.972.321.23.368.046.367-.046.321-.23 2.019-2.43 3.212-.321 6.058 1.1 1.56-.412 1.147-.963 2.019-2.798.367-.871.184-.688.459-.321 1.147.458.367.321 1.423 1.927v.641l-.184.322-.734 1.972-.138.963.184 1.1.688.688 1.056 1.972-.643 1.605-1.331 1.193-2.891 1.697-1.835.733-3.258.138-.735.367-.504 1.055.137.78 3.304 4.173 1.056.458.688-.092.551-.366.734-.138.872.23 1.881.917.918.183v.367l-.596.55-.23.596.184.597.642.642.78.871.459 1.192.367 1.285.551 1.284.734 1.054 4.405 4.357 2.433.505 2.478-.734 2.019-1.789 1.239-.321 2.707-.091 2.203-.642.321-.459-.092-1.055-.504-.734h-.551l-.551.138-.367-.138-.275-2.384 2.065.504 3.946 2.614-.413 1.926.872 1.055 4.314.826 1.009.55 2.157 1.834.78.367 1.606.321.826.597.276.596.459 1.651.367.688 1.376 1.1.964-.183 1.881-1.651-.137-.321-.276-.046 2.708-.321 2.616.917 5.047 2.798h1.561l2.707-1.743.964.642.413 1.88-.138 1.605.275 1.285 1.79 1.008-1.835 2.156v2.797l1.193 3.211 1.606 3.256.688 3.073.413.779.918.642 2.065.184.964.275.872.734 1.33 1.559.872.55.964-.091 1.101-.459 1.056-.184 1.009.734.276.826.458 3.623.322.963.78 1.834.321.963.964 4.449.183 2.155-.275 1.743-2.799.092-1.239.458-2.8 2.569-1.881.091-1.973-.596-2.203-1.101-.459-.091-.505.091-1.927 1.009-2.983-.412-1.376.871-.368.871-.183 1.927-.321.917-.551.55-2.249 1.192-2.891 3.578-1.514.963-1.973-.413-.046 1.238z" fill="#004873" stroke="#fff" stroke-width="2" stroke-linecap="round" stroke-linejoin="round"/></svg>