<svg width="40" height="40" viewBox="0 0 40 40" fill="none" xmlns="http://www.w3.org/2000/svg"><g clip-path="url(#clip0_6453_2283)"><circle cx="20" cy="20" r="20" fill="#C22532"/><path fill-rule="evenodd" clip-rule="evenodd" d="M25.39 6.667H14.61c-4.38 0-7.943 3.563-7.943 7.944v10.778c0 4.38 3.563 7.944 7.944 7.944h10.778c4.38 0 7.944-3.563 7.944-7.944V14.611c0-4.38-3.563-7.944-7.944-7.944zm5.26 18.722a5.261 5.261 0 01-5.26 5.262H14.61a5.262 5.262 0 01-5.26-5.262V14.611a5.261 5.261 0 015.26-5.262h10.78a5.261 5.261 0 015.26 5.262v10.778zM20 13.103A6.905 6.905 0 0013.103 20 6.905 6.905 0 0020 26.897 6.905 6.905 0 0026.897 20 6.905 6.905 0 0020 13.103zm0 11.111a4.214 4.214 0 110-8.428 4.214 4.214 0 010 8.428zm8.563-11.06a1.653 1.653 0 11-3.305 0 1.653 1.653 0 013.305 0z" fill="#fff"/></g><defs><clipPath id="clip0_6453_2283"><path fill="#fff" d="M0 0h40v40H0z"/></clipPath></defs></svg>