<svg width="32" height="32" viewBox="0 0 32 32" fill="none" xmlns="http://www.w3.org/2000/svg"><circle cx="16" cy="16" r="16" fill="#004873"/><path fill-rule="evenodd" clip-rule="evenodd" d="M20.31 5.333h-8.623a6.362 6.362 0 00-6.355 6.356v8.622a6.363 6.363 0 006.355 6.356h8.623a6.363 6.363 0 006.355-6.356V11.69a6.363 6.363 0 00-6.355-6.356zm4.21 14.978a4.21 4.21 0 01-4.21 4.21h-8.623a4.21 4.21 0 01-4.209-4.21V11.69a4.21 4.21 0 014.21-4.21h8.622a4.21 4.21 0 014.21 4.21v8.622zm-8.521-9.829A5.524 5.524 0 0010.48 16 5.524 5.524 0 0016 21.517 5.524 5.524 0 0021.516 16 5.524 5.524 0 0016 10.482zm0 8.89a3.371 3.371 0 110-6.743 3.371 3.371 0 010 6.742zm6.85-8.848a1.322 1.322 0 11-2.644 0 1.322 1.322 0 012.644 0z" fill="#fff"/></svg>