<svg width="32" height="32" viewBox="0 0 32 32" fill="none" xmlns="http://www.w3.org/2000/svg"><path d="M0 16C0 7.163 7.163 0 16 0s16 7.163 16 16-7.163 16-16 16S0 24.837 0 16z" fill="#004873"/><path fill-rule="evenodd" clip-rule="evenodd" d="M11.544 9.882c0 1.046-.787 1.883-2.052 1.883H9.47c-1.217 0-2.004-.837-2.004-1.883C7.465 8.814 8.275 8 9.516 8c1.24 0 2.005.814 2.028 1.882zm-.239 3.37v10.894H7.68V13.252h3.626zm13.077 10.894V17.9c0-3.346-1.789-4.904-4.175-4.904-1.925 0-2.787 1.057-3.268 1.8v-1.544h-3.627c.048 1.022 0 10.895 0 10.895h3.627v-6.085c0-.325.023-.65.119-.883.262-.65.859-1.324 1.86-1.324 1.313 0 1.838.999 1.838 2.463v5.828h3.626z" fill="#fff"/></svg>