<svg width="182" height="51" viewBox="0 0 182 51" fill="none" xmlns="http://www.w3.org/2000/svg"><path d="M13.6 18.947h-1.667v2.55H13.6v-2.55zm0-4.717h-1.667v2.517H13.6V14.23zm2.217 2.367l-1.283 1.167 1.5 1.2v3.033l-1.767 1.7H9.499V12.03h4.685l1.633 1.5v3.067zM21.435 19.33h1.434l-.55-5.083h-.284l-.6 5.083zm1.717 2.2h-1.934l-.216 2.168h-2.534L20.1 12.03h3.934l1.9 11.668h-2.533l-.25-2.167zM34.77 15.797h-2.3V14.23h-1.667v2.367l2.384-.017 1.717 1.884v3.533l-1.767 1.7h-3l-1.768-1.7v-2.05h2.434v1.55h1.667v-2.6h-2.25l-1.717-1.7V13.73l1.767-1.7h2.734l1.767 1.7v2.067zM40.705 16.43h2.317v2.2h-2.317v2.867h2.734v2.2H38.27V12.03h5.168v2.2h-2.734v2.2zM50.44 18.947h-1.667v2.55h1.667v-2.55zm0-4.717h-1.667v2.517h1.667V14.23zm2.217 2.367l-1.284 1.167 1.5 1.2v3.033l-1.766 1.7h-4.768V12.03h4.684l1.634 1.5v3.067zM58.275 19.33h1.433l-.55-5.083h-.283l-.6 5.083zm1.717 2.2h-1.934l-.217 2.168h-2.534l1.634-11.668h3.934l1.9 11.668h-2.533l-.25-2.167zM70.41 23.698h-5.168V12.03h2.434v9.467h2.734v2.2zM78.345 23.698h-5.168V12.03h2.434v9.467h2.734v2.2zM129.121 14.23h-1.667v7.267h1.667v-2.783h2.434v3.283l-1.767 1.7h-3.001l-1.767-1.7V13.73l1.767-1.7h3.001l1.767 1.7v2.767h-2.434V14.23zM140.273 23.698h-6.001l-.083-1.95 3.667-7.518h-2.851v-2.2h5.668v1.95l-3.684 7.517h3.284v2.2zM145.757 16.43h2.317v2.2h-2.317v2.867h2.734v2.2h-5.168V12.03h5.168v2.2h-2.734v2.2zM155.492 14.23h-1.667v7.267h1.667v-2.783h2.434v3.283l-1.767 1.7h-3.001l-1.767-1.7V13.73l1.767-1.7h3.001l1.767 1.7v2.767h-2.434V14.23zM165.394 18.947h-1.667v4.75h-2.434V12.03h2.434v4.717h1.667V12.03h2.434v11.668h-2.434v-4.751zM101.682 38.783l-12.17-12.169h-8.25l20.42 20.42 20.421-20.42h-8.251l-12.17 12.169zM81.261 3.279h40.842v5.834H81.261V3.279zM125.537 44.117a3.531 3.531 0 11-7.062 0 3.531 3.531 0 017.062 0z" fill="#fff"/></svg>