<svg width="16" height="17" viewBox="0 0 16 17" fill="none" xmlns="http://www.w3.org/2000/svg"><path d="M1.332 5.167l5.443 3.81c.441.309.661.463.901.523.212.052.433.052.645 0 .24-.06.46-.214.901-.523l5.443-3.81M4.532 13.833h6.933c1.12 0 1.68 0 2.108-.218a2 2 0 00.874-.874c.218-.428.218-.987.218-2.108V6.367c0-1.12 0-1.68-.218-2.108a2 2 0 00-.874-.874c-.428-.218-.988-.218-2.108-.218H4.532c-1.12 0-1.68 0-2.108.218a2 2 0 00-.874.874c-.218.428-.218.988-.218 2.108v4.266c0 1.12 0 1.68.218 2.108a2 2 0 00.874.874c.428.218.988.218 2.108.218z" stroke="#000" stroke-width="1.25"/></svg>