<svg width="24" height="25" viewBox="0 0 24 25" fill="none" xmlns="http://www.w3.org/2000/svg"><path d="M3.412 10.87c-.596-.232-.894-.348-.98-.515a.5.5 0 010-.461c.086-.167.384-.283.979-.515l16.887-6.59c.538-.21.806-.315.978-.258a.5.5 0 01.316.316c.057.172-.048.44-.258.977l-6.59 16.888c-.232.595-.348.893-.515.98a.5.5 0 01-.462 0c-.166-.088-.282-.385-.514-.98l-2.628-6.759a1.071 1.071 0 00-.107-.232.5.5 0 00-.116-.117 1.074 1.074 0 00-.232-.106L3.411 10.87z" stroke="#000" stroke-width="1.66"/></svg>