<svg width="160" height="48" viewBox="0 0 160 48" fill="none" xmlns="http://www.w3.org/2000/svg"><g clip-path="url(#clip0_11479_10482)"><path d="M68.533.06h8.476a6.66 6.66 0 011.465 4.186c0 1.621-.497 3.086-1.779 4.029 1.544 1.151 2.381 2.982 2.381 4.605 0 3.374-2.093 5.494-5.415 5.494h-5.127V.06h-.001zm6.33 4.447c0-.967-.261-1.752-.837-2.538h-1.91V7.7c1.883-.393 2.747-1.387 2.747-3.192h0zm.602 8.372c0-1.36-.55-2.538-1.7-3.532-.524.078-1.073.13-1.649.13v7.326c2.145-.392 3.348-2.015 3.348-3.924h.001zM87.251 13.507h-3.845l-.76 4.865h-2.668l-.183-.157L83.876.06h4.134l3.924 18.313h-3.716l-.967-4.866h0zm-.392-1.91l-1.753-8.816-1.387 8.816h3.14zM92.925 17.3v-3.82l.236-.104 4.578 3.428a3.518 3.518 0 001.492-2.904c0-4.945-6.41-4.212-6.41-10.492 0-.993.157-1.909.575-3.348h8.503v3.82l-.236.104-4.918-2.355c-.21.602-.314 1.204-.314 1.675 0 3.69 6.488 4.264 6.488 10.15 0 2.983-2.25 5.128-5.442 5.128-1.753 0-3.506-.55-4.552-1.282zM104.526.06h9.26v4.055l-.235.105-5.441-2.59v6.304h4.081v1.91h-4.081v6.959l5.441-2.59.235.104v4.055h-9.26V.06zM115.882.06h8.476a6.656 6.656 0 011.465 4.186c0 1.621-.497 3.086-1.779 4.029 1.544 1.151 2.381 2.982 2.381 4.605 0 3.374-2.093 5.494-5.415 5.494h-5.128V.06h0zm6.33 4.447c0-.967-.261-1.752-.837-2.538h-1.909V7.7c1.883-.393 2.746-1.387 2.746-3.192v0zm.603 8.372c0-1.36-.55-2.538-1.701-3.532-.523.078-1.073.13-1.648.13v7.326c2.145-.392 3.348-2.015 3.348-3.924h.001zM134.6 13.507h-3.845l-.759 4.865h-2.669l-.183-.157L131.225.06h4.134l3.924 18.313h-3.716l-.967-4.866h0zm-.392-1.91l-1.753-8.816-1.386 8.816h3.139zM140.609.06h3.584v16.744l5.181-2.59.235.104v4.055h-9V.06zM150.979.06h3.584v16.744l5.181-2.59.235.104v4.055h-9V.06zM68.01 32.176c0-3.584.915-7.247 2.276-9.26h7.822v3.82l-.235.103-4.552-2.354c-.968 1.491-1.543 4.605-1.543 7.691 0 3.087.366 6.07 1.255 7.508l4.84-3.165.235.104v3.558c-1.047.732-2.8 1.255-4.551 1.255-4.238 0-5.547-4.003-5.547-9.26h0zM85.825 24.485l-5.755 2.354-.236-.104v-3.82h10.308L83.706 39.66l6.043-2.355.236.105v3.82H79.127l6.698-16.744zM91.526 22.915h9.261v4.056l-.236.104-5.441-2.59v6.305h4.081v1.909H95.11v6.96l5.441-2.59.236.103v4.056h-9.261V22.915v0zM102.025 32.176c0-3.584.915-7.247 2.276-9.26h7.822v3.82l-.236.103-4.551-2.354c-.968 1.491-1.544 4.605-1.544 7.691 0 3.087.366 6.07 1.256 7.508l4.839-3.165.236.104v3.558c-1.047.732-2.799 1.255-4.552 1.255-4.238 0-5.546-4.003-5.546-9.26v0zM113.983 22.915h3.584v7.875h3.479v-7.875h3.584v18.313h-3.584V32.7h-3.479v8.528h-3.584V22.915zM127.056 22.915h3.584v18.313h-3.584V22.915zM139.391 36.362h-3.846l-.759 4.866h-2.668l-.184-.158 4.082-18.156h4.133l3.924 18.313h-3.715l-.968-4.866.001.001zm-.392-1.91l-1.753-8.816-1.387 8.817h3.14z" fill="#FFF3D7" stroke="#F4EBCA" stroke-width=".53" stroke-miterlimit="10"/><path d="M23.49 41.48l14.674-1.92 8.098-8.087-13.56 4.386 18.831-24.827-.342-.588-23.66 3.124-2.482 6.715.46.481 15.876-5.047-19.316 24.339 1.421 1.424z" fill="#FFF3D7"/><path d="M8.823 26.791l-.195-.745c-.294-1.122-.706-3.42-.165-6.213.586-3.03 1.903-5.982 3.915-8.777 1.483-2.06 3.504-4.131 6.005-6.156 1.892-1.531 4.066-3.043 6.463-4.493l.64-.387H39.04l-7.851 10.383-.56-.21.59-8.375-.347.217a61.03 61.03 0 00-.87.557c-1.446.942-4.137 2.697-6.769 5.169-3.23 3.032-5.345 6.19-6.29 9.388-.265.902-.7 2.695-.622 4.581.08 1.908.657 3.364 1.717 4.327.772.69 1.825 1.071 2.966 1.071.208 0 .418-.013.623-.039 2.943-.367 5.775-2 8.912-5.135l.024-.025.165-.172.03-.032.441.472-.065.092c-1.731 2.49-5.027 6.174-6.708 7.68-1.355 1.215-2.516 2.051-3.653 2.632-1.41.72-2.871 1.085-4.34 1.085-.067 0-.133-.001-.203-.004l-.523-.014-6.883-6.878-.001.001z" fill="#FFF3D7" stroke="#F4EBCA" stroke-width=".53" stroke-miterlimit="10"/><path d="M25.487.02l-.64.388c-2.397 1.45-4.572 2.961-6.463 4.493-2.502 2.025-4.522 4.096-6.006 6.157-2.011 2.794-3.328 5.746-3.914 8.776-.54 2.794-.129 5.092.164 6.213l.196.745L0 17.97 7.511.021h17.976zM59.784 17.97L46.261 31.472l-13.559 4.385 18.83-24.826-.341-.588-23.66 3.124-2.482 6.714.46.481 15.877-5.046-19.317 24.339-6.362-6.387.523.014c.07.003.136.004.202.004 1.47 0 2.93-.366 4.34-1.085 1.138-.58 2.3-1.417 3.654-2.632 1.68-1.507 4.976-5.19 6.708-7.68l.065-.092-.44-.472-.031.032-.165.172-.024.025c-3.137 3.136-5.968 4.767-8.912 5.135a4.983 4.983 0 01-.623.039c-1.141 0-2.194-.38-2.966-1.072-1.06-.962-1.637-2.418-1.717-4.326-.078-1.886.356-3.679.623-4.581.944-3.197 3.06-6.356 6.29-9.388C25.864 5.29 28.555 3.536 30 2.592c.204-.132.622-.401.87-.556l.348-.217-.59 8.374.56.21L39.04.021h13.252l7.492 17.948zM38.164 39.56l-8.306 8.294-6.368-6.374 14.674-1.92z" fill="#DC0B29"/></g><defs><clipPath id="clip0_11479_10482"><path fill="#fff" d="M0 0h160v47.85H0z"/></clipPath></defs></svg>