<svg width="16" height="17" viewBox="0 0 16 17" fill="none" xmlns="http://www.w3.org/2000/svg"><path d="M5.587 6.402a9.735 9.735 0 001.897 2.673 9.734 9.734 0 002.674 1.898c.083.04.124.06.177.075a.697.697 0 00.575-.098c.044-.032.082-.07.159-.146.233-.233.35-.35.466-.426a1.333 1.333 0 011.454 0c.117.076.234.193.467.426l.13.13c.354.354.531.531.627.722.192.378.192.825 0 1.203-.096.19-.273.368-.627.722l-.106.105c-.353.353-.53.53-.77.664-.266.15-.68.258-.985.257-.275-.001-.463-.054-.84-.161a12.692 12.692 0 01-5.522-3.25 12.692 12.692 0 01-3.249-5.522c-.107-.376-.16-.564-.16-.84-.002-.305.106-.719.255-.985.135-.24.312-.417.665-.77l.105-.105c.354-.354.531-.531.722-.627a1.333 1.333 0 011.203 0c.19.096.368.273.722.627l.13.13c.233.233.35.35.426.467a1.333 1.333 0 010 1.454c-.077.117-.193.233-.426.466a1.346 1.346 0 00-.146.16.697.697 0 00-.098.574c.015.052.035.094.075.177z" stroke="#000" stroke-width="1.25"/></svg>