<svg width="81" height="80" viewBox="0 0 81 80" fill="none" xmlns="http://www.w3.org/2000/svg"><path fill-rule="evenodd" clip-rule="evenodd" d="M27.02 9.341l.12.08 35.163 23.442c1.017.678 1.96 1.306 2.685 1.89.756.61 1.647 1.456 2.16 2.693a6.666 6.666 0 010 5.108c-.513 1.237-1.404 2.082-2.16 2.692-.725.584-1.668 1.213-2.685 1.891L27.02 70.66c-1.243.829-2.362 1.575-3.31 2.089-.95.514-2.253 1.102-3.775 1.012a6.667 6.667 0 01-4.919-2.633c-.92-1.215-1.153-2.626-1.252-3.702-.098-1.074-.098-2.418-.098-3.913v-46.88-.144c0-1.495 0-2.839.098-3.913.099-1.076.333-2.487 1.252-3.702a6.667 6.667 0 014.92-2.633c1.52-.09 2.824.497 3.773 1.012.95.514 2.068 1.26 3.311 2.089z" fill="#C22532"/></svg>