<svg width="20" height="21" viewBox="0 0 20 21" fill="none" xmlns="http://www.w3.org/2000/svg"><path d="M7.917 7.971c0-.398 0-.596.083-.708a.417.417 0 01.304-.165c.138-.01.305.097.64.312l3.934 2.53c.29.186.435.28.485.398a.417.417 0 010 .324c-.05.119-.195.212-.485.399L8.944 13.59c-.335.215-.502.322-.64.312A.416.416 0 018 13.737c-.083-.111-.083-.31-.083-.708V7.97z" stroke="#C22532"/><path d="M2.5 7c0-1.4 0-2.1.272-2.635a2.5 2.5 0 011.093-1.093C4.4 3 5.1 3 6.5 3h7c1.4 0 2.1 0 2.635.272a2.5 2.5 0 011.092 1.093C17.5 4.9 17.5 5.6 17.5 7v7c0 1.4 0 2.1-.273 2.635a2.5 2.5 0 01-1.092 1.092C15.6 18 14.9 18 13.5 18h-7c-1.4 0-2.1 0-2.635-.273a2.5 2.5 0 01-1.093-1.092C2.5 16.1 2.5 15.4 2.5 14V7z" stroke="#C22532"/></svg>