<svg width="48" height="48" viewBox="0 0 48 48" fill="none" xmlns="http://www.w3.org/2000/svg"><g clip-path="url(#clip0_6974_13231)"><path d="M24 48c13.255 0 24-10.745 24-24S37.255 0 24 0 0 10.745 0 24s10.745 24 24 24z" fill="#FFDA44"/><path d="M18.781 20.87h29.014C46.261 9.094 36.192 0 24 0 22.207 0 20.46.2 18.78.571v20.3zM12.522 20.87V2.918C5.932 6.514 1.214 13.11.203 20.87h12.319zM12.522 27.131H.203c1.011 7.76 5.729 14.356 12.319 17.952V27.13zM18.781 27.131v20.3c1.68.372 3.426.57 5.218.57 12.193 0 22.262-9.094 23.796-20.87H18.781z" fill="#0052B4"/></g><defs><clipPath id="clip0_6974_13231"><path fill="#fff" d="M0 0h48v48H0z"/></clipPath></defs></svg>