<svg width="20" height="21" viewBox="0 0 20 21" fill="none" xmlns="http://www.w3.org/2000/svg"><path d="M15 13.697c1.214.61 2.254 1.588 3.013 2.811.15.242.226.363.252.531.052.34-.18.76-.498.895-.156.066-.332.066-.683.066m-3.75-7.89a3.75 3.75 0 000-6.72m-1.667 3.36a3.75 3.75 0 11-7.5 0 3.75 3.75 0 017.5 0zm-9.534 9.532C3.462 14.287 5.558 13 7.917 13s4.455 1.287 5.784 3.282c.291.437.437.655.42.935a.924.924 0 01-.33.614c-.222.169-.53.169-1.143.169H3.186c-.614 0-.92 0-1.144-.169a.924.924 0 01-.329-.614c-.017-.28.129-.498.42-.935z" stroke="#000" stroke-width="1.66"/></svg>