<svg width="40" height="41" viewBox="0 0 40 41" fill="none" xmlns="http://www.w3.org/2000/svg"><path d="M7.75 4.5A3.25 3.25 0 0111 1.25h16c.121 0 .238.048.323.134l10.793 10.793a.457.457 0 01.134.323v24A3.25 3.25 0 0135 39.75H11a3.25 3.25 0 01-3.25-3.25v-32z" stroke="#E4E4E7" stroke-width="1.5"/><path d="M27 1v7.5a4 4 0 004 4h7.5" stroke="#E4E4E7" stroke-width="1.5"/><rect x="1" y="18.5" width="26" height="16" rx="2" fill="#079455"/><path d="M6.386 23.227l1.467 2.479h.057l1.474-2.479h1.736L8.9 26.864l2.27 3.636H9.4L7.91 28.018h-.057L6.362 30.5H4.6l2.276-3.636-2.233-3.637h1.743zm5.707 7.273v-7.273h1.538v6.005h3.118V30.5h-4.656zm9.62-5.181a.899.899 0 00-.367-.668c-.215-.158-.507-.238-.877-.238-.25 0-.463.036-.635.107a.894.894 0 00-.398.288.692.692 0 00-.135.419.598.598 0 00.082.34.853.853 0 00.252.253c.106.068.23.129.37.18.139.05.288.093.447.129l.653.156c.317.07.608.166.873.284.266.118.495.264.69.437.194.172.344.376.45.61.11.235.165.504.167.807-.002.445-.116.83-.34 1.157-.223.325-.545.577-.966.757-.42.177-.925.266-1.517.266-.587 0-1.098-.09-1.534-.27a2.247 2.247 0 01-1.015-.799c-.242-.355-.369-.794-.38-1.317h1.487c.017.244.087.447.21.61.125.161.292.283.5.366.211.08.45.12.714.12.26 0 .487-.037.679-.113a1.04 1.04 0 00.45-.316.73.73 0 00.16-.465c0-.163-.048-.3-.145-.412a1.103 1.103 0 00-.42-.284 4.274 4.274 0 00-.67-.213l-.792-.199c-.613-.15-1.098-.382-1.453-.7-.355-.317-.531-.744-.529-1.282-.002-.44.115-.825.352-1.154.239-.329.567-.585.983-.77.417-.185.89-.277 1.42-.277.54 0 1.012.092 1.414.277.405.184.72.441.945.77.225.33.34.71.348 1.144h-1.474z" fill="#fff"/></svg>