<svg width="32" height="32" viewBox="0 0 32 32" fill="none" xmlns="http://www.w3.org/2000/svg"><g clip-path="url(#clip0_6754_10661)"><path d="M0 16C0 7.163 7.163 0 16 0s16 7.163 16 16-7.163 16-16 16S0 24.837 0 16z" fill="#004873"/><path d="M24.177 12.049a2.167 2.167 0 00-1.51-1.55c-1.33-.366-6.667-.366-6.667-.366s-5.337 0-6.668.367a2.167 2.167 0 00-1.509 1.549c-.356 1.366-.356 4.218-.356 4.218s0 2.85.356 4.218a2.167 2.167 0 001.51 1.549C10.662 22.4 16 22.4 16 22.4s5.337 0 6.668-.366a2.167 2.167 0 001.509-1.55c.357-1.366.357-4.217.357-4.217s0-2.852-.357-4.218z" fill="#fff"/><path d="M14.4 19.2v-5.333l4.267 2.666L14.4 19.2z" fill="#004873"/></g><defs><clipPath id="clip0_6754_10661"><path fill="#fff" d="M0 0h32v32H0z"/></clipPath></defs></svg>